<svg xmlns="http://www.w3.org/2000/svg" xmlns:xlink="http://www.w3.org/1999/xlink" width="207.93" height="160.956" viewBox="0 0 207.93 160.956">
  <defs>
    <clipPath id="clip-path">
      <rect id="Rectángulo_5166" data-name="Rectángulo 5166" width="185.458" height="137.972" fill="#fff"/>
    </clipPath>
    <clipPath id="clip-path-2">
      <rect id="Rectángulo_5170" data-name="Rectángulo 5170" width="41.317" height="158.956" transform="translate(0 0)" fill="none"/>
    </clipPath>
  </defs>
  <g id="Grupo_78297" data-name="Grupo 78297" transform="translate(-1052.07 -463.044)">
    <ellipse id="Elipse_4052" data-name="Elipse 4052" cx="26.5" cy="5" rx="26.5" ry="5" transform="translate(1207 614)" fill="#b8c3a8"/>
    <g id="Grupo_78296" data-name="Grupo 78296" transform="translate(-7)">
      <g id="Grupo_78290" data-name="Grupo 78290" transform="translate(-5.7 -15.412)">
        <g id="Grupo_78289" data-name="Grupo 78289" transform="translate(1064.771 488.839)">
          <g id="Grupo_78288" data-name="Grupo 78288" transform="translate(0 0)">
            <g id="Grupo_78287" data-name="Grupo 78287">
              <g id="Grupo_78286" data-name="Grupo 78286" clip-path="url(#clip-path)">
                <path id="Trazado_100572" data-name="Trazado 100572" d="M27.6,38.257V95.479c0,1.553-.173,2.328.345,3.1a1.389,1.389,0,0,0,1.206.775,1.6,1.6,0,0,0,1.46-.859c.517-.775.432-1.551.432-3.188V38.257h2.676V96.6c0,3.964-1.465,5.945-4.572,5.945a4.24,4.24,0,0,1-3.275-1.378,6.468,6.468,0,0,1-1.293-4.482V38.26Z" transform="translate(2.824 4.401)" fill="#fff" fill-rule="evenodd"/>
                <path id="Trazado_100573" data-name="Trazado 100573" d="M50.017,38.257l4.4,36.884V38.257h1.981V102.2H53.551L49.24,62.9v39.3H46.914V38.257h3.1Z" transform="translate(5.397 4.401)" fill="#fff" fill-rule="evenodd"/>
                <path id="Trazado_100574" data-name="Trazado 100574" d="M77.111,41.014H72.887V67.04h4.224v2.245H72.887v30.25h4.827v2.676H69.1V38.257h8.015Z" transform="translate(7.948 4.401)" fill="#fff" fill-rule="evenodd"/>
                <rect id="Rectángulo_5162" data-name="Rectángulo 5162" width="150.555" height="5.343" transform="translate(18.184 33.609)" fill="#fff"/>
                <rect id="Rectángulo_5163" data-name="Rectángulo 5163" width="150.555" height="5.344" transform="translate(18.184 111.341)" fill="#fff"/>
                <rect id="Rectángulo_5164" data-name="Rectángulo 5164" width="168.481" height="5.342" transform="translate(8.532 122.116)" fill="#fff"/>
                <rect id="Rectángulo_5165" data-name="Rectángulo 5165" width="185.458" height="5.429" transform="translate(0 132.543)" fill="#fff"/>
                <path id="Trazado_100575" data-name="Trazado 100575" d="M16,27.577V21.89L90.888,0l75.664,21.545v5.687L90.2,6.463Z" transform="translate(1.84 0)" fill="#fff" fill-rule="evenodd"/>
                <path id="Trazado_100576" data-name="Trazado 100576" d="M31.384,26.466l58.51-16.8,57.74,16.8h-15.6L89.721,15,47.494,26.121Zm71.528,33.523h3.276V47.579s-.087-3.619-.95-4.654a4.951,4.951,0,0,0-4.136-1.81,3.712,3.712,0,0,0-3.448,1.638,6.571,6.571,0,0,0-1.206,4.308c0,1.724.087,9.394.345,11.979.259,2.5,2.676,12.669,4.051,17.58a64.112,64.112,0,0,1,1.984,8.877c.085,1.465.256,6.379.085,8.79-.085,2.413,0,5.776,0,5.776s.172,2.676-1.378,2.676c-1.638,0-1.465-2.676-1.465-2.676V84.9H96.793V99.979s-.86,5.516,4.31,5.516a4.927,4.927,0,0,0,5.246-4.584c.008-.109.011-.22.011-.329V86.791a46.582,46.582,0,0,0-1.122-7.757c-.86-3.1-3.619-13.012-4.223-15.77a54.114,54.114,0,0,1-.948-11.117c0-3.878.087-6.291.087-6.291s-.087-1.81,1.378-1.81c1.378,0,1.293,1.9,1.293,1.9l.086,14.049Zm25.077.172h2.844v-14.9c0-2.326-1.291-4.653-4.482-4.653a4.5,4.5,0,0,0-4.655,4.335c-.006.134,0,.269,0,.4V101.36a4.476,4.476,0,0,0,4.293,4.652c.119,0,.24,0,.359,0a4.218,4.218,0,0,0,4.489-3.926,4.158,4.158,0,0,0-.007-.646v-16.8h-2.844v16.719c0,.86.087,1.9-1.638,1.9-1.81,0-1.636-1.553-1.636-2.154V45.511c0-.6-.174-2.154,1.636-2.154,1.725,0,1.638,1.115,1.638,1.981ZM151.775,40.6a4.793,4.793,0,0,0-4.993,4.587c0,.05,0,.1,0,.152v56.018a4.774,4.774,0,0,0,4.888,4.656l.109,0a4.5,4.5,0,0,0,4.815-4.167c.01-.135.013-.27.011-.4V45.256a4.572,4.572,0,0,0-4.482-4.66c-.115,0-.229,0-.343.007Zm1.983,60.757c0,.86-.256,1.9-1.981,1.9a1.924,1.924,0,0,1-1.994-1.852,1.819,1.819,0,0,1,.012-.3V45.511a1.923,1.923,0,0,1,1.677-2.142,1.986,1.986,0,0,1,.3-.012,1.751,1.751,0,0,1,1.981,1.981Z" transform="translate(3.61 1.111)" fill="#fff" fill-rule="evenodd"/>
              </g>
            </g>
          </g>
        </g>
      </g>
      <g id="Grupo_78295" data-name="Grupo 78295" transform="translate(1223.869 463.045)">
        <g id="Grupo_78294" data-name="Grupo 78294" transform="translate(0 -0.001)" clip-path="url(#clip-path-2)">
          <path id="Trazado_100578" data-name="Trazado 100578" d="M110.341,50.52s-4.867,0-4.02-5.532c0,0,2.931,2.768,6.069,1.622,0,0,.238,3.716-2.049,3.909" transform="translate(-94.595 -40.063)" fill="#842217"/>
          <path id="Trazado_100579" data-name="Trazado 100579" d="M26.32,333.976l-1.547.337s-4.231,18.206-2.639,22.528,4.151.043,4.95-.348,7.872-20.426,7.872-20.426Z" transform="translate(-19.392 -297.418)" fill="#e28262"/>
          <path id="Trazado_100580" data-name="Trazado 100580" d="M13.99,318.46l2.781-21.144c1.656-5.563,7.77-3.509,7.77-3.509,4.585,1.7,3.855,5.309,3.855,5.309L22.118,320.84s-1.19,3.3-5.546,2.86c0,0-3.171-.758-2.581-5.241" transform="translate(-12.394 -261.315)" fill="#00172f"/>
          <path id="Trazado_100581" data-name="Trazado 100581" d="M9.089,1369.85s-.821,3.2-1.831,4.064-4.86,2.143-4.86,2.143l-2.134.307s-1.483,1.063,2.588,2.182,11.213-2.257,11.213-2.257l-1.611-6.535Z" transform="translate(0 -1219.817)" fill="#251110"/>
          <path id="Trazado_100582" data-name="Trazado 100582" d="M275.837,1374.66c.718-1.119,2.224-7.22,2.224-7.22l3.325-.1,2.082,6.717s.334,1.124-.346,1.545c0,0-4.147,1.44-7.689-.069a2.46,2.46,0,0,1,.4-.873" transform="translate(-245.283 -1217.667)" fill="#251110"/>
          <path id="Trazado_100583" data-name="Trazado 100583" d="M53.25,286.566,49,260.613s-1.463-3.9,1.464-5.851l11.153-5.243h7.866l13.408,7.924L74.1,286.566Z" transform="translate(-43.313 -222.206)" fill="#f39672"/>
          <path id="Trazado_100584" data-name="Trazado 100584" d="M111.628,587.96s2.409,5.5,2.99,18.141c0,0-18.127,5.686-23.812,0l-.032-18.141Z" transform="translate(-80.837 -523.6)" fill="#001f3d"/>
          <path id="Trazado_100585" data-name="Trazado 100585" d="M172.729,691.143a7.441,7.441,0,1,0,7.493-7.626,7.563,7.563,0,0,0-7.493,7.626" transform="translate(-153.822 -608.698)" fill="#001f3d"/>
          <path id="Trazado_100586" data-name="Trazado 100586" d="M191.322,734.935l1.972,36.128s-3.49,4.579-9.67-.587l-6.71-33.232s3.257-11.169,14.408-2.309" transform="translate(-157.549 -651.444)" fill="#001f3d"/>
          <path id="Trazado_100587" data-name="Trazado 100587" d="M246.615,1033.548s3.4,6.461,2.844,17.023l.552,19.747-5.6.167-5.891-33.2s3.121-11.147,8.1-3.734" transform="translate(-212.407 -918.148)" fill="#001f3d"/>
          <path id="Trazado_100588" data-name="Trazado 100588" d="M90.8,696.344c-.43,4.22,1.077,7.831,5.164,8.248a7.685,7.685,0,0,0,1.559-15.283c-4.086-.417-6.292,2.815-6.723,7.035" transform="translate(-80.797 -613.823)" fill="#001f3d"/>
          <path id="Trazado_100589" data-name="Trazado 100589" d="M91.1,750.115l-4.193,33.022s-7.418.987-8.863-4.063c0,0-.093-23.31,1.458-34.516,0,0,10.05-4.9,11.6,5.557" transform="translate(-69.503 -662.037)" fill="#001f3d"/>
          <path id="Trazado_100590" data-name="Trazado 100590" d="M82.054,1054.731s1.341,4.946.107,12.917l-3.044,22.3-6-.424.541-35.935s3.3-4.994,8.4,1.137" transform="translate(-65.113 -936.557)" fill="#001f3d"/>
          <path id="Trazado_100591" data-name="Trazado 100591" d="M279.908,351.062l1.528.408s2.386,18.3.6,22.544-3.471.034-4.251-.393-6.6-20.868-6.6-20.868Z" transform="translate(-241.5 -312.634)" fill="#f39672"/>
          <path id="Trazado_100592" data-name="Trazado 100592" d="M272.605,336.178l-5.01-21.553a6.268,6.268,0,0,1,6.582-5.418c4.871.443,5.11,4.115,5.11,4.115l.322,21.92s.321,3.747-2.5,3.548c0,0-4.041-.632-4.5-2.612" transform="translate(-238.303 -275.354)" fill="#00172f"/>
          <path id="Trazado_100593" data-name="Trazado 100593" d="M167.121,197.151v8.407H158.23a11.67,11.67,0,0,0,1.093-8.407Z" transform="translate(-140.91 -175.57)" fill="#f39672"/>
          <path id="Trazado_100594" data-name="Trazado 100594" d="M166.539,204.29c-.8.515-2.5,1.613-3.477.971a.918.918,0,0,1-.421-.652,12.319,12.319,0,0,0,.61-7.458h7.8v.762c-.974,2.461-2.222,4.9-4.51,6.377" transform="translate(-144.838 -175.57)" fill="#db765e"/>
          <path id="Trazado_100595" data-name="Trazado 100595" d="M202.15,58.865s1.513-.657,3.226-4.4c0,0,3.72-4.429,1.083-9.456,0,0-1.557-4.251-9.106-3.061,0,0-.679,11.394,4.8,16.919" transform="translate(-175.726 -37.167)" fill="#f3906b"/>
          <path id="Trazado_100596" data-name="Trazado 100596" d="M138.693,61.133l-.5-1.317L136.8,54.91a5.068,5.068,0,0,1-.073-2.076,5.1,5.1,0,0,0,.02-2.138,6.191,6.191,0,0,1,.931-5.529c1.992-3.327,6.895-3.437,6.895-3.437,6.071.158,6.718,6.014,6.718,6.014,1.074,3.88-1.955,7.2-1.961,7.21-.242.265-.084,1.547-.151,1.914-.284,1.565-1.753,2.557-3.057,3.247a14.558,14.558,0,0,1-4.791,1.755c-.614.071-2.351.02-2.639-.736" transform="translate(-121.565 -37.161)" fill="#f39672"/>
          <path id="Trazado_100597" data-name="Trazado 100597" d="M75.548,285.86c-.018.864,1.295,9.91.743,10.026,0,0-15.007,3.459-23.009,0l-.032-9.321L49,260.612s-1.463-3.9,1.464-5.851l11.153-5.243-.753,2.261,1.613,4.586,7.006-6.847,13.408,7.925q-1.124,3.725-2.244,7.45c-1.383,4.577-2.727,9.168-4.151,13.733,0,0-1.178,4.951-.951,7.234" transform="translate(-43.313 -222.205)" fill="#fff"/>
          <path id="Trazado_100598" data-name="Trazado 100598" d="M183.922,264.429l.094,4.178,1.539-1.505Z" transform="translate(-163.79 -235.484)" fill="#a7c3c5"/>
          <path id="Trazado_100599" data-name="Trazado 100599" d="M166.028,321.134a.6.6,0,1,0,.6-.6.6.6,0,0,0-.6.6" transform="translate(-147.854 -285.451)" fill="#d2eae6"/>
          <path id="Trazado_100600" data-name="Trazado 100600" d="M166.028,420.041a.6.6,0,1,0,.6-.6.6.6,0,0,0-.6.6" transform="translate(-147.854 -373.531)" fill="#d2eae6"/>
          <path id="Trazado_100601" data-name="Trazado 100601" d="M166.028,518.943a.6.6,0,1,0,.6-.6.6.6,0,0,0-.6.6" transform="translate(-147.854 -461.607)" fill="#d2eae6"/>
          <path id="Trazado_100602" data-name="Trazado 100602" d="M166.028,617.845a.6.6,0,1,0,.6-.6.6.6,0,0,0-.6.6" transform="translate(-147.854 -549.683)" fill="#d2eae6"/>
          <line id="Línea_137" data-name="Línea 137" y2="41.088" transform="translate(20.133 33.6)" fill="none" stroke="#d2eae6" stroke-miterlimit="10" stroke-width="2.948"/>
          <path id="Trazado_100603" data-name="Trazado 100603" d="M89.173,658.3s7.664,3.59,23.348-.079c.258-.062.15-.73.15-.73l-.15-1.51c-.068-.484-.338-.461-.338-.461s-15.007,3.459-23.01,0c0,0-.323-.057-.336.428v1.883a.5.5,0,0,0,.336.47" transform="translate(-79.113 -583.762)" fill="#3d1a0c"/>
          <path id="Trazado_100604" data-name="Trazado 100604" d="M163.024,669.935a.429.429,0,0,0,.424.434H166.5a.429.429,0,0,0,.423-.434v-2.2a.428.428,0,0,0-.423-.433h-3.052a.429.429,0,0,0-.424.433Z" transform="translate(-145.179 -594.259)" fill="none" stroke="#bababa" stroke-miterlimit="10" stroke-width="4.823"/>
          <line id="Línea_138" data-name="Línea 138" x1="1.616" transform="translate(20.128 74.439)" fill="none" stroke="#bababa" stroke-miterlimit="10" stroke-width="4.823"/>
          <path id="Trazado_100605" data-name="Trazado 100605" d="M183.922,232.543s4.921-1.911,6.079-3.814l1.453,2.771-5.186,4.974-2.346-3.837" transform="translate(-163.789 -203.692)" fill="#c2e3e5"/>
          <path id="Trazado_100606" data-name="Trazado 100606" d="M120.142,8.258c.221-1.6,5.441-.747,6.808-.5a2.986,2.986,0,0,1,2.234,1.21c.165.3.825,2.385.013,3.431a21.33,21.33,0,0,1,.886,3.984l.415.023a18.028,18.028,0,0,1,.977,4.636s3.045-1.313,5.16-6.873c2.141-7.079-3.121-10.2-3.121-10.2a20.763,20.763,0,0,0-9.642-1.521S119.017,2.9,117.92,0c0,0-3.075,6.65,2.222,8.258" transform="translate(-104.222 0)" fill="#842217"/>
          <path id="Trazado_100607" data-name="Trazado 100607" d="M240.539,137.833a1.35,1.35,0,0,0,.854.306,1.97,1.97,0,0,0,1.886-1.937,1.805,1.805,0,0,0-1.616-2.045,1.7,1.7,0,0,0-1.223.491,2.46,2.46,0,0,0-.463,1.982,1.846,1.846,0,0,0,.561,1.2" transform="translate(-213.682 -119.471)" fill="#f39672"/>
          <path id="Trazado_100608" data-name="Trazado 100608" d="M251.514,140.361c.083-.575,1.226.031,1.034.348a1.765,1.765,0,0,1-.489.434.851.851,0,0,0-.388.615c-.006.033-.017.133.015.159.146.112.668-.431.783-.543a.968.968,0,0,0,.183-.918.579.579,0,0,0-.621-.462c-.263,0-.531.008-.53.335,0,.008.009.063.014.033" transform="translate(-223.97 -124.67)" fill="#e47a5d"/>
          <path id="Trazado_100609" data-name="Trazado 100609" d="M249.606,148.485c-.115-.128-.236-.033-.365.052a.55.55,0,0,0-.225.331,1.356,1.356,0,0,0,.1.97.73.73,0,0,0,.612.364c.352.005.47-.3.5-.6.007-.079.022-.268-.054-.32s-.148.07-.207.124a.489.489,0,0,1-.3.1.634.634,0,0,1-.513-.258.317.317,0,0,1-.049-.093c-.008.195,0,.24.025.133a.506.506,0,0,1,.074-.134c.087-.132.229-.218.325-.341.047-.058.137-.262.079-.328" transform="translate(-221.717 -132.176)" fill="#e47a5d"/>
          <path id="Trazado_100610" data-name="Trazado 100610" d="M210.922,261.55l-5.964,20.95.885,38.065s10.234.763,14.284-2.9L216.3,294.1l5.8-25.942Z" transform="translate(-182.523 -232.92)" fill="#00172f"/>
          <path id="Trazado_100611" data-name="Trazado 100611" d="M46.554,262.894l-6.791,3.192a4.245,4.245,0,0,0-3.076,5.025L38.922,293.3l-3.7,25.563s3.177,3.814,9.5,1.573l2.785-37.3Z" transform="translate(-31.364 -234.117)" fill="#00172f"/>
          <path id="Trazado_100612" data-name="Trazado 100612" d="M145.973,239.244a6.254,6.254,0,0,1,2.67-3.229l-.29,6.032s-1.231-3.086-2.38-2.8" transform="translate(-129.994 -210.18)" fill="#c2e3e5"/>
          <path id="Trazado_100613" data-name="Trazado 100613" d="M144.129,268.158l.2-2.8c.677-.166,1.283.782,1.776,1.559Z" transform="translate(-128.352 -236.291)" fill="#a7c3c5"/>
          <path id="Trazado_100614" data-name="Trazado 100614" d="M188.352,275.467l.182-.339,1.237,1.9-1.063.379Z" transform="translate(-167.734 -245.011)" fill="#a8bc8b"/>
          <path id="Trazado_100615" data-name="Trazado 100615" d="M154.751,275.433l-.347-.531a1.428,1.428,0,0,0,.066,2.3,6.176,6.176,0,0,1,.281-1.771" transform="translate(-136.997 -244.81)" fill="#a8bc8b"/>
          <path id="Trazado_100616" data-name="Trazado 100616" d="M162.234,278.226a2.726,2.726,0,0,1-2.863.168,2.146,2.146,0,0,0-.281,1.771l.94,1.938h1.313l1.246-1.938a4.16,4.16,0,0,0-.355-1.939" transform="translate(-141.616 -247.771)" fill="#537e39"/>
          <path id="Trazado_100617" data-name="Trazado 100617" d="M156.129,313.64l1.06,27.731-2.213,4.308-1.807-4.286,1.647-27.753Z" transform="translate(-136.402 -279.308)" fill="#537e39"/>
          <path id="Trazado_100618" data-name="Trazado 100618" d="M247.2,453.353l2.726-2.154a32.011,32.011,0,0,1,6.156-.343s.677.942-4.5,1.087a25.38,25.38,0,0,1,4.8,2.023s.187,1.074-3.134-.486l-1.511-.111,3.513,1.754s-.137.669-3.336-.2l-3.208.351Z" transform="translate(-220.141 -401.447)" fill="#f39672"/>
          <path id="Trazado_100619" data-name="Trazado 100619" d="M21.356,460.753l17.57-2.1a6.483,6.483,0,0,1,1.349,5.06l-22.444,7.119s-5.93,1.052-4.366-6.089a10.674,10.674,0,0,1,7.891-3.988" transform="translate(-11.758 -408.447)" fill="#00152c"/>
          <path id="Trazado_100620" data-name="Trazado 100620" d="M74.438,450.089a21.3,21.3,0,0,0,4.341,1.837l1.837-3.17-2.509-1.628-1.721-.4s-2.831-.73-3.577,3.154Z" transform="translate(-64.839 -397.782)" fill="#f39672"/>
          <path id="Trazado_100621" data-name="Trazado 100621" d="M151.627,468.633c1.061,6.42-3.608,4.8-3.608,4.8l-23.808-8.568c.671-3.689,2.18-4.267,2.18-4.267l20.363,3.885s3.831,1.2,4.873,4.151" transform="translate(-110.615 -410.179)" fill="#002141"/>
        </g>
      </g>
    </g>
  </g>
</svg>
