<svg xmlns="http://www.w3.org/2000/svg" width="360.093" height="443" viewBox="0 0 360.093 443">
  <g id="Grupo_108092" data-name="Grupo 108092" transform="translate(-449.403 -249.061)">
    <g id="Grupo_108060" data-name="Grupo 108060" transform="translate(660.079 249.061)">
      <g id="Grupo_108058" data-name="Grupo 108058" transform="translate(0 99.741)">
        <g id="Grupo_108056" data-name="Grupo 108056" transform="translate(0 0)">
          <path id="Trazado_188969" data-name="Trazado 188969" d="M704.885,299.717l-14.073,26.051V639.633H570.278V325.768L556.4,299.717Z" transform="translate(-556.4 -299.717)" fill="#fff" opacity="0.73"/>
          <g id="Grupo_108053" data-name="Grupo 108053" transform="translate(13.877 65.98)">
            <path id="Trazado_188970" data-name="Trazado 188970" d="M564,387.834s11.6-16.024,93.608,5.722c0,0,1.88,52.292-34.849,46.69S564,387.834,564,387.834Z" transform="translate(-562.912 -285.824)" fill="#004be3"/>
            <path id="Trazado_188971" data-name="Trazado 188971" d="M564.537,388.128s13.1,16.545,46.679,13.6,46.929-32.528,72.768-13.6V560.054H563.448Z" transform="translate(-563.448 -286.118)" fill="#3360ff"/>
            <circle id="Elipse_5003" data-name="Elipse 5003" cx="7.575" cy="7.575" r="7.575" transform="translate(85.942 228.207)" fill="#6d8afb"/>
            <circle id="Elipse_5004" data-name="Elipse 5004" cx="7.575" cy="7.575" r="7.575" transform="translate(22.954 17.692)" fill="#6d8afb"/>
            <circle id="Elipse_5005" data-name="Elipse 5005" cx="7.575" cy="7.575" r="7.575" transform="translate(24.734 140.296)" fill="#6d8afb"/>
            <circle id="Elipse_5006" data-name="Elipse 5006" cx="3.949" cy="3.949" r="3.949" transform="translate(22.632 231.833)" fill="#6d8afb"/>
            <path id="Trazado_188972" data-name="Trazado 188972" d="M614.829,408.769a3.949,3.949,0,1,1-3.95-3.95A3.949,3.949,0,0,1,614.829,408.769Z" transform="translate(-521.313 -263.854)" fill="#6d8afb"/>
            <circle id="Elipse_5007" data-name="Elipse 5007" cx="3.949" cy="3.949" r="3.949" transform="translate(74.807)" fill="#6d8afb"/>
            <path id="Trazado_188973" data-name="Trazado 188973" d="M576.006,431.674a2.572,2.572,0,1,1-2.571-2.572A2.572,2.572,0,0,1,576.006,431.674Z" transform="translate(-556.263 -240.324)" fill="#6d8afb"/>
            <circle id="Elipse_5008" data-name="Elipse 5008" cx="2.571" cy="2.571" r="2.571" transform="translate(86.997 182.26)" fill="#6d8afb"/>
            <circle id="Elipse_5009" data-name="Elipse 5009" cx="2.571" cy="2.571" r="2.571" transform="translate(92.142 58.506)" fill="#6d8afb"/>
            <circle id="Elipse_5010" data-name="Elipse 5010" cx="3.949" cy="3.949" r="3.949" transform="translate(42.687 193.922)" fill="#6d8afb"/>
            <path id="Trazado_188974" data-name="Trazado 188974" d="M589.6,374.276a3.949,3.949,0,1,1-3.948-3.948A3.949,3.949,0,0,1,589.6,374.276Z" transform="translate(-545.763 -297.276)" fill="#6d8afb"/>
            <path id="Trazado_188975" data-name="Trazado 188975" d="M599.042,463.743a3.949,3.949,0,1,1-3.948-3.95A3.949,3.949,0,0,1,599.042,463.743Z" transform="translate(-536.611 -210.585)" fill="#6d8afb"/>
          </g>
          <g id="Grupo_108055" data-name="Grupo 108055">
            <g id="Grupo_108054" data-name="Grupo 108054">
              <path id="Trazado_188976" data-name="Trazado 188976" d="M704.885,299.717l-14.073,26.051V639.633H570.278V325.768L556.4,299.717Z" transform="translate(-556.4 -299.717)" fill="none" stroke="#fff" stroke-linecap="round" stroke-linejoin="round" stroke-width="1.862"/>
              <line id="Línea_348" data-name="Línea 348" x1="120.535" transform="translate(13.877 26.051)" fill="none" stroke="#fff" stroke-linecap="round" stroke-linejoin="round" stroke-width="1.862"/>
            </g>
          </g>
        </g>
        <g id="Grupo_108057" data-name="Grupo 108057" transform="translate(74.243)">
          <path id="Trazado_188977" data-name="Trazado 188977" d="M594.106,299.717V639.633h60.169V325.768l14.073-26.051Z" transform="translate(-594.106 -299.717)" fill="#fff" opacity="0.18"/>
        </g>
      </g>
      <g id="Grupo_108059" data-name="Grupo 108059" transform="translate(20.873)">
        <path id="Trazado_188978" data-name="Trazado 188978" d="M642.472,259.082a13.348,13.348,0,0,0-18.827,1.327c-.286.329-.547.667-.794,1.014A26.508,26.508,0,0,0,588.4,301.512a19.959,19.959,0,1,0,37.594,0,26.444,26.444,0,0,0,7.726-18.709c0-.1-.014-.2-.016-.309a13.336,13.336,0,0,0,8.766-23.411Z" transform="translate(-553.753 -242.517)" fill="#fff" opacity="0.37"/>
        <path id="Trazado_188979" data-name="Trazado 188979" d="M583.58,270.056a8.289,8.289,0,1,1-8.289-8.289A8.29,8.29,0,0,1,583.58,270.056Z" transform="translate(-567.001 -236.749)" fill="#fff" opacity="0.37"/>
        <circle id="Elipse_5011" data-name="Elipse 5011" cx="6.133" cy="6.133" r="6.133" transform="translate(100.849)" fill="#fff" opacity="0.37"/>
      </g>
    </g>
    <g id="Grupo_108091" data-name="Grupo 108091" transform="translate(449.403 269.964)">
      <g id="Grupo_108067" data-name="Grupo 108067" transform="translate(48.716 165.532)">
        <g id="Grupo_108063" data-name="Grupo 108063" transform="translate(21.207)">
          <g id="Grupo_108061" data-name="Grupo 108061" transform="translate(43.762 196.235)">
            <path id="Trazado_188980" data-name="Trazado 188980" d="M516.3,479.618l-9.164-33.229,17.571-2.979,5.3,36.208L545.4,497.435h-7.911a14.843,14.843,0,0,1-10-3.863C523.788,490.2,518.812,485.026,516.3,479.618Z" transform="translate(-507.14 -443.41)" fill="#de7f69"/>
            <path id="Trazado_188981" data-name="Trazado 188981" d="M513.516,461.8s-3.668-.138-3.493,6.844,0,17.278,0,17.278h3.493V473.859l10.469,12.062h35.952s-1.92-6.632-18.849-6.458Z" transform="translate(-504.352 -425.591)" fill="#1f0a00"/>
          </g>
          <g id="Grupo_108062" data-name="Grupo 108062">
            <path id="Trazado_188982" data-name="Trazado 188982" d="M523.33,343.747l29.608,218.694H526.815l-41.9-206.565Z" transform="translate(-484.914 -343.747)" fill="#3f454f"/>
          </g>
        </g>
        <g id="Grupo_108066" data-name="Grupo 108066">
          <g id="Grupo_108064" data-name="Grupo 108064" transform="translate(0.574 196.235)">
            <path id="Trazado_188983" data-name="Trazado 188983" d="M476.213,479.618l1.764-33.229,17.571-2.979-5.625,36.208,15.386,17.817H497.4a14.839,14.839,0,0,1-10-3.863C483.7,490.2,478.719,485.026,476.213,479.618Z" transform="translate(-472.714 -443.41)" fill="#de7f69"/>
            <path id="Trazado_188984" data-name="Trazado 188984" d="M477.935,461.8s-3.668-.138-3.493,6.844,0,17.278,0,17.278h3.493V473.859L488.4,485.921h35.952s-1.92-6.632-18.849-6.458Z" transform="translate(-474.436 -425.591)" fill="#1f0a00"/>
          </g>
          <g id="Grupo_108065" data-name="Grupo 108065">
            <path id="Trazado_188985" data-name="Trazado 188985" d="M491.208,345.182l34.322-1.435L501.79,562.441H474.144l5.426-148.192Z" transform="translate(-474.144 -343.747)" fill="#3f454f"/>
            <path id="Trazado_188986" data-name="Trazado 188986" d="M494.463,428.7l3.755-57.686,7.571-6.769" transform="translate(-454.455 -323.884)" fill="none" stroke="#1f0a00" stroke-linecap="round" stroke-linejoin="round" stroke-width="0.413"/>
          </g>
        </g>
      </g>
      <g id="Grupo_108070" data-name="Grupo 108070" transform="translate(46.458)">
        <path id="Trazado_188987" data-name="Trazado 188987" d="M484.637,294.641a24.225,24.225,0,1,0,23.872-24.573A24.224,24.224,0,0,0,484.637,294.641Z" transform="translate(-461.721 -249.611)" fill="#1f0a00"/>
        <path id="Trazado_188988" data-name="Trazado 188988" d="M496.774,288.746l-8.789,35.566,21.963,4.193,1.818-32.187Z" transform="translate(-458.475 -231.509)" fill="#de7f69"/>
        <path id="Trazado_188989" data-name="Trazado 188989" d="M506.11,312.127l-13.437-20.188,14.729,3.846Z" transform="translate(-453.931 -228.416)" fill="#261714"/>
        <path id="Trazado_188990" data-name="Trazado 188990" d="M504.934,291.524A6.838,6.838,0,1,0,509.3,282.9,6.839,6.839,0,0,0,504.934,291.524Z" transform="translate(-442.382 -237.509)" fill="#c95e4b"/>
        <path id="Trazado_188991" data-name="Trazado 188991" d="M506.321,271.945c10.414-1.506,20.029,5.946,22.041,16.274,1.353,6.941,1.6,15.076-.051,20.44C525.5,317.754,518.6,323.2,506.7,321.215a23.3,23.3,0,0,1-16.837-18.922C486.729,283.7,495.519,273.507,506.321,271.945Z" transform="translate(-457.274 -247.977)" fill="#de7f69"/>
        <g id="Grupo_108068" data-name="Grupo 108068" transform="translate(46.99 40.15)">
          <path id="Trazado_188992" data-name="Trazado 188992" d="M507,285.947a1.565,1.565,0,1,0,1.073-1.934A1.565,1.565,0,0,0,507,285.947Z" transform="translate(-487.099 -276.305)" fill="#261714"/>
          <path id="Trazado_188993" data-name="Trazado 188993" d="M500.289,286.233a1.565,1.565,0,1,0,1.073-1.936A1.564,1.564,0,0,0,500.289,286.233Z" transform="translate(-493.602 -276.029)" fill="#261714"/>
          <path id="Trazado_188994" data-name="Trazado 188994" d="M506.374,287.095l.87,1.967a1.027,1.027,0,0,1-.65,1.4l-1.368.4" transform="translate(-488.759 -273.259)" fill="none" stroke="#000" stroke-linecap="round" stroke-linejoin="round" stroke-width="0.342"/>
          <path id="Trazado_188995" data-name="Trazado 188995" d="M502.158,280.613s4.767-1.244,5.2.957c0,0,.258,1.5-3.916,2.491s-5.875,1.02-6.507-.321S499.888,281,502.158,280.613Z" transform="translate(-496.863 -279.879)" fill="#261714"/>
          <path id="Trazado_188996" data-name="Trazado 188996" d="M511,280.332s-4.194-1.055-4.867,1.057c0,0-.429,1.447,3.261,2.268,2.688.6,3.71.165,4.017-.8C513.769,281.706,512.588,280.6,511,280.332Z" transform="translate(-487.898 -280.068)" fill="#261714"/>
          <path id="Trazado_188997" data-name="Trazado 188997" d="M511.943,290.538l-11.371-.5S506.384,295.4,511.943,290.538Z" transform="translate(-493.268 -270.407)" fill="#fff"/>
        </g>
        <path id="Trazado_188998" data-name="Trazado 188998" d="M519.948,275.165s-7.811,15.945-33.055,17.172c0,0,1.723-12,9.78-18.073C501.509,270.62,511.314,268.909,519.948,275.165Z" transform="translate(-459.533 -248.709)" fill="#1f0a00"/>
        <path id="Trazado_188999" data-name="Trazado 188999" d="M495.8,277.418l2.153,18.155-11.727-7.046Z" transform="translate(-460.175 -242.486)" fill="#1f0a00"/>
        <g id="Grupo_108069" data-name="Grupo 108069" transform="translate(23.501 48.043)">
          <path id="Trazado_189000" data-name="Trazado 189000" d="M485.3,293.68a7.321,7.321,0,1,0,4.678-9.237A7.322,7.322,0,0,0,485.3,293.68Z" transform="translate(-484.933 -284.077)" fill="#de7f69"/>
          <path id="Trazado_189001" data-name="Trazado 189001" d="M486.952,286.855s5.33-1.662,6.891,4.212" transform="translate(-482.977 -281.595)" fill="none" stroke="#000" stroke-linecap="round" stroke-linejoin="round" stroke-width="0.302"/>
        </g>
        <path id="Trazado_189002" data-name="Trazado 189002" d="M515.619,284.169s-8.179-.931-14.752-12.962C500.867,271.207,510.919,274.259,515.619,284.169Z" transform="translate(-445.992 -248.505)" fill="#1f0a00"/>
        <path id="Trazado_189003" data-name="Trazado 189003" d="M499.566,296.84h0c-13.1,8.567-19.3,1.473-18.1-6.285a13.051,13.051,0,0,1,1.069-3.515s-10.477-1.2-9.473-9.758c0,0,.524-6.468,10.331-5.054,0,0-2.879-4.859.213-9.225a8.12,8.12,0,0,1,7.984-3.2,14,14,0,0,1,7.281,3.924s3.841-5.354,8.571-1.339c3.847,3.266,1.481,9.524,1.481,9.524s5.612-3.5,8.073-.256,1.012,8.591-6.114,15.417A109.344,109.344,0,0,1,499.566,296.84Z" transform="translate(-472.998 -259.677)" fill="#1f0a00"/>
      </g>
      <g id="Grupo_108090" data-name="Grupo 108090" transform="translate(0 88.979)">
        <g id="Grupo_108078" data-name="Grupo 108078" transform="translate(100.049 6.481)">
          <g id="Grupo_108071" data-name="Grupo 108071">
            <path id="Trazado_189004" data-name="Trazado 189004" d="M508.618,309.536h0a14.585,14.585,0,0,1,18.465,5.344l37.883,59.156a14.631,14.631,0,0,1-3.026,19.19h0a14.631,14.631,0,0,1-21.625-3.426l-37.8-59.209A14.583,14.583,0,0,1,508.618,309.536Z" transform="translate(-500.215 -308.158)" fill="#fcfcfc"/>
          </g>
          <g id="Grupo_108077" data-name="Grupo 108077" transform="translate(49.236 31.499)">
            <g id="Grupo_108073" data-name="Grupo 108073" transform="translate(29.426)">
              <path id="Trazado_189005" data-name="Trazado 189005" d="M559.422,350.977l11.978,7.358,1.045-24.7-4.872-8.059-14.459,11.474Z" transform="translate(-527.619 -322.783)" fill="#de7f69"/>
              <path id="Trazado_189006" data-name="Trazado 189006" d="M550.942,354.8l21.027-9.471-6.308-13.93-25.495,8.674Z" transform="translate(-540.166 -317.136)" fill="#de7f69"/>
              <g id="Grupo_108072" data-name="Grupo 108072" transform="translate(35.412)">
                <path id="Trazado_189007" data-name="Trazado 189007" d="M562.693,326.946l10.329-2.672a3.671,3.671,0,0,1,4.552,3.034h0a3.672,3.672,0,0,1-1.993,3.8l-6.222,3.109s1.431,9.78-11.209,13.6Z" transform="translate(-558.151 -324.156)" fill="#de7f69"/>
                <path id="Trazado_189008" data-name="Trazado 189008" d="M567.212,333.007s-3.523,5.962-9.061,6.234" transform="translate(-558.151 -315.58)" fill="none" stroke="#1f0a00" stroke-linecap="round" stroke-linejoin="round" stroke-width="0.378"/>
              </g>
            </g>
            <g id="Grupo_108076" data-name="Grupo 108076" transform="translate(0 13.075)">
              <g id="Grupo_108075" data-name="Grupo 108075" transform="translate(4.512)">
                <g id="Grupo_108074" data-name="Grupo 108074">
                  <path id="Trazado_189009" data-name="Trazado 189009" d="M571.145,330.8l-43.632,10.741,4.164,32.07,45.665-19.855Z" transform="translate(-527.512 -330.796)" fill="#fcfcfc"/>
                </g>
              </g>
              <line id="Línea_349" data-name="Línea 349" x1="10.269" y2="2.654" transform="translate(0 8.734)" fill="none" stroke="#ace8ff" stroke-linecap="round" stroke-linejoin="round" stroke-width="0.498"/>
            </g>
          </g>
        </g>
        <g id="Grupo_108079" data-name="Grupo 108079" transform="translate(45.347)">
          <path id="Trazado_189010" data-name="Trazado 189010" d="M506.171,305.188l-16.794.4c-6.043.246-8.955,3.373-12.928,7.933l-.268.307c-5.141,5.9-4.251,13.986-1.739,21.4l15.425,51.627s29.472,6.647,46.2-3.089l14.092-61.375c1.038-4.519-1.861-10.123-6.307-11.438l-19.739-4.442Z" transform="translate(-472.433 -304.556)" fill="#4dc8e4"/>
          <path id="Trazado_189011" data-name="Trazado 189011" d="M525.122,309.195l-.343,3.625c-.782,6.6-5.812,11.631-13.625,11.631h-6.921c-9.13,0-18.538-5.4-20.487-12.978l-1.471-5.71,14.36-.291,9.305-.6Z" transform="translate(-462.897 -304.867)" fill="#de7f69"/>
        </g>
        <g id="Grupo_108080" data-name="Grupo 108080" transform="translate(104.485 3.52)">
          <path id="Trazado_189012" data-name="Trazado 189012" d="M502.468,306.655s8.242,28.086.1,77.777L510,531.454l24.012-4.852s-2.493-83.7-18.987-143.441L528.4,327.95l-9.729-17.01S515.855,308.634,502.468,306.655Z" transform="translate(-502.468 -306.655)" fill="#fcfcfc"/>
          <line id="Línea_350" data-name="Línea 350" y1="22.787" x2="4.796" transform="translate(17.364 36.863)" fill="none" stroke="#ace8ff" stroke-linecap="round" stroke-linejoin="round" stroke-width="0.498"/>
          <path id="Trazado_189013" data-name="Trazado 189013" d="M502.468,306.655l12.413,8.629-5.93,5.682,6.854,6.629-10.584,35.8" transform="translate(-502.468 -306.655)" fill="none" stroke="#ace8ff" stroke-linecap="round" stroke-linejoin="round" stroke-width="0.498"/>
        </g>
        <g id="Grupo_108089" data-name="Grupo 108089" transform="translate(0 0.208)">
          <g id="Grupo_108081" data-name="Grupo 108081" transform="translate(32.07)">
            <path id="Trazado_189014" data-name="Trazado 189014" d="M501.019,304.993s-11.714-.9-23.955,9.207a4.759,4.759,0,0,0-1.737,5.06L492.464,385.1s-34.656,36.586-25.111,144.366l38.194,3.623s11.143-130.875,9-169.258C514.546,363.827,513.686,315.718,501.019,304.993Z" transform="translate(-465.69 -304.972)" fill="#fcfcfc"/>
            <path id="Trazado_189015" data-name="Trazado 189015" d="M486.955,304.983,480.2,319.249l9.322,5.191-5.705,11.021,16.8,31.735" transform="translate(-451.627 -304.962)" fill="none" stroke="#ace8ff" stroke-linecap="round" stroke-linejoin="round" stroke-width="0.498"/>
          </g>
          <g id="Grupo_108088" data-name="Grupo 108088" transform="translate(0 8.716)">
            <g id="Grupo_108083" data-name="Grupo 108083">
              <g id="Grupo_108082" data-name="Grupo 108082">
                <path id="Trazado_189016" data-name="Trazado 189016" d="M506.813,316.513h0c5.56,4.751,9.49,9.715,5.511,15.85L476.312,387.9a14.631,14.631,0,0,1-18.727,5.171h0a14.631,14.631,0,0,1-5.813-21.107l38.3-58.888C494.877,305.689,500.119,310.793,506.813,316.513Z" transform="translate(-449.403 -309.399)" fill="#fcfcfc"/>
              </g>
              <line id="Línea_351" data-name="Línea 351" y1="12.105" x2="7.317" transform="translate(50.776 30.412)" fill="none" stroke="#ace8ff" stroke-linecap="round" stroke-linejoin="round" stroke-width="0.498"/>
            </g>
            <g id="Grupo_108087" data-name="Grupo 108087" transform="translate(17.49 39.352)">
              <g id="Grupo_108084" data-name="Grupo 108084" transform="translate(47.835)">
                <path id="Trazado_189017" data-name="Trazado 189017" d="M508.827,349.19a13.8,13.8,0,1,1-6.48-18.408A13.8,13.8,0,0,1,508.827,349.19Z" transform="translate(-482.579 -329.348)" fill="#de7f69"/>
                <path id="Trazado_189018" data-name="Trazado 189018" d="M490.54,329.385l21.619,2.136a2.07,2.07,0,0,1,1.853,1.825h0a2.072,2.072,0,0,1-1.756,2.284l-18.134,2.644Z" transform="translate(-474.866 -329.385)" fill="#de7f69"/>
              </g>
              <g id="Grupo_108086" data-name="Grupo 108086" transform="translate(0 3.165)">
                <g id="Grupo_108085" data-name="Grupo 108085">
                  <path id="Trazado_189019" data-name="Trazado 189019" d="M507.825,330.992l-49.539,8.771,4.164,32.07,51.573-17.886Z" transform="translate(-458.285 -330.992)" fill="#fcfcfc"/>
                </g>
                <line id="Línea_352" data-name="Línea 352" x1="41.253" y2="7.304" transform="translate(8.287)" fill="none" stroke="#ace8ff" stroke-linecap="round" stroke-linejoin="round" stroke-width="0.498"/>
                <line id="Línea_353" data-name="Línea 353" x1="13.716" y2="5.061" transform="translate(41.354 23.187)" fill="none" stroke="#ace8ff" stroke-linecap="round" stroke-linejoin="round" stroke-width="0.498"/>
              </g>
            </g>
          </g>
        </g>
      </g>
    </g>
  </g>
</svg>
