<svg xmlns="http://www.w3.org/2000/svg" xmlns:xlink="http://www.w3.org/1999/xlink" width="500" height="455" viewBox="0 0 500 455">
  <defs>
    <filter id="Rectángulo_39455" x="0" y="147" width="500" height="308" filterUnits="userSpaceOnUse">
      <feOffset dy="3" input="SourceAlpha"/>
      <feGaussianBlur stdDeviation="3" result="blur"/>
      <feFlood flood-opacity="0.161"/>
      <feComposite operator="in" in2="blur"/>
      <feComposite in="SourceGraphic"/>
    </filter>
  </defs>
  <g id="Grupo_108429" data-name="Grupo 108429" transform="translate(-756 -4276)">
    <g id="Grupo_108428" data-name="Grupo 108428">
      <g id="Slider">
        <g transform="matrix(1, 0, 0, 1, 756, 4276)" filter="url(#Rectángulo_39455)">
          <rect id="Rectángulo_39455-2" data-name="Rectángulo 39455" width="482" height="290" rx="22" transform="translate(9 153)" fill="#fff"/>
        </g>
        <path id="Rectángulo_39454" data-name="Rectángulo 39454" d="M76,0H354a0,0,0,0,1,0,0V153a76,76,0,0,1-76,76H0a0,0,0,0,1,0,0V76A76,76,0,0,1,76,0Z" transform="translate(840 4276)" fill="#477fa2"/>
      </g>
      <text id="Identificación_de_la_muestra_nombre_código_etc._." data-name="Identificación de la muestra (nombre, código, etc.)." transform="translate(818.356 4556.021)" fill="#12263f" font-size="16" font-family="Roboto-Regular, Roboto"><tspan x="0" y="17">Identificación de la muestra (nombre, código, etc.).</tspan></text>
    </g>
    <g id="Icono" transform="translate(103.938 -28.193)">
      <path id="Trazado_45038" data-name="Trazado 45038" d="M588.61,813.672c.062,15.486.645,30.979,1.266,46.453a2.9,2.9,0,0,0,2.863,2.862c49.17-.249,98.343-.444,147.517-.174,9.967.054,19.941.088,29.908.394,8.2.251,11.628-6,17.378-11.692,6.068-6,13.635-10.224,13.822-19.019q.376-18.28.754-36.563c.077-3.692-5.641-3.683-5.721,0q-.341,16.5-.684,33-.064,3.092-.126,6.183c-.064,3,1.864-1.448-.529.917q-6.63,6.566-13.267,13.121-3.011,2.986-6.029,5.967c-.7.694-1.405,1.393-2.108,2.087-1.755,1.735-1.054.349.2.446-2.68-.206-5.382-.223-8.069-.281-10.666-.236-21.338-.266-32.005-.313-47.012-.216-94.028-.032-141.044.2.951.956,1.907,1.9,2.862,2.86-.624-15.473-1.208-30.966-1.268-46.453-.015-3.687-5.738-3.692-5.723,0Z" transform="translate(212.086 3610.84)" fill="#fff"/>
      <path id="Trazado_45039" data-name="Trazado 45039" d="M673.174,803.227c.336,15.2.8,30.407.846,45.611.011,3.689,5.729,3.689,5.718,0-.045-15.2-.508-30.414-.844-45.611-.079-3.683-5.8-3.694-5.721,0Z" transform="translate(308.703 3619.171)" fill="#fff"/>
      <path id="Trazado_45040" data-name="Trazado 45040" d="M585.658,810.663c.255,3.544.816,6.957,1.371,10.471a2.838,2.838,0,0,0,2.758,2.1c45.917-.114,91.834-1.161,137.751-1.491,17.3-.124,35.187-1.393,52.448.191,2.4.219,5.4-2.8,7.188-3.979q8.671-5.74,17.34-11.475c8.937-5.916,8.587-6.681,8.587-17.781a2.883,2.883,0,0,0-4.3-2.47q-13.247,8.388-26.505,16.778c-6.5,4.116-3.9,3.944-10.338,3.97q-29.978.141-59.955.272l-123.48.553c-3.687.017-3.692,5.738,0,5.725l125.841-.57q29.59-.129,59.182-.264c4.358-.019,6.13-1.262,10-3.706q14.073-8.909,28.151-17.817-2.156-1.234-4.3-2.47v9.976q2.311-2.616.718-1.423-6.132,4.059-12.255,8.114-7.212,4.769-14.419,9.543c-3.2,2.119-.446,1.292-4.069,1.157-19.761-.72-39.622-.126-59.387.03q-41.176.328-82.349.872-15.989.193-31.976.394-4.67.058-9.344.112l-2.916.028c-.321,0-.649.006-.973.009,2.638-.019,1.131-4.508.966-6.845C591.117,807.006,585.4,806.982,585.658,810.663Z" transform="translate(208.703 3602.445)" fill="#fff"/>
      <path id="Trazado_45041" data-name="Trazado 45041" d="M591.232,810.542c8.574-6.477,16.815-13.414,25.072-20.292,2.837-2.363-1.232-6.387-4.045-4.045-7.88,6.563-15.733,13.215-23.919,19.4-2.9,2.194-.058,7.167,2.893,4.941Z" transform="translate(210.392 3602.076)" fill="#fff"/>
      <path id="Trazado_45042" data-name="Trazado 45042" d="M592.355,805.76q.212,18.582.424,37.165a2.891,2.891,0,0,0,2.86,2.862c54.884-.313,109.879.315,164.743-1.284a2.9,2.9,0,0,0,2.858-2.86q.193-19.209.392-38.416c.036-3.692-5.684-3.687-5.723,0q-.193,19.206-.388,38.416,1.427-1.433,2.86-2.86c-54.864,1.6-109.859.971-164.743,1.281q1.427,1.43,2.858,2.86-.209-18.582-.422-37.165c-.041-3.687-5.763-3.69-5.721,0Z" transform="translate(216.364 3619.171)" fill="#fff"/>
      <path id="Trazado_45043" data-name="Trazado 45043" d="M597.388,826.078a90.089,90.089,0,0,0,12.7-8.793c2.235-1.834-.953-4.984-3.162-3.169a83.691,83.691,0,0,1-11.795,8.095c-2.515,1.421-.259,5.288,2.258,3.867Z" transform="translate(218.28 3634.151)" fill="#fff"/>
      <path id="Trazado_45044" data-name="Trazado 45044" d="M599.856,777.387q-.158,18.107-.311,36.213a2.206,2.206,0,0,0,1.108,1.932,30.139,30.139,0,0,0,20.444,1.448c4.454-1.266,4.034-3.72,3.992-7.533q-.186-16.082-.373-32.166c-.035-2.886-4.51-2.888-4.476,0q.109,9.8.227,19.591.071,6.283.144,12.575c.013,1.168.028,2.34.043,3.507,0-.064-5.208.57-6.953.651-1.493.069-9.665-1.725-9.676-.081,0-.784.011-1.566.019-2.351q.054-6.418.109-12.834.09-10.48.18-20.954c.026-2.89-4.452-2.886-4.478,0Z" transform="translate(224.58 3590.214)" fill="#fff"/>
      <path id="Trazado_45045" data-name="Trazado 45045" d="M599.742,803.645c-.163,8.084-2.353,31.041,8.877,33.837,16.333,4.062,15.527-24.065,15.557-33.205.009-2.886-4.469-2.884-4.48,0-.013,4.073-1.013,36.991-11.287,27.926-3.49-3.079-3.7-10.269-4.024-14.46-.366-4.684-.259-9.406-.167-14.1.06-2.888-4.42-2.884-4.476,0Z" transform="translate(224.488 3620.337)" fill="#fff"/>
      <path id="Trazado_45046" data-name="Trazado 45046" d="M608.8,794.618a19.685,19.685,0,0,0,4.2-.688c1.866-.461,1.076-3.338-.795-2.875a16.242,16.242,0,0,1-3.4.581c-1.922.056-1.926,3.04,0,2.982Z" transform="translate(233.507 3608.367)" fill="#fff"/>
      <path id="Trazado_45047" data-name="Trazado 45047" d="M607.913,807.89a24.736,24.736,0,0,0,4.516-.371c1.892-.347,1.084-3.222-.795-2.875a20.757,20.757,0,0,1-3.721.261,1.493,1.493,0,0,0,0,2.985Z" transform="translate(232.491 3623.919)" fill="#fff"/>
      <path id="Trazado_45048" data-name="Trazado 45048" d="M608.454,813.058a40.631,40.631,0,0,1,4.12-.953c1.885-.377,1.082-3.254-.8-2.875a39.865,39.865,0,0,0-4.114.951c-1.832.574-1.05,3.458.791,2.877Z" transform="translate(232.663 3629.151)" fill="#fff"/>
      <path id="Trazado_45049" data-name="Trazado 45049" d="M620.144,776.94v38.328a2.292,2.292,0,0,0,1.643,2.16c5.695,2.121,23.176,5.811,23.855-3.837.87-12.339,2.106-24.941,1.438-37.312-.154-2.871-4.63-2.886-4.476,0,.669,12.373-.581,24.969-1.438,37.313-.182,2.642,2.436-.505-1.313.863-2.275.831-15.234,2.25-15.234-2V776.94c0-2.888-4.476-2.888-4.476,0Z" transform="translate(248.115 3589.075)" fill="#fff"/>
      <path id="Trazado_45050" data-name="Trazado 45050" d="M620.451,803.487c-.96,9.9-2.41,32.931,11.422,34.549,13.721,1.6,13.616-26.043,13.325-34.232-.1-2.88-4.581-2.888-4.476,0,.259,7.27,1.1,27.086-7.732,29.7-9.871,2.914-8.564-24.826-8.062-30.013.278-2.873-4.2-2.845-4.476,0Z" transform="translate(247.809 3620.179)" fill="#fff"/>
      <path id="Trazado_45051" data-name="Trazado 45051" d="M628.905,792.809a30.5,30.5,0,0,0,5.466-.368c1.89-.341,1.088-3.216-.8-2.875a26.554,26.554,0,0,1-4.671.261,1.492,1.492,0,0,0,0,2.983Z" transform="translate(256.478 3606.69)" fill="#fff"/>
      <path id="Trazado_45052" data-name="Trazado 45052" d="M628.611,808.18a15.732,15.732,0,0,1,3.4.264c1.877.411,2.674-2.466.8-2.877a19.32,19.32,0,0,0-4.2-.371,1.493,1.493,0,0,0,0,2.984Z" transform="translate(256.139 3624.581)" fill="#fff"/>
      <path id="Trazado_45053" data-name="Trazado 45053" d="M628.519,812.113a18.842,18.842,0,0,0,3.88.688c1.924.075,1.92-2.91,0-2.982a15.329,15.329,0,0,1-3.085-.581c-1.868-.467-2.661,2.41-.795,2.875Z" transform="translate(256.468 3629.142)" fill="#fff"/>
      <path id="Trazado_45054" data-name="Trazado 45054" d="M643.977,776.886c-.036,12.256-.373,24.511-.613,36.764a2.21,2.21,0,0,0,1.108,1.933,29.773,29.773,0,0,0,19.45,2.022c4.6-1.039,5.127-3.366,5.078-7.332q-.19-16.217-.383-32.43c-.034-2.886-4.508-2.888-4.474,0q.109,9.31.218,18.619.071,5.923.141,11.846c.013,1.386.032,2.77.047,4.159.024,1.954-1.618.776-3.34,1.165-2.931.662-6.393.236-9.309-.24-1.663-.274-4.049-.276-4.045-.516q.106-5.409.208-10.824c.154-8.386.362-16.776.388-25.167.009-2.886-4.467-2.884-4.474,0Z" transform="translate(274.646 3589.764)" fill="#fff"/>
      <path id="Trazado_45055" data-name="Trazado 45055" d="M643.945,803.94c.007,10.308-.6,34.223,15.251,32.742,12.915-1.206,10.987-24.166,10.449-32.742-.178-2.867-4.656-2.884-4.474,0,.463,7.46,2.4,22.76-4.75,27.714-6.267,4.341-9.819-5.847-10.717-9.959-1.269-5.783-1.277-11.861-1.279-17.755,0-2.886-4.48-2.886-4.48,0Z" transform="translate(275.308 3620.674)" fill="#fff"/>
      <path id="Trazado_45056" data-name="Trazado 45056" d="M651.719,792.315a12.493,12.493,0,0,0,3.567.371,1.493,1.493,0,0,0,0-2.985,9.645,9.645,0,0,1-2.772-.263c-1.849-.546-2.633,2.333-.795,2.877Z" transform="translate(282.996 3606.499)" fill="#fff"/>
      <path id="Trazado_45057" data-name="Trazado 45057" d="M653.71,808.443a17.3,17.3,0,0,1,3.719-.264,1.493,1.493,0,0,0,0-2.984,20.857,20.857,0,0,0-4.514.371c-1.877.413-1.08,3.289.795,2.877Z" transform="translate(284.335 3624.581)" fill="#fff"/>
      <path id="Trazado_45058" data-name="Trazado 45058" d="M653.447,811.438a24.754,24.754,0,0,0,4.516-.369c1.89-.349,1.086-3.224-.8-2.877a20.534,20.534,0,0,1-3.719.263,1.492,1.492,0,0,0,0,2.983Z" transform="translate(284.517 3627.972)" fill="#fff"/>
      <path id="Trazado_45059" data-name="Trazado 45059" d="M663.9,777.478q.177,13.328.319,26.656c.028,2.85-.823,6.773,1.234,9.011,3.01,3.272,9.472,3.452,13.5,3.28,3.6-.154,7.8-1.352,9.393-4.876,1-2.207.3-5.738.3-8.065V777.8c0-2.888-4.476-2.888-4.476,0V807.36c0,3.694-1.02,4.137-5.221,4.587-2.865.306-10.211.037-10.22-2.777-.009-3.889-.06-7.775-.1-11.66q-.113-10.018-.249-20.033c-.041-2.886-4.521-2.886-4.478,0Z" transform="translate(298.112 3590.44)" fill="#fff"/>
      <path id="Trazado_45060" data-name="Trazado 45060" d="M672.666,792.211h5.067a1.492,1.492,0,0,0,0-2.982h-5.067a1.492,1.492,0,0,0,0,2.982Z" transform="translate(306.475 3606.339)" fill="#fff"/>
      <path id="Trazado_45061" data-name="Trazado 45061" d="M664.2,802.348c0,7.492.026,14.992.184,22.484.187,8.568,5.723,15.951,14.587,10.421,2.445-1.526.2-5.4-2.26-3.867-9.871,6.16-7.96-13.427-7.992-17.365q-.045-5.836-.045-11.673c0-2.888-4.476-2.888-4.474,0Z" transform="translate(298.451 3618.853)" fill="#fff"/>
      <path id="Trazado_45062" data-name="Trazado 45062" d="M611.917,815.431q11.4-.209,22.81-.422c3.681-.068,3.687-5.791,0-5.723q-11.406.212-22.81.422c-3.681.069-3.687,5.791,0,5.723Z" transform="translate(235.559 3629.255)" fill="#fff"/>
      <path id="Trazado_45063" data-name="Trazado 45063" d="M632.816,815.633c9.993-.024,19.99-.253,29.985-.427,3.683-.064,3.691-5.785,0-5.723-10,.176-19.992.4-29.985.424-3.689.011-3.692,5.731,0,5.725Z" transform="translate(259.431 3629.479)" fill="#fff"/>
      <path id="Trazado_45064" data-name="Trazado 45064" d="M657.257,815.041q9.924-.215,19.851-.426c3.681-.079,3.689-5.8,0-5.723q-9.924.215-19.851.426c-3.683.079-3.691,5.8,0,5.723Z" transform="translate(287.358 3628.803)" fill="#fff"/>
      <path id="Trazado_45065" data-name="Trazado 45065" d="M691.657,781.646s.66.009,1.774.133a7.523,7.523,0,0,1,2.04.7,11.693,11.693,0,0,1,2.412,1.5,17.815,17.815,0,0,1,2.355,2.3,23.17,23.17,0,0,1,3.747,6.445,31.337,31.337,0,0,1,1.183,3.773,30.208,30.208,0,0,1,.576,3.908,20.549,20.549,0,0,1,.019,3.84,21.666,21.666,0,0,1-.559,3.576,17.93,17.93,0,0,1-1.084,3.1,11.376,11.376,0,0,1-1.446,2.393,8.627,8.627,0,0,1-1.468,1.549,12.945,12.945,0,0,1-1.526.99s.21-.677.57-1.648a16.944,16.944,0,0,0,.4-1.819c.184-.649.1-1.521.238-2.323.032-.844-.032-1.783,0-2.725-.116-.981-.116-1.975-.287-3.032-.058-.523-.12-1.054-.18-1.59q-.164-.807-.287-1.626c-.137-1.1-.448-2.192-.641-3.3-.3-1.078-.506-2.2-.846-3.248-.169-.523-.315-1.054-.456-1.583-.176-.508-.353-1.007-.525-1.5-.31-1.024-.728-1.92-1.071-2.839-.424-.842-.8-1.686-1.2-2.429-.467-.639-.821-1.476-1.232-1.926a10.76,10.76,0,0,0-1.181-1.425C692.12,782.122,691.657,781.646,691.657,781.646Z" transform="translate(329.822 3597.675)" fill="#fff"/>
      <path id="Trazado_45066" data-name="Trazado 45066" d="M701.235,783.519a6.651,6.651,0,0,1,.759.356,10.3,10.3,0,0,1,1.618,1.1,10.961,10.961,0,0,1,.866.818,5.43,5.43,0,0,1,.713,1.172,13.156,13.156,0,0,1,1.011,2.9,12.305,12.305,0,0,1-.019,2.852,6.915,6.915,0,0,1-.761,2.458,9.181,9.181,0,0,1-1.084,1.673,5.546,5.546,0,0,1-.572.611,7.233,7.233,0,0,1-.587-.624,11.847,11.847,0,0,1-2.728-6.04,7.433,7.433,0,0,1-.154-2.218c.011-.384.126-.75.122-1.163a10.153,10.153,0,0,1,.073-1.2,10.823,10.823,0,0,1,.431-1.916A5.565,5.565,0,0,1,701.235,783.519Z" transform="translate(339.667 3599.814)" fill="#fff"/>
      <path id="Trazado_45067" data-name="Trazado 45067" d="M586.426,794.459l-.259.491a8.223,8.223,0,0,0-.593,1.358,21.874,21.874,0,0,0-.548,2.17q-.212,1.282-.368,2.856c-.088,1.052-.133,2.19-.18,3.4s0,2.488,0,3.805c.058,2.637.206,5.453.454,8.249s.6,5.575,1.039,8.148c.248,1.275.45,2.524.745,3.668s.608,2.211.939,3.19a20.87,20.87,0,0,0,1.123,2.556,12.523,12.523,0,0,0,1.223,1.81,7.261,7.261,0,0,0,1.059,1.02c.281.234.433.356.433.356a6.617,6.617,0,0,1-2.143-.416,9.208,9.208,0,0,1-2.243-1.286,13.084,13.084,0,0,1-2.352-2.376,24.914,24.914,0,0,1-3.786-7.214,34.554,34.554,0,0,1-1.166-4.362,40.819,40.819,0,0,1-.467-13.672,30.248,30.248,0,0,1,2.1-7.735,17.283,17.283,0,0,1,1.549-2.869,11.452,11.452,0,0,1,1.631-1.943A6.537,6.537,0,0,1,586.426,794.459Z" transform="translate(201.083 3612.314)" fill="#fff"/>
    </g>
  </g>
</svg>
