<svg xmlns="http://www.w3.org/2000/svg" xmlns:xlink="http://www.w3.org/1999/xlink" width="500" height="455" viewBox="0 0 500 455">
  <defs>
    <filter id="Rectángulo_39629" x="0" y="147" width="500" height="308" filterUnits="userSpaceOnUse">
      <feOffset dy="3" input="SourceAlpha"/>
      <feGaussianBlur stdDeviation="3" result="blur"/>
      <feFlood flood-opacity="0.161"/>
      <feComposite operator="in" in2="blur"/>
      <feComposite in="SourceGraphic"/>
    </filter>
  </defs>
  <g id="Grupo_108430" data-name="Grupo 108430" transform="translate(15865 7008)">
    <g transform="matrix(1, 0, 0, 1, -15865, -7008)" filter="url(#Rectángulo_39629)">
      <rect id="Rectángulo_39629-2" data-name="Rectángulo 39629" width="482" height="290" rx="22" transform="translate(9 153)" fill="#fff"/>
    </g>
    <path id="Rectángulo_39630" data-name="Rectángulo 39630" d="M76,0H354a0,0,0,0,1,0,0V153a76,76,0,0,1-76,76H0a0,0,0,0,1,0,0V76A76,76,0,0,1,76,0Z" transform="translate(-15781 -7008)" fill="#477fa2"/>
    <text id="Identificación_del_sitio_de_muestreo_georeferenciación:_latitud_longitud_." data-name="Identificación del sitio de muestreo (georeferenciación: latitud, longitud)." transform="translate(-15808.48 -6710)" fill="#12263f" font-size="16" font-family="Roboto-Regular, Roboto"><tspan x="0" y="17">Identificación del sitio de muestreo (georeferenciación: </tspan><tspan x="0" y="39">latitud, longitud).</tspan></text>
    <g id="Grupo_108045" data-name="Grupo 108045" transform="translate(91.436 -58.384)">
      <g id="Grupo_53956" data-name="Grupo 53956" transform="translate(-15786.021 -6888.866)">
        <path id="Trazado_45141" data-name="Trazado 45141" d="M225.131,1041.568c-11.507-.612-26.618-.2-35.972,7.313-7.165,5.761-7.043,18.684,1.116,23.5,10.722,6.326,22.336,3.212,30.8-5.13a44.8,44.8,0,0,0,8.363-12.313c1.76-3.608-1.374-.427,1.912-1.91q32.7-14.763,65.569-29.154c9.578-4.174,19.15-8.472,28.95-12.094,6-2.217,13.5-.965,19.794-2.691,7.322-2.008,13.392-7.474,18.792-12.515a2.385,2.385,0,0,0,0-3.33l-14.6-16.164a2.3,2.3,0,0,0-2.289-.607,52.1,52.1,0,0,0-20.947,14c-3.592,3.91-6.384,7.846-11.324,10.073q-15.139,6.828-30.267,13.69-30.545,13.819-61.081,27.65c-2.763,1.252-.37,5.308,2.375,4.067q35.83-16.223,71.663-32.44c8.611-3.9,20.139-7.022,26.916-13.923,2.832-2.887,5.278-6.131,8.13-9.015,2.294-2.321,12.636-11.117,14.838-8.676q6.629,7.335,13.256,14.672v-3.33c-5.541,5.172-11.144,9.775-18.559,11.81-5.024,1.383-10.472,1.026-15.6,1.822-7.3,1.13-14.556,5.255-21.314,8.141-20.13,8.585-40.113,17.534-60.084,26.484q-8.586,3.852-17.166,7.724c-3.416,1.541-4.479,6.306-6.41,9.341a28.9,28.9,0,0,1-13.33,11.565c-8.234,3.33-21.307-.91-19.884-11.42,1.838-13.614,26.177-12.978,36.356-12.433C228.168,1046.439,228.154,1041.729,225.131,1041.568Z" transform="translate(-183.961 -976.373)" fill="#fff"/>
      </g>
      <g id="Grupo_53957" data-name="Grupo 53957" transform="translate(-15773.527 -6807.238)">
        <path id="Trazado_45142" data-name="Trazado 45142" d="M191.046,1024.226s.346.072.91.249a6.262,6.262,0,0,0,.989.272c.369.067.725.176,1.169.224a8.966,8.966,0,0,0,1.351.123c.46.06.959-.016,1.448,0,.5-.069,1-.086,1.536-.192.524-.062,1.067-.2,1.612-.305,2.187-.5,4.529-1.229,6.447-1.568a16.259,16.259,0,0,1,3.308-.369,15.641,15.641,0,0,1-2.4,2.323,16.341,16.341,0,0,1-6.536,3.277,12.178,12.178,0,0,1-2.107.265,10.3,10.3,0,0,1-2.1-.118,8.946,8.946,0,0,1-1.912-.587,6.441,6.441,0,0,1-1.522-.891,5.621,5.621,0,0,1-1.1-1.005,3.391,3.391,0,0,1-.642-.868C191.2,1024.547,191.046,1024.226,191.046,1024.226Z" transform="translate(-191.046 -1022.66)" fill="#fff"/>
      </g>
      <g id="Grupo_53958" data-name="Grupo 53958" transform="translate(-15636.396 -6868.243)">
        <path id="Trazado_45143" data-name="Trazado 45143" d="M268.807,991.194s.344.03.917.129a10.28,10.28,0,0,0,2.127.152,21.254,21.254,0,0,0,5.825-1.042c2.123-.633,4.359-1.409,6.192-1.83a17.765,17.765,0,0,1,3.192-.534,13.284,13.284,0,0,1-2.171,2.435,15.964,15.964,0,0,1-6.156,3.531,13.134,13.134,0,0,1-1.987.4,10.5,10.5,0,0,1-2.007.079,9.2,9.2,0,0,1-1.882-.323,6.44,6.44,0,0,1-1.589-.652,5.164,5.164,0,0,1-1.2-.82,3.018,3.018,0,0,1-.739-.769C268.987,991.488,268.807,991.194,268.807,991.194Z" transform="translate(-268.807 -988.067)" fill="#fff"/>
      </g>
      <g id="Grupo_53959" data-name="Grupo 53959" transform="translate(-15730.25 -6855.729)">
        <path id="Trazado_45144" data-name="Trazado 45144" d="M215.587,1013.934s.541-.48,1.525-1.233,2.4-1.806,4.165-2.938a57.907,57.907,0,0,1,6.176-3.6c2.337-1.185,4.871-2.365,7.44-3.465,2.509-1.113,5.051-2.15,7.481-3.042,1.194-.474,2.432-.8,3.508-1.252s2.129-.843,3.1-1.19c1.942-.719,3.628-1.224,4.828-1.564s1.922-.483,1.922-.483-.5.506-1.441,1.312-2.3,1.933-4.03,3.173c-.857.631-1.8,1.312-2.818,1.975a37.751,37.751,0,0,1-3.285,1.892c-2.315,1.224-4.839,2.45-7.393,3.592-2.529,1.072-5.1,2.062-7.544,2.908l-3.559,1.178c-1.123.413-2.211.741-3.217,1.047-2.007.624-3.721,1.044-4.934,1.316S215.587,1013.934,215.587,1013.934Z" transform="translate(-215.587 -995.163)" fill="#fff"/>
      </g>
      <g id="Grupo_53960" data-name="Grupo 53960" transform="translate(-15680.743 -6863.208)">
        <path id="Trazado_45145" data-name="Trazado 45145" d="M243.689,994.751a4.8,4.8,0,0,1-.028-.538,5.742,5.742,0,0,1,.1-1.12,2.84,2.84,0,0,1,1.2-1.912,3.308,3.308,0,0,1,2.592.011,3.855,3.855,0,0,1,.97.594,3.167,3.167,0,0,1,.383.358s-.028.236-.086.547a10.341,10.341,0,0,1-.261,1.09,2.094,2.094,0,0,1-1.134,1.515,2.8,2.8,0,0,1-2.241.171,6.12,6.12,0,0,1-1.032-.437A4.282,4.282,0,0,1,243.689,994.751Z" transform="translate(-243.66 -990.922)" fill="#fff"/>
      </g>
    </g>
  </g>
</svg>
