<svg xmlns="http://www.w3.org/2000/svg" xmlns:xlink="http://www.w3.org/1999/xlink" width="500" height="455" viewBox="0 0 500 455">
  <defs>
    <filter id="Rectángulo_39631" x="0" y="147" width="500" height="308" filterUnits="userSpaceOnUse">
      <feOffset dy="3" input="SourceAlpha"/>
      <feGaussianBlur stdDeviation="3" result="blur"/>
      <feFlood flood-opacity="0.161"/>
      <feComposite operator="in" in2="blur"/>
      <feComposite in="SourceGraphic"/>
    </filter>
  </defs>
  <g id="Grupo_108431" data-name="Grupo 108431" transform="translate(15865 6502)">
    <g transform="matrix(1, 0, 0, 1, -15865, -6502)" filter="url(#Rectángulo_39631)">
      <rect id="Rectángulo_39631-2" data-name="Rectángulo 39631" width="482" height="290" rx="22" transform="translate(9 153)" fill="#fff"/>
    </g>
    <path id="Rectángulo_39632" data-name="Rectángulo 39632" d="M76,0H354a0,0,0,0,1,0,0V153a76,76,0,0,1-76,76H0a0,0,0,0,1,0,0V76A76,76,0,0,1,76,0Z" transform="translate(-15781 -6502)" fill="#477fa2"/>
    <g id="Grupo_108046" data-name="Grupo 108046" transform="translate(-2.361 25.654)">
      <g id="Grupo_53961" data-name="Grupo 53961" transform="translate(-15657.049 -6494.503)">
        <path id="Trazado_45068" data-name="Trazado 45068" d="M988.124,1252.391c-4.738-7.051-12.484-22.415-22.83-21.984-4.123.172-6.347,2.545-10.658.464-8.3-4-14.556-15.3-19.752-22.472-11-15.176-20.983-31.114-30.734-47.114-8.235-13.512-25.613-36.892-12.683-52.216,15.649-18.541,33.762,6.539,41.966,18.688,11.78,17.444,22.118,36.034,32.568,54.293q5.534,9.666,10.839,19.455c3.793,7.008,6.153,11.835,3.033,19.338-1.539,3.7-.289,6.551,1.3,10.025a122.543,122.543,0,0,0,7.479,13.251q1.571,2.5,3.2,4.964c2.559,3.924-.987,6.774-4.058,2.877-1.694-2.147-4.673.877-3,3,2.548,3.233,7.962,8.653,12.236,4.376,4.573-4.573-.534-10.9-3.1-14.828a160.114,160.114,0,0,1-9.09-15.785c-2.316-4.617-.779-5.73.634-9.8,2.429-7.013-1.737-13.539-4.97-19.558-11.3-21.051-23.585-41.594-35.981-62.01-8.569-14.111-20.117-36.5-38.537-38.968-14.622-1.955-24.163,13.766-23.028,26.36.847,9.411,5.8,18.511,10.308,26.6,6.1,10.929,12.94,21.51,19.665,32.06,6.369,9.988,12.981,19.819,19.934,29.412,5.085,7.013,10.65,16.059,18.069,20.738,4.072,2.572,7.68,3.216,12.258,1.718,9.251-3.02,17.147,13.129,21.27,19.265C985.978,1256.792,989.656,1254.668,988.124,1252.391Z" transform="translate(-882.865 -1098.219)" fill="#fff"/>
      </g>
      <g id="Grupo_53962" data-name="Grupo 53962" transform="translate(-15638.737 -6465.908)">
        <path id="Trazado_45069" data-name="Trazado 45069" d="M897.684,1130.328c-.812-4.1,9.316-9,12.193-10.149,4.241-1.7,5.225,1.526,7.052,4.379q7.3,11.4,14.541,22.829c10.031,15.811,20.94,31.488,29.617,48.1,3.858,7.383-9.143,15.133-14.6,9.925a58.923,58.923,0,0,1-6.5-8.056c-5.951-8.143-11.406-16.659-16.836-25.153-8.734-13.673-18.673-27.571-25.635-42.274-.916-1.934-3.78-.25-2.867,1.675,9.343,19.735,22.892,38.492,34.972,56.6,4.592,6.883,9.359,15.718,16.052,20.859,7.954,6.11,22.965-5.226,18.654-14.483-4.026-8.644-9.8-16.715-14.824-24.785q-11.406-18.311-23.043-36.48c-2.626-4.122-7.4-16.157-12.98-17.038-6.126-.965-20.414,7.8-19,14.93C894.9,1133.31,898.1,1132.42,897.684,1130.328Z" transform="translate(-894.384 -1116.209)" fill="#fff"/>
      </g>
      <g id="Grupo_53963" data-name="Grupo 53963" transform="translate(-15620.215 -6456.675)">
        <path id="Trazado_45070" data-name="Trazado 45070" d="M907.367,1127.942a21.046,21.046,0,0,0,7.068-4.045c1.03-.989-.539-2.553-1.567-1.564a18.175,18.175,0,0,1-6.089,3.476c-1.31.525-.739,2.666.588,2.133Z" transform="translate(-906.038 -1122.018)" fill="#fff"/>
      </g>
      <g id="Grupo_53964" data-name="Grupo 53964" transform="translate(-15612.781 -6446.375)">
        <path id="Trazado_45071" data-name="Trazado 45071" d="M912.618,1132.767a9.18,9.18,0,0,1,3.27-2.066c1.337-.475.76-2.615-.588-2.133a11.787,11.787,0,0,0-4.249,2.635c-1.028.992.54,2.556,1.567,1.564Z" transform="translate(-910.715 -1128.498)" fill="#fff"/>
      </g>
      <g id="Grupo_53965" data-name="Grupo 53965" transform="translate(-15607.56 -6437.452)">
        <path id="Trazado_45072" data-name="Trazado 45072" d="M915.626,1138.561c1.235-.814,2.526-1.537,3.759-2.349,1.187-.784.079-2.7-1.117-1.914-1.234.814-2.523,1.537-3.759,2.349-1.187.782-.079,2.7,1.117,1.914Z" transform="translate(-914 -1134.112)" fill="#fff"/>
      </g>
      <g id="Grupo_53966" data-name="Grupo 53966" transform="translate(-15600.976 -6427.543)">
        <path id="Trazado_45073" data-name="Trazado 45073" d="M919.765,1145.7a30.1,30.1,0,0,0,4.454-3.464c1.019-1-.547-2.565-1.567-1.564a27.109,27.109,0,0,1-4,3.117c-1.183.787-.076,2.707,1.117,1.911Z" transform="translate(-918.142 -1140.346)" fill="#fff"/>
      </g>
      <g id="Grupo_53967" data-name="Grupo 53967" transform="translate(-15594.488 -6417.716)">
        <path id="Trazado_45074" data-name="Trazado 45074" d="M924.337,1151.522a11.943,11.943,0,0,1,3.36-2.891c1.179-.788.073-2.708-1.117-1.914a14.8,14.8,0,0,0-4.157,3.689c-.82,1.173,1.1,2.278,1.914,1.116Z" transform="translate(-922.223 -1146.528)" fill="#fff"/>
      </g>
      <g id="Grupo_53968" data-name="Grupo 53968" transform="translate(-15588.756 -6409.728)">
        <path id="Trazado_45075" data-name="Trazado 45075" d="M927.45,1156.949c1.59-1.068,3.116-2.224,4.7-3.29,1.179-.793.071-2.712-1.117-1.914-1.586,1.068-3.112,2.224-4.7,3.29-1.179.791-.071,2.711,1.116,1.914Z" transform="translate(-925.83 -1151.554)" fill="#fff"/>
      </g>
      <g id="Grupo_53969" data-name="Grupo 53969" transform="translate(-15582.664 -6398.446)">
        <path id="Trazado_45076" data-name="Trazado 45076" d="M931.036,1163.214A16.761,16.761,0,0,0,936,1160.75c1.183-.787.075-2.7-1.116-1.909a15.191,15.191,0,0,1-4.435,2.24,1.107,1.107,0,0,0,.586,2.133Z" transform="translate(-929.663 -1158.652)" fill="#fff"/>
      </g>
      <g id="Grupo_53970" data-name="Grupo 53970" transform="translate(-15576.592 -6389.422)">
        <path id="Trazado_45077" data-name="Trazado 45077" d="M935.384,1169.452a25.551,25.551,0,0,0,3.462-3.514c.82-1.171-1.1-2.278-1.914-1.116a23.207,23.207,0,0,1-3.115,3.066c-1.025,1,.542,2.561,1.567,1.564Z" transform="translate(-933.483 -1164.329)" fill="#fff"/>
      </g>
      <g id="Grupo_53971" data-name="Grupo 53971" transform="translate(-15634.396 -6447.791)">
        <path id="Trazado_45078" data-name="Trazado 45078" d="M898.79,1132.056a39.149,39.149,0,0,0,3.759-2.351c1.183-.785.076-2.7-1.117-1.909a40.762,40.762,0,0,1-3.758,2.349c-1.268.656-.148,2.567,1.116,1.911Z" transform="translate(-897.116 -1127.607)" fill="#fff"/>
      </g>
      <g id="Grupo_53972" data-name="Grupo 53972" transform="translate(-15628.233 -6436.478)">
        <path id="Trazado_45079" data-name="Trazado 45079" d="M902.055,1138.82c1.524-.134,2.567-1.168,3.6-2.2a1.108,1.108,0,0,0-1.567-1.566c-.513.515-1.252,1.486-2.038,1.556-1.41.124-1.421,2.338,0,2.213Z" transform="translate(-900.993 -1134.724)" fill="#fff"/>
      </g>
      <g id="Grupo_53973" data-name="Grupo 53973" transform="translate(-15619.84 -6424.749)">
        <path id="Trazado_45080" data-name="Trazado 45080" d="M908.186,1145.894a8.614,8.614,0,0,1,3.27-1.594c1.346-.448.771-2.586-.588-2.133a11.063,11.063,0,0,0-4.249,2.163c-1.046.976.521,2.537,1.567,1.564Z" transform="translate(-906.274 -1142.104)" fill="#fff"/>
      </g>
      <g id="Grupo_53974" data-name="Grupo 53974" transform="translate(-15611.368 -6410.15)">
        <path id="Trazado_45081" data-name="Trazado 45081" d="M913.28,1155.692a14.91,14.91,0,0,0,3.514-2.522c1.027-.994-.539-2.558-1.567-1.564a12.907,12.907,0,0,1-3.064,2.176c-1.27.655-.151,2.565,1.117,1.91Z" transform="translate(-911.603 -1151.288)" fill="#fff"/>
      </g>
      <g id="Grupo_53975" data-name="Grupo 53975" transform="translate(-15603.316 -6398.822)">
        <path id="Trazado_45082" data-name="Trazado 45082" d="M918.018,1163.353a8.853,8.853,0,0,0,4.42-3.328c.822-1.173-1.1-2.278-1.911-1.117a6.32,6.32,0,0,1-3.1,2.313c-1.337.472-.76,2.61.59,2.133Z" transform="translate(-916.67 -1158.415)" fill="#fff"/>
      </g>
      <g id="Grupo_53976" data-name="Grupo 53976" transform="translate(-15594.922 -6385.279)">
        <path id="Trazado_45083" data-name="Trazado 45083" d="M923.852,1171.2a9.194,9.194,0,0,1,3.271-2.065c1.335-.475.761-2.616-.588-2.133a11.765,11.765,0,0,0-4.247,2.634c-1.032.994.536,2.558,1.564,1.564Z" transform="translate(-921.951 -1166.936)" fill="#fff"/>
      </g>
      <g id="Grupo_53977" data-name="Grupo 53977" transform="translate(-15617.151 -6438.812)">
        <path id="Trazado_45084" data-name="Trazado 45084" d="M908.331,1136.36l40.727,60.464c1.52,2.259,5.2.135,3.665-2.141q-20.361-30.232-40.726-60.464c-1.52-2.257-5.2-.134-3.667,2.141Z" transform="translate(-907.965 -1133.256)" fill="#fff"/>
      </g>
      <g id="Grupo_53978" data-name="Grupo 53978" transform="translate(-15561.038 -6355.252)">
        <path id="Trazado_45085" data-name="Trazado 45085" d="M945.649,1194.089a63.374,63.374,0,0,0,6.445-5.43c1.526-1.507-.823-3.853-2.348-2.349a56.709,56.709,0,0,1-5.775,4.91c-1.685,1.273-.035,4.16,1.677,2.869Z" transform="translate(-943.268 -1185.827)" fill="#fff"/>
      </g>
      <g id="Grupo_53979" data-name="Grupo 53979" transform="translate(-15649.599 -6478.604)">
        <path id="Trazado_45086" data-name="Trazado 45086" d="M891.18,1108.221s-.116.267-.356.693a2.943,2.943,0,0,0-.2.72c-.056.23-.046.6-.1.888.03.361-.006.68.043,1.081.018.38.056.78.11,1.213.086.844.219,1.775.348,2.722a37.469,37.469,0,0,1,.413,5.473,13.192,13.192,0,0,1-.251,2.717,10.978,10.978,0,0,1-1.624-2.211,14.842,14.842,0,0,1-1.891-5.544,15.192,15.192,0,0,1-.113-1.637,10.568,10.568,0,0,1,.127-1.636,7.424,7.424,0,0,1,.382-1.537,6.549,6.549,0,0,1,.65-1.318,4.767,4.767,0,0,1,.866-.963,2.748,2.748,0,0,1,.842-.5C890.892,1108.262,891.18,1108.221,891.18,1108.221Z" transform="translate(-887.551 -1108.221)" fill="#fff"/>
      </g>
      <g id="Grupo_53980" data-name="Grupo 53980" transform="translate(-15645.19 -6457.459)">
        <path id="Trazado_45087" data-name="Trazado 45087" d="M890.955,1121.527a4.047,4.047,0,0,1,1.183.137,2.151,2.151,0,0,1,1.373.984,1.8,1.8,0,0,1,.191,1.51,5.33,5.33,0,0,1-.4,1.128,3.134,3.134,0,0,1-1.189-.008,2.4,2.4,0,0,1-1.562-.99,2.152,2.152,0,0,1-.107-1.685A4.013,4.013,0,0,1,890.955,1121.527Z" transform="translate(-890.325 -1121.525)" fill="#fff"/>
      </g>
      <g id="Grupo_53981" data-name="Grupo 53981" transform="translate(-15560.906 -6416.57)">
        <path id="Trazado_45088" data-name="Trazado 45088" d="M943.351,1147.249s.537.434,1.405,1.243a35.14,35.14,0,0,1,3.333,3.643c.661.782,1.3,1.678,1.973,2.64.645.971,1.351,1.992,1.979,3.106s1.272,2.273,1.831,3.5c.609,1.2,1.075,2.5,1.6,3.767.423,1.314.909,2.6,1.2,3.937a31.722,31.722,0,0,1,1.073,7.677,21.171,21.171,0,0,1-.184,3.376,14.721,14.721,0,0,1-.526,2.8,11.631,11.631,0,0,1-.674,2.078c-.474,1.116-.788,1.712-.788,1.712s-.049-.7-.056-1.866c.03-.574-.081-1.286-.127-2.076s-.181-1.675-.312-2.627c-.094-.952-.378-1.974-.542-3.048-.24-1.07-.531-2.187-.834-3.338-.328-1.153-.66-2.333-1.059-3.527-.358-1.2-.827-2.4-1.233-3.611-.467-1.2-.887-2.41-1.378-3.583-.461-1.183-.951-2.337-1.413-3.46-.928-2.255-1.857-4.349-2.64-6.169s-1.456-3.362-1.919-4.433C943.585,1147.9,943.351,1147.249,943.351,1147.249Z" transform="translate(-943.351 -1147.249)" fill="#fff"/>
      </g>
      <g id="Grupo_53982" data-name="Grupo 53982" transform="translate(-15569.057 -6427.273)">
        <path id="Trazado_45089" data-name="Trazado 45089" d="M938.387,1140.88a4.049,4.049,0,0,1,.463-.16,5.155,5.155,0,0,1,1.02-.191,1.927,1.927,0,0,1,1.152.207,3.293,3.293,0,0,1,1.027.785,2.725,2.725,0,0,1,.52,2.112,5.737,5.737,0,0,1-.245,1.012c-.091.273-.176.464-.176.464a4.21,4.21,0,0,1-.486.084,4.74,4.74,0,0,1-1.046.006,2.823,2.823,0,0,1-1.911-.941,1.614,1.614,0,0,1-.343-.779c-.029-.305-.1-.693-.134-1.074a5.384,5.384,0,0,1,.059-1.043A3.913,3.913,0,0,1,938.387,1140.88Z" transform="translate(-938.223 -1140.516)" fill="#fff"/>
      </g>
    </g>
    <text id="Tipo_de_fuente_y_características_de_esta_pozo_calzado_perforación_canal_río_represa_aljibe_profundidad_del_nivel_estático_y_total_si_fuera_pozo_o_perforación_diámetro_de_la_perforación_o_pozo_cercanía_a_pozos_negros_o_industrias_existencia_de_poz" data-name="Tipo de fuente y características de esta (pozo calzado, perforación, canal, río, represa, aljibe, profundidad del nivel estático y total si fuera pozo o perforación, diámetro de la perforación o pozo, cercanía a pozos negros o industrias, existencia de poz" transform="translate(-15808.5 -6204)" fill="#12263f" font-size="16" font-family="Roboto-Regular, Roboto"><tspan x="0" y="17">Tipo de fuente y características de esta (pozo calzado, </tspan><tspan x="0" y="39">perforación, canal, río, represa, aljibe, profundidad del </tspan><tspan x="0" y="61">nivel estático y total si fuera pozo o perforación, </tspan><tspan x="0" y="83">diámetro de la perforación o pozo, cercanía a pozos </tspan><tspan x="0" y="105">negros o industrias, existencia de pozos abandonados, </tspan><tspan x="0" y="127">etc.).</tspan></text>
  </g>
</svg>
