<svg xmlns="http://www.w3.org/2000/svg" xmlns:xlink="http://www.w3.org/1999/xlink" width="500" height="455" viewBox="0 0 500 455">
  <defs>
    <filter id="Rectángulo_39633" x="0" y="147" width="500" height="308" filterUnits="userSpaceOnUse">
      <feOffset dy="3" input="SourceAlpha"/>
      <feGaussianBlur stdDeviation="3" result="blur"/>
      <feFlood flood-opacity="0.161"/>
      <feComposite operator="in" in2="blur"/>
      <feComposite in="SourceGraphic"/>
    </filter>
  </defs>
  <g id="Grupo_108432" data-name="Grupo 108432" transform="translate(15852 5992)">
    <g transform="matrix(1, 0, 0, 1, -15852, -5992)" filter="url(#Rectángulo_39633)">
      <rect id="Rectángulo_39633-2" data-name="Rectángulo 39633" width="482" height="290" rx="22" transform="translate(9 153)" fill="#fff"/>
    </g>
    <path id="Rectángulo_39634" data-name="Rectángulo 39634" d="M76,0H354a0,0,0,0,1,0,0V153a76,76,0,0,1-76,76H0a0,0,0,0,1,0,0V76A76,76,0,0,1,76,0Z" transform="translate(-15768 -5992)" fill="#477fa2"/>
    <g id="Grupo_108047" data-name="Grupo 108047" transform="translate(184.639 146.327)">
      <g id="Grupo_53983" data-name="Grupo 53983" transform="translate(-15857.74 -6092.934)">
        <path id="Trazado_45031" data-name="Trazado 45031" d="M469.9,1189.2c-5.2,6.688-4.8,11.676-.255,18.7,4.921,7.6,9.206,16.147,17.81,20.114,6,2.762,12.376.348,17.968-2.128,7.513-3.325,15.129-6.424,22.729-9.545,17.216-7.072,34.489-14,51.657-21.191,9.071-3.8,21.736-7.076,29.274-13.706,7.589-6.675-16.033-18.634-19.459-20.6-7.04-4.056-13.586-6.971-21.878-6.969-7.483,0-17.945,4.514-20.1,12.363-1.006,3.659,2.643,10.34,7.162,8.647a22.371,22.371,0,0,0,7.233-4.85c5.866-5.265,11.612-4.692,18.894-2.669,1.057.293,14.894,7.361,14.125,8.216a14.209,14.209,0,0,1-3.572,2.347c-5.087,2.906-10.515,5.258-15.859,7.644-26.2,11.7-53.75,24.163-81.463,31.869-3.83,1.064-8.417-7.865-9.922-10.346-1.245-2.05-2.3-4.209-3.366-6.358q-1.186-2.448-2.162-4.99-2.389.983-.211,1.655c3.355,2.063,7.722,6.176,11.883,4,4.568-2.39-.176-9.286-2.146-11.436-5.181-5.64-12.87-5.38-18.339-.766-2.17,1.833.957,4.927,3.109,3.111,5.68-4.8,11.184-1.082,14.115,3.269,2.474,3.674-2.171.744-2.833.348-1.976-1.181-3.827-2.861-6.013-3.655-3.537-1.278-4.692,1.708-3.806,4.643,2.322,7.7,11.017,27.7,21.814,24.49,26.133-7.763,51.774-19.146,76.761-29.934,7.669-3.308,19.566-6.619,25.369-13.061,2.823-3.137-3.4-8.718-5.5-10.118-7.272-4.832-16.081-7.564-24.837-6.7a10.59,10.59,0,0,0-6.09,2.61c-1.578,1.36-3.113,2.77-4.662,4.161q-1.527-2.294-3.058-4.59a19.411,19.411,0,0,1,8.7-4.759c11.235-3.639,22.351,4.171,31.446,9.813a59.278,59.278,0,0,1,10.283,7.722c2.218,2.165,1.1,1.973-1.128,3.188-5.313,2.9-10.976,5.21-16.524,7.608-20.519,8.873-41.332,17.069-62.008,25.562-7.72,3.172-15.437,6.358-23.069,9.734-8.157,3.608-14.489,1.838-20.3-4.628-5.4-6-14.606-18.054-8.657-25.7C474.726,1190.1,471.638,1186.964,469.9,1189.2Z" transform="translate(-466.116 -1153.872)" fill="#fff"/>
      </g>
      <g id="Grupo_53984" data-name="Grupo 53984" transform="translate(-15833.403 -6069.464)">
        <path id="Trazado_45032" data-name="Trazado 45032" d="M480.9,1217.787c1.616,21.619,14.021,36.722,36.833,34.823a32.864,32.864,0,0,0,23.6-13.4c3-4.059,11.6-24.549,18.28-20.845,5.212,2.89,6.78,9.268,13.537,10.118,9.8,1.235,19.459-5.942,25.1-13.3,9.377-12.214,7.323-31.966,2.312-45.566-.973-2.64-5.224-1.5-4.242,1.17,4.677,12.687,6.013,28.32-.723,40.434-4.633,8.329-18.739,17.787-27.263,9.877-3.02-2.8-5.112-6.936-9.537-7.631-10.946-1.726-17.9,19.831-23.382,25.975-8.577,9.612-24.256,11.585-35.614,6.248-10.347-4.861-13.723-17.522-14.5-27.907-.212-2.81-4.609-2.829-4.4,0Z" transform="translate(-480.895 -1168.124)" fill="#fff"/>
      </g>
      <g id="Grupo_53985" data-name="Grupo 53985" transform="translate(-15847.538 -6028.747)">
        <path id="Trazado_45033" data-name="Trazado 45033" d="M472.411,1195.563c3.722,12.674,3.59,25.786,15.134,34.229,9.161,6.7,22.835,8.5,33.8,6.964,2.8-.394,1.6-4.629-1.169-4.242a47.687,47.687,0,0,1-28.546-5.364c-12.1-6.437-11.6-21.255-14.976-32.755-.8-2.715-5.041-1.559-4.241,1.168Z" transform="translate(-472.311 -1192.848)" fill="#fff"/>
      </g>
      <g id="Grupo_53986" data-name="Grupo 53986" transform="translate(-15803.943 -6020.287)">
        <path id="Trazado_45034" data-name="Trazado 45034" d="M502.692,1197.986a20.388,20.388,0,0,1,.214,3.666c-.033,1.064-.076,2.3-.12,3.631-.058,1.3-.191,2.656-.385,4.012-.11,1.377-.278,2.749-.506,4.035-.27,1.29-.456,2.487-.662,3.523a21.839,21.839,0,0,1-.975,3.531,18.743,18.743,0,0,1-1.037-3.532,15.12,15.12,0,0,1-.432-3.705c-.023-1.357.021-2.8.128-4.242.217-1.444.5-2.88.827-4.2a16.057,16.057,0,0,1,1.205-3.483A20.527,20.527,0,0,1,502.692,1197.986Z" transform="translate(-498.783 -1197.986)" fill="#fff"/>
      </g>
      <g id="Grupo_53987" data-name="Grupo 53987" transform="translate(-15792.379 -6020.774)">
        <path id="Trazado_45035" data-name="Trazado 45035" d="M508.863,1197.69a10.164,10.164,0,0,1,.692,2.426,16.849,16.849,0,0,1,.082,5.145,17.337,17.337,0,0,1-1.762,4.967,9.619,9.619,0,0,1-1.446,2.073,10.758,10.758,0,0,1-.527-2.472,16.041,16.041,0,0,1,.259-5.021,17.079,17.079,0,0,1,1.408-4.952A10.352,10.352,0,0,1,508.863,1197.69Z" transform="translate(-505.806 -1197.69)" fill="#fff"/>
      </g>
      <g id="Grupo_53988" data-name="Grupo 53988" transform="translate(-15741.293 -6043.172)">
        <path id="Trazado_45036" data-name="Trazado 45036" d="M539.439,1184.089a7.966,7.966,0,0,1,.738,2.042,11.93,11.93,0,0,1,.194,4.287,11.475,11.475,0,0,1-1.194,4.089,7.326,7.326,0,0,1-1.2,1.755,8.184,8.184,0,0,1-.791-2.053,11.542,11.542,0,0,1,1.008-8.366A7.836,7.836,0,0,1,539.439,1184.089Z" transform="translate(-536.827 -1184.089)" fill="#fff"/>
      </g>
      <g id="Grupo_53989" data-name="Grupo 53989" transform="translate(-15733.542 -6048.042)">
        <path id="Trazado_45037" data-name="Trazado 45037" d="M545.157,1181.132a27.217,27.217,0,0,1,.818,4.188c.081.626.168,1.306.224,2.022a18.432,18.432,0,0,1,.012,2.282c-.054,1.591-.184,3.294-.377,4.987a45.4,45.4,0,0,1-2.312,8.927,26.828,26.828,0,0,1-1.774,3.89,27.136,27.136,0,0,1-.206-4.262,62.861,62.861,0,0,1,.822-9.061c.191-1.6.446-3.2.754-4.7.135-.756.359-1.461.451-2.18.12-.706.268-1.377.405-1.994A27.132,27.132,0,0,1,545.157,1181.132Z" transform="translate(-541.534 -1181.132)" fill="#fff"/>
      </g>
    </g>
    <text id="Destino_consumo_humano_animal_riego_etc._." data-name="Destino (consumo humano, animal, riego, etc.)." transform="translate(-15771.135 -5692.28)" fill="#12263f" font-size="16" font-family="Roboto-Regular, Roboto"><tspan x="12.513" y="17">Destino (consumo humano, animal, riego, etc.).</tspan></text>
  </g>
</svg>
