<svg xmlns="http://www.w3.org/2000/svg" xmlns:xlink="http://www.w3.org/1999/xlink" width="500" height="455" viewBox="0 0 500 455">
  <defs>
    <filter id="Rectángulo_39635" x="0" y="147" width="500" height="308" filterUnits="userSpaceOnUse">
      <feOffset dy="3" input="SourceAlpha"/>
      <feGaussianBlur stdDeviation="3" result="blur"/>
      <feFlood flood-opacity="0.161"/>
      <feComposite operator="in" in2="blur"/>
      <feComposite in="SourceGraphic"/>
    </filter>
  </defs>
  <g id="Grupo_108433" data-name="Grupo 108433" transform="translate(15852 5489)">
    <g transform="matrix(1, 0, 0, 1, -15852, -5489)" filter="url(#Rectángulo_39635)">
      <rect id="Rectángulo_39635-2" data-name="Rectángulo 39635" width="482" height="290" rx="22" transform="translate(9 153)" fill="#fff"/>
    </g>
    <path id="Rectángulo_39636" data-name="Rectángulo 39636" d="M76,0H354a0,0,0,0,1,0,0V153a76,76,0,0,1-76,76H0a0,0,0,0,1,0,0V76A76,76,0,0,1,76,0Z" transform="translate(-15768 -5489)" fill="#477fa2"/>
    <g id="Grupo_53990" data-name="Grupo 53990" transform="translate(-15667.508 -5439.45)">
      <g id="Grupo_16922" data-name="Grupo 16922" transform="translate(0 0)">
        <path id="Trazado_45165" data-name="Trazado 45165" d="M852.777,1638.1c6.768-5.284,9.343-11.5,12.422-19.262,5.467-13.775,13.842-27.449,27.359-34.249,24.284-12.221,60.165-9.73,84.254,1.566,14.04,6.584,23.163,20.715,11.865,34.611-13.088,16.1-39.181,20.818-58.543,21.843-18.2.963-37.069-1.826-54.868-5.422-7.775-1.57-16.384-4.766-24.422-3.761-3.456.433-3.5,5.91,0,5.473,11.518-1.441,25.078,4.182,36.374,6,22.182,3.563,44.914,4.834,66.954-.09,24.34-5.438,65.193-31.852,34.812-57.452-21.587-18.188-59.152-18.512-85.076-12.473-13.5,3.144-24.18,9.651-32.154,20.935-8.325,11.782-11.358,29.448-22.845,38.412C846.126,1636.4,850.031,1640.247,852.777,1638.1Z" transform="translate(-847.952 -1571.375)" fill="#fff"/>
      </g>
      <g id="Grupo_16923" data-name="Grupo 16923" transform="translate(9.838 35.886)">
        <path id="Trazado_45166" data-name="Trazado 45166" d="M852.767,1619.408c1.691,17.77,12,41.078,29.589,48.769,15.091,6.6,35.229,5.5,51.2,4.6,13.927-.785,33.187-2.238,43.276-13.252,16.764-18.3,19.758-44.332,18.988-68-.117-3.52-5.588-3.532-5.475,0,.7,21.406-1.8,41.71-14.058,59.773-9.218,13.588-27.671,14.933-42.731,16.007-14.238,1.015-29.106.63-43.1-2.353-19.072-4.059-30.549-27.994-32.219-45.545-.33-3.485-5.807-3.518-5.471,0Z" transform="translate(-852.752 -1588.882)" fill="#fff"/>
      </g>
      <g id="Grupo_16924" data-name="Grupo 16924" transform="translate(28.339 78.531)">
        <path id="Trazado_45167" data-name="Trazado 45167" d="M861.787,1609.686s.322.4.822,1.119,1.132,1.816,1.943,2.974c.762,1.179,1.644,2.55,2.6,4.024.457.742.91,1.513,1.439,2.251.513.746,1,1.527,1.48,2.306.531.74,1.07,1.47,1.562,2.22a24.121,24.121,0,0,0,1.546,2.124c.525.662.978,1.375,1.47,1.982.523.57.994,1.148,1.437,1.7a10.888,10.888,0,0,0,1.273,1.431c.418.386.767.767,1.068,1.078.592.633.937,1.039.937,1.039s-.486-.068-1.349-.272c-.426-.113-.961-.24-1.562-.441a6.794,6.794,0,0,1-1.9-.861c-.666-.373-1.4-.789-2.144-1.275a24.708,24.708,0,0,1-2.1-1.781,14.246,14.246,0,0,1-2.023-2.125c-.631-.775-1.238-1.581-1.843-2.392a32.592,32.592,0,0,1-2.722-5.211,23.517,23.517,0,0,1-1.5-4.922,17.283,17.283,0,0,1-.424-3.573C861.763,1610.2,861.787,1609.686,861.787,1609.686Z" transform="translate(-861.777 -1609.686)" fill="#fff"/>
      </g>
      <g id="Grupo_16925" data-name="Grupo 16925" transform="translate(48.45 105.533)">
        <path id="Trazado_45168" data-name="Trazado 45168" d="M871.588,1623.134a5.3,5.3,0,0,1,.664-.107c.39-.074,1,.014,1.546-.084a12.67,12.67,0,0,1,1.748-.084,14.94,14.94,0,0,1,1.943.184,11.588,11.588,0,0,1,3.78,1.236,8.4,8.4,0,0,1,1.833,1.275,6.461,6.461,0,0,1-1.9,1.23,6.79,6.79,0,0,1-2.027.584,8.652,8.652,0,0,1-2.38-.016,7.9,7.9,0,0,1-2.337-.793,6.194,6.194,0,0,1-1.835-1.41,3.94,3.94,0,0,1-.822-1.384A6.106,6.106,0,0,1,871.588,1623.134Z" transform="translate(-871.588 -1622.859)" fill="#fff"/>
      </g>
      <g id="Grupo_16926" data-name="Grupo 16926" transform="translate(27.742 13.076)">
        <path id="Trazado_45169" data-name="Trazado 45169" d="M861.486,1609.27s.164-.978.521-2.667c.094-.418.2-.888.314-1.394.186-.5.385-1.033.6-1.609a19.078,19.078,0,0,1,1.747-3.782c.385-.658.752-1.375,1.2-2.064.5-.656,1.017-1.339,1.548-2.034a32.022,32.022,0,0,1,3.778-4.032,40.722,40.722,0,0,1,4.676-3.581,60.158,60.158,0,0,1,5.221-3.046c1.835-.822,3.661-1.681,5.51-2.351,1.822-.766,3.7-1.238,5.477-1.808a82.039,82.039,0,0,1,9.9-2.15,79.858,79.858,0,0,1,9.807-1s-.912.391-2.524,1-3.917,1.453-6.668,2.423c-1.371.49-2.856,1.012-4.426,1.574-1.554.568-3.194,1.172-4.887,1.793-1.671.654-3.395,1.345-5.114,2.075-1.749.678-3.431,1.542-5.139,2.345-1.656.88-3.376,1.673-4.9,2.693-1.6.931-3.062,1.964-4.491,2.981-.705.512-1.31,1.117-1.98,1.625a14.36,14.36,0,0,0-1.841,1.634c-.57.57-1.125,1.117-1.665,1.648-.521.547-.957,1.133-1.418,1.668a25.687,25.687,0,0,0-2.306,3.083q-.5.723-.933,1.345-.369.688-.674,1.257C861.995,1608.417,861.486,1609.27,861.486,1609.27Z" transform="translate(-861.486 -1577.754)" fill="#fff"/>
      </g>
      <g id="Grupo_16927" data-name="Grupo 16927" transform="translate(86.53 11.5)">
        <path id="Trazado_45170" data-name="Trazado 45170" d="M890.165,1579.168a11.93,11.93,0,0,1,2.749-1.248,20.04,20.04,0,0,1,12.084,0,11.756,11.756,0,0,1,2.743,1.253,11.762,11.762,0,0,1-2.743,1.253,20.036,20.036,0,0,1-12.084-.008A11.836,11.836,0,0,1,890.165,1579.168Z" transform="translate(-890.165 -1576.985)" fill="#fff"/>
      </g>
    </g>
    <text id="Información_acerca_del_establecimiento_y_nombre_del_propietario_o_encargado_con_datos_de_dirección_e-mail_y_o_teléfono_donde_se_ha_muestreado_e_información_adicional_acerca_de_problemas_que_detecta_el_personal_que_puede_atribuirse_al_agua." data-name="Información acerca del establecimiento y nombre del propietario o encargado (con datos de dirección, e-mail y/o teléfono) donde se ha muestreado e información adicional acerca de problemas que detecta el personal que puede atribuirse al agua." transform="translate(-15809 -5189)" fill="#12263f" font-size="16" font-family="Roboto-Regular, Roboto"><tspan x="0" y="17">Información acerca del establecimiento y nombre del </tspan><tspan x="0" y="39">propietario o encargado (con datos de dirección, e-mail y/o </tspan><tspan x="0" y="61">teléfono) donde se ha muestreado e información adicional </tspan><tspan x="0" y="83">acerca de problemas que detecta el personal que puede </tspan><tspan x="0" y="105">atribuirse al agua.</tspan></text>
  </g>
</svg>
