<svg xmlns="http://www.w3.org/2000/svg" xmlns:xlink="http://www.w3.org/1999/xlink" width="500" height="455" viewBox="0 0 500 455">
  <defs>
    <filter id="Rectángulo_39637" x="0" y="147" width="500" height="308" filterUnits="userSpaceOnUse">
      <feOffset dy="3" input="SourceAlpha"/>
      <feGaussianBlur stdDeviation="3" result="blur"/>
      <feFlood flood-opacity="0.161"/>
      <feComposite operator="in" in2="blur"/>
      <feComposite in="SourceGraphic"/>
    </filter>
  </defs>
  <g id="Grupo_108434" data-name="Grupo 108434" transform="translate(15846 5010)">
    <g transform="matrix(1, 0, 0, 1, -15846, -5010)" filter="url(#Rectángulo_39637)">
      <rect id="Rectángulo_39637-2" data-name="Rectángulo 39637" width="482" height="290" rx="22" transform="translate(9 153)" fill="#fff"/>
    </g>
    <path id="Rectángulo_39638" data-name="Rectángulo 39638" d="M76,0H354a0,0,0,0,1,0,0V153a76,76,0,0,1-76,76H0a0,0,0,0,1,0,0V76A76,76,0,0,1,76,0Z" transform="translate(-15762 -5010)" fill="#477fa2"/>
    <g id="Grupo_108050" data-name="Grupo 108050" transform="translate(-15924.727 -6275.291)">
      <path id="Trazado_45137" data-name="Trazado 45137" d="M223.371,1434.049c27.074-5.914,51.6-18.739,76.966-29.892,5.049-2.219,10.1-4.438,15.133-6.7,2.068-.93-2.24-1.093-.682-.13a8.3,8.3,0,0,0,1.808.814c2.07.708,4.6.155,6.684-.167,13.082-1.994,27.832-9.25,38.044-17.518a13.49,13.49,0,0,0,3.673-4.413,4.4,4.4,0,0,0,.5-1.844c.005-2.37.1.08-.062.158,7.781-3.856,15.726-7.387,23.644-10.946,16.644-7.484,33.387-14.742,50.111-22.049,3.817-1.669,7.746-2.776,10.087-6.41,2.289-3.557-.581-9.476-4.878-9.476-2.872,0-6.274,2.258-8.785,3.412q-9.321,4.282-18.643,8.574-29.737,13.68-59.47,27.369,1.585.417,3.168.833c-6.627-10.147-29.71,2.738-36.94,6.479-4.721,2.447-11.409,5.79-13.927,10.817-1.374,2.738,1.541-.026-1.93,1.6-3.221,1.51-6.462,2.978-9.7,4.456-17.1,7.8-34.253,15.471-51.4,23.155-10.574,4.737-16.835,10.137-25.65,18.006-2.233,2,1.057,5.261,3.276,3.278,4.206-3.759,10.184-10.781,14.416-12.676q9.906-4.43,19.809-8.872c18.1-8.115,36.408-15.911,54.235-24.606a2.268,2.268,0,0,0,1.149-2c-.5-7.052,38.618-23.491,42.663-17.3a2.38,2.38,0,0,0,3.17.831q39.055-17.977,78.115-35.943l5.242-2.409c1.8-.824,1.445,3.415-.023,4.09-.963.444-1.935.866-2.9,1.293-7.52,3.314-15.06,6.576-22.587,9.866-18.707,8.183-37.56,16.189-55.856,25.258a2.3,2.3,0,0,0-1.065,2.617c1.9,5.773-38.886,24.969-43.552,19.639a2.355,2.355,0,0,0-2.806-.361c-16.075,7.348-32.347,14.284-48.54,21.36q-11.512,5.034-23.031,10.052c-6.637,2.9-13.42,3.7-20.687,5.291C219.22,1430.216,220.459,1434.684,223.371,1434.049Z" transform="translate(0 0)" fill="#fff"/>
    </g>
    <text id="Nombre_de_quien_realizó_el_muestreo." data-name="Nombre de quien realizó el muestreo." transform="translate(-15726.154 -4703.806)" fill="#12263f" font-size="16" font-family="Roboto-Regular, Roboto"><tspan x="0" y="17">Nombre de quien realizó el muestreo.</tspan></text>
  </g>
</svg>
