<svg xmlns="http://www.w3.org/2000/svg" xmlns:xlink="http://www.w3.org/1999/xlink" width="500" height="455" viewBox="0 0 500 455">
  <defs>
    <filter id="Rectángulo_39639" x="0" y="147" width="500" height="308" filterUnits="userSpaceOnUse">
      <feOffset dy="3" input="SourceAlpha"/>
      <feGaussianBlur stdDeviation="3" result="blur"/>
      <feFlood flood-opacity="0.161"/>
      <feComposite operator="in" in2="blur"/>
      <feComposite in="SourceGraphic"/>
    </filter>
  </defs>
  <g id="Grupo_108435" data-name="Grupo 108435" transform="translate(15833 4501)">
    <g transform="matrix(1, 0, 0, 1, -15833, -4501)" filter="url(#Rectángulo_39639)">
      <rect id="Rectángulo_39639-2" data-name="Rectángulo 39639" width="482" height="290" rx="22" transform="translate(9 153)" fill="#fff"/>
    </g>
    <path id="Rectángulo_39640" data-name="Rectángulo 39640" d="M76,0H354a0,0,0,0,1,0,0V153a76,76,0,0,1-76,76H0a0,0,0,0,1,0,0V76A76,76,0,0,1,76,0Z" transform="translate(-15749 -4501)" fill="#477fa2"/>
    <text id="Tipo_de_análisis_a_efectuar_fisicoquímico_y_o_microbiológico_." data-name="Tipo de análisis a efectuar (fisicoquímico y/o microbiológico)." transform="translate(-15734 -4203)" fill="#12263f" font-size="16" font-family="Roboto-Regular, Roboto"><tspan x="0" y="17">Tipo de análisis a efectuar (fisicoquímico y/o </tspan><tspan x="0" y="41">microbiológico).</tspan></text>
    <g id="Grupo_108049" data-name="Grupo 108049" transform="translate(380.297 844.93)">
      <g id="Grupo_53992" data-name="Grupo 53992" transform="translate(-16014.93 -5270.467)">
        <path id="Trazado_45146" data-name="Trazado 45146" d="M492.934,1499.261c.017,14.2.266,28.4.362,42.594.079,11.961-1.01,24.078.645,35.957,3.739,26.788,26.728,29.805,49.478,30.257,17.508.346,38.675.089,51.317-13.951,8.273-9.187,7.251-21.989,7.273-33.423.041-19.975.077-39.945-.523-59.914-.087-2.945-4.667-2.956-4.58,0,.45,14.949.559,29.9.554,44.854-.007,13.438,2.7,30.049-3.894,42.276-8.946,16.591-34.192,15.694-50.147,15.579-10.091-.072-20.51-.737-30.112-4.041-12.681-4.366-15.354-20.428-15.678-31.993-.64-22.646-.091-45.528-.112-68.194-.005-2.954-4.585-2.954-4.583,0Z" transform="translate(-492.934 -1497.045)" fill="#fff"/>
      </g>
      <g id="Grupo_53993" data-name="Grupo 53993" transform="translate(-16015.216 -5292.755)">
        <path id="Trazado_45147" data-name="Trazado 45147" d="M578.115,1487.072a121.444,121.444,0,0,0-48.134-1.17c-10.7,1.792-23.941,5.214-32.4,12.529-4.894,4.233-6.945,10.56-1.883,15.6,1.883,1.88,11.258,4.033,9.283,7.668-1.545,2.847-5.161,4.927-4.525,8.51a2.287,2.287,0,0,0,1.6,1.6c3.336,1.069,7.4-.962,10.544-1.89,9.139-2.688,15.922-1.435,24.824.568,11.146,2.5,23.5.967,34.583-1.06,11.033-2.019,22.272-5.839,28.7-15.522,6.043-9.1-4.5-17.909-11.414-21.843-2.57-1.462-4.878,2.494-2.311,3.956,4.908,2.792,11.429,6.8,10.462,13.777-.9,6.477-10.105,10.28-15.278,12.2-9.51,3.531-19.987,4.678-30.056,4.978-8.535.257-15.74-3.115-23.889-3.6a48.792,48.792,0,0,0-14.4,1.465c-2.254.53-4.473,1.261-6.69,1.923-1.933.577-3.772,4.415-.684.571,2.024-2.518,6.364-7.961,2.69-11.064a20.42,20.42,0,0,0-5.623-3.108c-6.422-2.687-7.278-8.035-1.829-12.138,19.736-14.851,52.513-14.837,75.213-9.537,2.875.669,4.093-3.747,1.216-4.419Z" transform="translate(-492.767 -1484.053)" fill="#fff"/>
      </g>
      <g id="Grupo_53994" data-name="Grupo 53994" transform="translate(-16005.074 -5287.059)">
        <path id="Trazado_45148" data-name="Trazado 45148" d="M582.519,1498.092c8.553,5.671,6.652,10.582-1.991,14.222-7.5,3.158-15.91,4.5-23.934,5.465-6.484.777-13.566,1.463-20.038.233-11.429-2.17-18.035-5.384-29.1.314q1.083,1.41,2.172,2.817c2.317-1.812,10.52-8.8,3.676-11.28-3.323-1.206-13.23-1.173-9.482-8.359,1.638-3.137,6.9-4.513,9.928-5.5,17.1-5.6,40.852-7.162,58.04-1.175,2.187.763,3.119-2.7.952-3.456-18.819-6.556-44.525-4.51-63.04,2.245-4.6,1.676-12.414,6.283-10.81,12.5a6.421,6.421,0,0,0,4.2,4.691,37.4,37.4,0,0,0,5.549,1.491c5.074,1.051,1.036,4.293-1.544,6.307-1.676,1.31.458,3.7,2.173,2.816,12.451-6.414,22.726.726,35.4.719a120.813,120.813,0,0,0,28.409-3.693c6.379-1.562,14.3-3.852,18.284-9.5s-2.921-11.223-7.028-13.947c-1.933-1.281-3.726,1.823-1.81,3.1Z" transform="translate(-498.679 -1487.373)" fill="#fff"/>
      </g>
      <g id="Grupo_53995" data-name="Grupo 53995" transform="translate(-15949.554 -5327.074)">
        <path id="Trazado_45149" data-name="Trazado 45149" d="M535.367,1536.193c13.748-21.82,27.464-43.665,41.4-65.366,3.643-5.671.691,3.461-.88,5.95-1.671,2.642-3.316,5.3-4.963,7.959q-6.18,9.968-12.306,19.977-8.884,14.478-17.728,28.975c-1.542,2.527,2.42,4.827,3.955,2.311q11.19-18.335,22.433-36.633c2.088-3.4,24.207-33.476,13.808-35.2-5.709-.945-8.035,3.969-10.692,8.117q-7.837,12.255-15.6,24.56-11.72,18.508-23.393,37.043c-1.58,2.508,2.388,4.8,3.956,2.31Z" transform="translate(-531.046 -1464.045)" fill="#fff"/>
      </g>
      <g id="Grupo_53996" data-name="Grupo 53996" transform="translate(-15993.6 -5250.766)">
        <path id="Trazado_45150" data-name="Trazado 45150" d="M545.145,1510.441q-11.846,21.014-23.675,42.036c-2.129,3.781-24.416,35.089-12.735,37.422,6.9,1.379,9.211-4.283,11.959-9.407q6.87-12.806,13.736-25.612,11.5-21.448,23.009-42.9c1.4-2.6-2.557-4.912-3.955-2.31q-19.634,36.611-39.276,73.225c-.837,1.56-5.017.849-4.4-.267.449-.825.911-1.644,1.367-2.465q2.149-3.847,4.309-7.688,6.986-12.453,14-24.893,9.8-17.418,19.621-34.833c1.451-2.574-2.506-4.882-3.955-2.311Z" transform="translate(-505.368 -1508.531)" fill="#fff"/>
      </g>
      <g id="Grupo_53997" data-name="Grupo 53997" transform="translate(-15936.267 -5242.711)">
        <path id="Trazado_45151" data-name="Trazado 45151" d="M540.527,1517.879c3.06,0,6.189-.01,9.1-1.077,2.149-.787,1.221-4.254-.955-3.457a23.2,23.2,0,0,1-8.144.949,1.793,1.793,0,0,0,0,3.585Z" transform="translate(-538.793 -1513.227)" fill="#fff"/>
      </g>
      <g id="Grupo_53998" data-name="Grupo 53998" transform="translate(-15935.758 -5228.522)">
        <path id="Trazado_45152" data-name="Trazado 45152" d="M540.823,1526.672a23.275,23.275,0,0,0,8.083-1.587c2.134-.825,1.209-4.292-.952-3.458a20.329,20.329,0,0,1-7.131,1.458c-2.31.033-2.314,3.62,0,3.587Z" transform="translate(-539.089 -1521.499)" fill="#fff"/>
      </g>
      <g id="Grupo_53999" data-name="Grupo 53999" transform="translate(-15935.21 -5212.229)">
        <path id="Trazado_45153" data-name="Trazado 45153" d="M541.607,1532.013c-.444,0-.108-.027.038.031q.625.628,1.254,1.252l0-.014q-.412,1.014-.823,2.022c-.441.3-.389.147-.076.082.28-.056.563-.094.846-.137.743-.108,1.573-.2,2.357-.29,1.328-.153,2.679-.352,4.017-.375,2.309-.045,2.311-3.628,0-3.587-1.525.029-3.067.268-4.58.443-1.257.144-3.275.029-4.374.77a1.893,1.893,0,0,0-.822,2.026l0,.014c.089.645.715,1.034,1.25,1.249a2.668,2.668,0,0,0,.914.1c2.314.021,2.31-3.565,0-3.587Z" transform="translate(-539.409 -1530.998)" fill="#fff"/>
      </g>
      <g id="Grupo_54000" data-name="Grupo 54000" transform="translate(-15936.434 -5195.921)">
        <path id="Trazado_45154" data-name="Trazado 45154" d="M540.628,1541.507a2.729,2.729,0,0,0-1.41.59,1.8,1.8,0,0,0,.364,2.816c1.316.568,3.084.053,4.444-.128a18.749,18.749,0,0,0,5.083-1.017c2.113-.928.286-4.014-1.81-3.094.592-.259.033-.05-.113-.012-.3.076-.612.132-.919.189-.816.149-1.636.265-2.456.379-.71.1-1.424.18-2.137.259-.266.029-.532.055-.8.075-.57.048-.46-.166.518.254.12.94.242,1.876.362,2.816-.856.691-.885.451-.172.331,2.275-.389,1.305-3.844-.954-3.458Z" transform="translate(-538.695 -1540.504)" fill="#fff"/>
      </g>
      <g id="Grupo_54001" data-name="Grupo 54001" transform="translate(-16004.593 -5235.778)">
        <path id="Trazado_45155" data-name="Trazado 45155" d="M502.073,1517.269a21.885,21.885,0,0,1,.482,3.861c.029.57.057,1.192.057,1.839.05.64.089,1.31.1,2,.041,1.376.007,2.823-.091,4.27a46.676,46.676,0,0,1-.995,8.146,21.974,21.974,0,0,1-1.079,3.724,21.291,21.291,0,0,1-1.016-3.751,36.748,36.748,0,0,1-.557-8.293c.111-1.535.295-3.069.534-4.491.118-.71.255-1.389.4-2.029.18-.626.391-1.2.587-1.743A21.668,21.668,0,0,1,502.073,1517.269Z" transform="translate(-498.96 -1517.269)" fill="#fff"/>
      </g>
      <g id="Grupo_54002" data-name="Grupo 54002" transform="translate(-16003.92 -5206.362)">
        <path id="Trazado_45156" data-name="Trazado 45156" d="M501.285,1534.418s.094.235.208.626a4.061,4.061,0,0,0,.2.677c.11.235.235.48.328.714s.206.472.323.813c.1.314.208.64.285.976a14.806,14.806,0,0,1,.415,2.141,15.8,15.8,0,0,1,.148,2.179,14.967,14.967,0,0,1-.118,1.948,6.917,6.917,0,0,1-.115.822c-.031.24-.055.448-.075.623l-.076.654a2.955,2.955,0,0,1-.563-.3,4.433,4.433,0,0,1-1.18-1.194,7.524,7.524,0,0,1-1.05-1.925,11.032,11.032,0,0,1-.59-2.336,11.822,11.822,0,0,1-.021-2.41c.05-.395.123-.775.2-1.129a6.728,6.728,0,0,1,.338-1.073,5.389,5.389,0,0,1,.413-.878c.1-.259.321-.372.448-.521A5.256,5.256,0,0,1,501.285,1534.418Z" transform="translate(-499.352 -1534.418)" fill="#fff"/>
      </g>
      <g id="Grupo_54003" data-name="Grupo 54003" transform="translate(-15926.417 -5318.706)">
        <path id="Trazado_45157" data-name="Trazado 45157" d="M546.563,1478.3a5.567,5.567,0,0,1-.8-.622,4.184,4.184,0,0,1-1.227-2.743,4.357,4.357,0,0,1,.611-2.274,6.3,6.3,0,0,1,1.684-1.817,10.412,10.412,0,0,1,4.252-1.714,13.811,13.811,0,0,1,7.755.883,8.789,8.789,0,0,1,2.261,1.414,3.493,3.493,0,0,1,.679.787s-.388.021-.976.094-1.408.216-2.355.379c-1.882.333-4.319.647-6.553,1.038a20.926,20.926,0,0,0-3,.688,3.54,3.54,0,0,0-1.712,1,2.532,2.532,0,0,0-.42.926,8.052,8.052,0,0,0-.161.962C546.59,1477.909,546.563,1478.3,546.563,1478.3Z" transform="translate(-544.535 -1468.924)" fill="#fff"/>
      </g>
      <g id="Grupo_54004" data-name="Grupo 54004" transform="translate(-15911.201 -5308.379)">
        <path id="Trazado_45158" data-name="Trazado 45158" d="M553.405,1484.639s.515-.05,1.384-.05a9.694,9.694,0,0,0,1.527-.069c.576-.07,1.144-.06,1.842-.182s1.406-.132,2.158-.285c.746-.175,1.544-.213,2.321-.444a20.264,20.264,0,0,0,2.341-.638l1.149-.374,1.036-.5a2.962,2.962,0,0,0,.959-.533,10.037,10.037,0,0,1,.883-.575c.118-.113.739-.664.825-.784a7.079,7.079,0,0,0,.532-.609c.261-.429.379-.573.394-.825a1.716,1.716,0,0,0-.7-1.107,7.734,7.734,0,0,0-1.394-.978c-.489-.242-.935-.482-1.326-.638l-1.256-.535.345-.12a6.8,6.8,0,0,1,1-.271,7.985,7.985,0,0,1,1.635-.175,6.783,6.783,0,0,1,2.247.323,4.564,4.564,0,0,1,2.607,1.968,4.7,4.7,0,0,1,.182,4.127,7.387,7.387,0,0,1-.94,1.656,9.59,9.59,0,0,1-1.048,1.259,12.149,12.149,0,0,1-2.866,1.99l-1.546.677c-.52.163-1.048.268-1.563.393a13.545,13.545,0,0,1-3.039.373,16.634,16.634,0,0,1-2.793-.158,17.7,17.7,0,0,1-2.429-.535,11.926,11.926,0,0,1-1.99-.772,5.434,5.434,0,0,1-1.377-.777C553.8,1484.975,553.405,1484.639,553.405,1484.639Z" transform="translate(-553.405 -1474.944)" fill="#fff"/>
      </g>
      <g id="Grupo_54005" data-name="Grupo 54005" transform="translate(-15927.278 -5324.697)">
        <path id="Trazado_45159" data-name="Trazado 45159" d="M544.387,1470.143s-.034-.051-.1-.146a1.706,1.706,0,0,1-.231-.41,2.022,2.022,0,0,1,.094-.914,3.1,3.1,0,0,1,.453-.945,5.631,5.631,0,0,1,3.875-2.24,5.937,5.937,0,0,1,4.107.921,4.368,4.368,0,0,1,1.139,1.122,2.635,2.635,0,0,1,.305.583l-1.777.98a9.837,9.837,0,0,1-3.16,1.017,9.5,9.5,0,0,1-1.624.057,10.035,10.035,0,0,1-1.412-.178c-.228-.034-.406-.086-.6-.1s-.293-.1-.5-.067C544.613,1470,544.387,1470.143,544.387,1470.143Z" transform="translate(-544.032 -1465.43)" fill="#fff"/>
      </g>
      <g id="Grupo_54006" data-name="Grupo 54006" transform="translate(-15989.012 -5187.882)">
        <path id="Trazado_45160" data-name="Trazado 45160" d="M509.777,1548.778a1.794,1.794,0,0,0,0-3.587,1.794,1.794,0,0,0,0,3.587Z" transform="translate(-508.043 -1545.191)" fill="#fff"/>
      </g>
      <g id="Grupo_54007" data-name="Grupo 54007" transform="translate(-16000.827 -5190.128)">
        <path id="Trazado_45161" data-name="Trazado 45161" d="M514.7,1546.127c-10.3-.463-20,8.367-8,14.667,18.388,9.656,45.657,7.985,64.618,1.2,6.772-2.425,20.538-12.726,7.074-15.933-16.683-3.971-36.09-1.467-53.029-.582-2.3.12-2.311,3.707,0,3.586,10.774-.564,21.553-.948,32.342-.908,4.731.019,9.455.194,14.17.579a44.974,44.974,0,0,1,6.746,1.064c4.453,1.06-2.125,5.636-3.05,6.233-12.313,8-30.6,7.952-44.641,6.969a65.91,65.91,0,0,1-22.423-5.3c-8.6-3.9.545-8.242,6.192-7.985,2.314.1,2.3-3.482,0-3.586Z" transform="translate(-501.155 -1543.882)" fill="#fff"/>
      </g>
      <g id="Grupo_54008" data-name="Grupo 54008" transform="translate(-15930.146 -5186.784)">
        <path id="Trazado_45162" data-name="Trazado 45162" d="M542.709,1547.877a51.775,51.775,0,0,1,4.376,5.338c.914,1.218,2.99.029,2.065-1.206a56.271,56.271,0,0,0-4.751-5.82c-1.081-1.1-2.77.59-1.69,1.688Z" transform="translate(-542.362 -1545.831)" fill="#fff"/>
      </g>
      <g id="Grupo_54009" data-name="Grupo 54009" transform="translate(-15936.237 -5189.27)">
        <path id="Trazado_45163" data-name="Trazado 45163" d="M538.814,1545.534c.292,4.112,4.559,7.548,6.755,10.745.868,1.262,2.94.069,2.065-1.206-1.093-1.59-2.336-3.071-3.53-4.582-1.05-1.326-2.775-3.179-2.9-4.957-.106-1.53-2.5-1.54-2.388,0Z" transform="translate(-538.81 -1544.383)" fill="#fff"/>
      </g>
      <g id="Grupo_54010" data-name="Grupo 54010" transform="translate(-15942.774 -5188.35)">
        <path id="Trazado_45164" data-name="Trazado 45164" d="M535.3,1547.007c3.6,4.281,6.41,9.479,10.651,13.188,1.154,1.01,2.851-.673,1.688-1.688-4.24-3.71-7.045-8.9-10.651-13.187-.991-1.182-2.674.518-1.688,1.688Z" transform="translate(-534.998 -1544.919)" fill="#fff"/>
      </g>
    </g>
  </g>
</svg>
