<svg xmlns="http://www.w3.org/2000/svg" xmlns:xlink="http://www.w3.org/1999/xlink" width="500" height="455" viewBox="0 0 500 455">
  <defs>
    <filter id="Rectángulo_39641" x="0" y="147" width="500" height="308" filterUnits="userSpaceOnUse">
      <feOffset dy="3" input="SourceAlpha"/>
      <feGaussianBlur stdDeviation="3" result="blur"/>
      <feFlood flood-opacity="0.161"/>
      <feComposite operator="in" in2="blur"/>
      <feComposite in="SourceGraphic"/>
    </filter>
  </defs>
  <g id="Grupo_108436" data-name="Grupo 108436" transform="translate(15833 4022)">
    <g transform="matrix(1, 0, 0, 1, -15833, -4022)" filter="url(#Rectángulo_39641)">
      <rect id="Rectángulo_39641-2" data-name="Rectángulo 39641" width="482" height="290" rx="22" transform="translate(9 153)" fill="#fff"/>
    </g>
    <path id="Rectángulo_39642" data-name="Rectángulo 39642" d="M76,0H354a0,0,0,0,1,0,0V153a76,76,0,0,1-76,76H0a0,0,0,0,1,0,0V76A76,76,0,0,1,76,0Z" transform="translate(-15749 -4022)" fill="#477fa2"/>
    <g id="Grupo_108051" data-name="Grupo 108051" transform="translate(313.243 658.563)">
      <g id="Grupo_54017" data-name="Grupo 54017" transform="translate(-15906.943 -4608.806)">
        <path id="Trazado_45029" data-name="Trazado 45029" d="M856.713,1712.561c-5.351,13.076,41.124,30.067,48.3,33.111,13.126,5.571,26.661,10.557,40.6,13.672,5.611,1.252,17.956,4.353,21.97-1.9,9.6-14.956-38.025-31.352-45.812-34.385a253.094,253.094,0,0,0-43.592-13.068c-5.868-1.14-16.9-3.942-21.2,1.931-2.047,2.8,2.621,5.48,4.642,2.712,2.561-3.5,17.414.976,20.533,1.661a266.01,266.01,0,0,1,33.8,10.287,234.918,234.918,0,0,1,31.541,14.014c1.653.9,19.15,11.225,15.419,14.06C950,1764.479,858.2,1723.011,861.9,1713.99,863.208,1710.781,858.008,1709.4,856.713,1712.561Z" transform="translate(-856.285 -1708.314)" fill="#fff"/>
      </g>
      <g id="Grupo_54018" data-name="Grupo 54018" transform="translate(-15958.116 -4604.149)">
        <path id="Trazado_45030" data-name="Trazado 45030" d="M892.2,1743.757c-17.1,1.516-40.477,7.662-53.092,20.237q2.114.275,4.22.546-3.174-5.36-6.348-10.716a2.708,2.708,0,0,0-5.009,1.355c-.532,8.8-3.279,25.827,2.593,33.284,2.967,3.769,9.873,4.9,14.137,6.056,10.924,2.949,22.328,4.276,33.572,5.234a208.3,208.3,0,0,0,66.959-5.415c12.6-3.137,13.633-13.094,12.407-25.232a2.756,2.756,0,0,0-1.973-2.593c-11.667-2.877-23.474,3.712-35.585,5.1a228.448,228.448,0,0,1-57.805-.982c-7.087-1.011-14.35-2.469-20.957-5.307-15.172-6.515-2.917-20.809,6.646-26.355,6.342-3.674,13.631-5.466,20.752-6.843,2.029-.393,4.652.1,5.677-2.088q3.6-7.682,7.2-15.367l-4.912-2.072c-1.415,4.248-8.749,17.674-6.281,21.712,5.729,9.362,17.364,14.439,26.922,18.779,25.07,11.381,53.936,20.349,81.438,23.033a2.717,2.717,0,0,0,2.593-1.977c2.571-6.861,5.5-13.543,8.574-20.19,1.445-3.123-3.189-5.858-4.642-2.712-1.673,3.622-3.37,7.237-4.916,10.917-1.576,3.739-1.5,8.681-5.677,8.115-5.736-.777-11.415-2.029-17.056-3.3a365.013,365.013,0,0,1-42.919-12.651c-12.536-4.5-26.4-9.73-36.465-18.767-3.845-3.453-2.267-3.888-.36-9.615q1.987-5.958,3.97-11.912c.958-2.871-3.614-4.838-4.91-2.07q-3.1,6.611-6.195,13.223c-1.556,3.324-7.316,2.5-11.117,3.447a70.893,70.893,0,0,0-14.386,5.7c-10.686,5.329-22.558,18.2-13.958,30.3,5.432,7.644,18.844,9.362,27.188,10.817,16.81,2.925,34.16,3.261,51.161,2.394,13.009-.666,26.651-2.156,38.718-7.332,3.592-1.542,4.439,3.926,3.95-.942a48.777,48.777,0,0,1-.505,13.227c-1.46,8.448-19.113,8.782-25.708,9.788a207.3,207.3,0,0,1-79.968-3.243c-10.779-2.629-12.429-4.685-13.023-15.824a161.956,161.956,0,0,1,.242-18.332l-5.011,1.357q3.174,5.357,6.348,10.716a2.719,2.719,0,0,0,4.224.543c11.58-11.542,33.49-17.261,49.291-18.658,3.424-.3,3.453-5.683,0-5.379Z" transform="translate(-830.867 -1710.627)" fill="#fff"/>
      </g>
    </g>
    <text id="Reactivo_empleado_para_su_preservación_en_caso_de_ser_utilizado." data-name="Reactivo empleado para su preservación, en caso de ser utilizado." transform="translate(-15790 -3722)" fill="#12263f" font-size="16" font-family="Roboto-Regular, Roboto"><tspan x="0" y="17">Reactivo empleado para su preservación, en caso de ser </tspan><tspan x="0" y="41">utilizado.</tspan></text>
  </g>
</svg>
