<svg xmlns="http://www.w3.org/2000/svg" xmlns:xlink="http://www.w3.org/1999/xlink" width="500" height="455" viewBox="0 0 500 455">
  <defs>
    <filter id="Rectángulo_39643" x="0" y="147" width="500" height="308" filterUnits="userSpaceOnUse">
      <feOffset dy="3" input="SourceAlpha"/>
      <feGaussianBlur stdDeviation="3" result="blur"/>
      <feFlood flood-opacity="0.161"/>
      <feComposite operator="in" in2="blur"/>
      <feComposite in="SourceGraphic"/>
    </filter>
  </defs>
  <g id="Grupo_108437" data-name="Grupo 108437" transform="translate(15833 3512)">
    <g transform="matrix(1, 0, 0, 1, -15833, -3512)" filter="url(#Rectángulo_39643)">
      <rect id="Rectángulo_39643-2" data-name="Rectángulo 39643" width="482" height="290" rx="22" transform="translate(9 153)" fill="#fff"/>
    </g>
    <path id="Rectángulo_39644" data-name="Rectángulo 39644" d="M76,0H354a0,0,0,0,1,0,0V153a76,76,0,0,1-76,76H0a0,0,0,0,1,0,0V76A76,76,0,0,1,76,0Z" transform="translate(-15749 -3512)" fill="#477fa2"/>
    <g id="Grupo_108052" data-name="Grupo 108052" transform="translate(262.732 809.555)">
      <g id="Grupo_54020" data-name="Grupo 54020" transform="translate(-15933.83 -4244.191)">
        <path id="Trazado_45090" data-name="Trazado 45090" d="M96.329,1744.7q-.126,24.934-.256,49.869-.044,8.728-.09,17.454c-.006,1.507,2.577,3.483,3.432,4.445q5.267,5.91,10.526,11.823,4.655,5.225,9.306,10.454c.977,1.1,2.221,3.356,3.944,3.086l17.127-2.688q27.518-4.323,55.03-8.639l1.484-.234a1.582,1.582,0,0,0,1.145-1.5q1.392-12.322,2.79-24.643c.612-5.4-.12-9.594-1-15.022q-2.456-15.215-4.91-30.429c-.266-1.641-.163-4.3-1.03-5.783-1.225-2.09-4.87-3.85-6.727-5.266q-6.025-4.6-12.05-9.2c-1.128-.859-3.624-3.708-5.27-3.518l-18.544,2.124q-26.423,3.025-52.845,6.05c-.169.02-.341.041-.509.058-1.974.226-1.994,3.348,0,3.12q24.225-2.776,48.452-5.549l22.449-2.572c1.094-.125,1.064.213.405-.292q1.35,1.032,2.7,2.063l12.661,9.662,5.057,3.86c1.49,1.135,1.594,2.059,1.377.71q.671,4.154,1.34,8.313,2.47,15.29,4.936,30.583c1.025,6.35.5,10.058-.279,16.925q-.827,7.314-1.656,14.63-.221,1.937-.439,3.875c.082-.721,2-1.345.011-1.032l-51.877,8.143q-9.962,1.566-19.926,3.129c-1.629.255.589.344.579.334l-2.228-2.5q-4.654-5.227-9.307-10.457-4.948-5.554-9.895-11.113l-2.965-3.33c-1.178-1.324-.184.549-.183.066q.051-9.789.1-19.579.121-23.711.243-47.429A1.56,1.56,0,0,0,96.329,1744.7Z" transform="translate(-95.983 -1734.898)" fill="#fff"/>
      </g>
      <g id="Grupo_54021" data-name="Grupo 54021" transform="translate(-15933.22 -4235.172)">
        <path id="Trazado_45091" data-name="Trazado 45091" d="M97.043,1745.2l20.453,16.36c1.209.968,2.373.556,3.829.391q6.375-.72,12.748-1.436,29.162-3.287,58.326-6.572c1.975-.223,2-3.343,0-3.119q-27.437,3.091-54.869,6.183l-13.709,1.545-3.835.431c-1.614.183-.53.177-.286.374q-10.225-8.183-20.45-16.362c-1.554-1.242-3.775.949-2.206,2.206Z" transform="translate(-96.506 -1742.622)" fill="#fff"/>
      </g>
      <g id="Grupo_54022" data-name="Grupo 54022" transform="translate(-15912.438 -4217.229)">
        <path id="Trazado_45092" data-name="Trazado 45092" d="M114.319,1759.472l5.479,42.236c1.458,11.233-.948,23.473-1.683,34.752-.132,2.01,2.987,2,3.118,0,.718-11,3.191-23.137,1.771-34.085q-2.785-21.452-5.567-42.9c-.256-1.965-3.377-1.99-3.118,0Z" transform="translate(-114.304 -1757.989)" fill="#fff"/>
      </g>
      <g id="Grupo_54023" data-name="Grupo 54023" transform="translate(-15905.445 -4179.62)">
        <path id="Trazado_45093" data-name="Trazado 45093" d="M121.778,1804.656c24.842-3.05,49.569-7.545,74.293-11.428,1.982-.312,1.136-3.315-.829-3.008-24.447,3.84-48.9,8.3-73.464,11.316-1.969.243-1.993,3.362,0,3.12Z" transform="translate(-120.293 -1790.198)" fill="#fff"/>
      </g>
      <g id="Grupo_54024" data-name="Grupo 54024" transform="translate(-15897.213 -4222.826)">
        <path id="Trazado_45094" data-name="Trazado 45094" d="M127.359,1759.218q2.8,18.125,5.59,36.251a1.231,1.231,0,0,0,1.5.851l39.64-6.559a1.236,1.236,0,0,0,.851-1.5l-5.177-34.177c-.237-1.553-2.588-.891-2.354.648q2.589,17.089,5.179,34.18c.284-.5.569-1,.854-1.5q-19.822,3.281-39.64,6.559c.5.287,1,.57,1.5.855q-2.8-18.125-5.587-36.252c-.239-1.551-2.591-.89-2.354.649Z" transform="translate(-127.343 -1753.196)" fill="#fff"/>
      </g>
      <g id="Grupo_54025" data-name="Grupo 54025" transform="translate(-15908.045 -4225.585)">
        <path id="Trazado_45095" data-name="Trazado 45095" d="M183.118,1752.364q3.887,20.974,7.768,41.948c.285-.5.567-1,.854-1.5l-66.806,10.023,1.545,1.176q-2.981-22.359-5.96-44.72c-.2-1.535-2.648-1.555-2.44,0q2.981,22.362,5.959,44.72a1.255,1.255,0,0,0,1.545,1.177q33.4-5.013,66.806-10.022a1.234,1.234,0,0,0,.852-1.5q-3.887-20.976-7.768-41.949c-.287-1.545-2.639-.89-2.354.649Z" transform="translate(-118.066 -1750.833)" fill="#fff"/>
      </g>
      <g id="Grupo_54026" data-name="Grupo 54026" transform="translate(-15888.563 -4218.174)">
        <path id="Trazado_45096" data-name="Trazado 45096" d="M134.767,1761.748q1.725,12.6,3.453,25.2c.126.912,1.17,1.2,1.918,1.09l25.546-3.8c.9-.134,1.211-1.163,1.091-1.917q-1.92-12-3.839-23.994a1.537,1.537,0,0,0-1.5-1.146l-25.162,2.589c-1.979.2-2,3.324,0,3.119l25.094-2.583c-1.444.149-1.577-2.042-1.27-.12q.219,1.359.436,2.719.659,4.121,1.318,8.247.962,6,1.92,12,.545-.96,1.088-1.92-12.772,1.9-25.546,3.8l1.918,1.091q-1.727-12.6-3.454-25.2C137.5,1758.935,134.5,1759.783,134.767,1761.748Z" transform="translate(-134.75 -1757.18)" fill="#fff"/>
      </g>
      <g id="Grupo_54027" data-name="Grupo 54027" transform="translate(-15870.666 -4215.184)">
        <path id="Trazado_45097" data-name="Trazado 45097" d="M150.089,1760.9q1.382,11.221,2.761,22.44c.191,1.54,2.633,1.559,2.442,0q-1.382-11.22-2.763-22.44c-.189-1.542-2.632-1.56-2.44,0Z" transform="translate(-150.078 -1759.741)" fill="#fff"/>
      </g>
      <g id="Grupo_54028" data-name="Grupo 54028" transform="translate(-15879.604 -4215.23)">
        <path id="Trazado_45098" data-name="Trazado 45098" d="M142.439,1761.235q1.734,11.959,3.466,23.917c.227,1.553,2.577.89,2.354-.648q-1.732-11.961-3.466-23.918c-.225-1.553-2.576-.889-2.354.649Z" transform="translate(-142.424 -1759.701)" fill="#fff"/>
      </g>
      <g id="Grupo_54029" data-name="Grupo 54029" transform="translate(-15886.18 -4210.843)">
        <path id="Trazado_45099" data-name="Trazado 45099" d="M138.324,1769.742q12.266-1.958,24.535-3.913c1.552-.248.891-2.6-.648-2.353l-24.535,3.912c-1.549.248-.89,2.6.648,2.354Z" transform="translate(-136.792 -1763.459)" fill="#fff"/>
      </g>
      <g id="Grupo_54030" data-name="Grupo 54030" transform="translate(-15884.749 -4201.099)">
        <path id="Trazado_45100" data-name="Trazado 45100" d="M139.176,1777.365q11.567-1.554,23.131-3.107c1.535-.207,1.555-2.649,0-2.442q-11.567,1.556-23.131,3.107c-1.535.207-1.556,2.648,0,2.442Z" transform="translate(-138.017 -1771.803)" fill="#fff"/>
      </g>
      <g id="Grupo_54031" data-name="Grupo 54031" transform="translate(-15831.585 -4292.659)">
        <path id="Trazado_45101" data-name="Trazado 45101" d="M184.71,1811.57c8.7-1.054,13.421-10.792,16.372-17.988a117.885,117.885,0,0,0,8-31.327c1.625-14.131,2.221-28.377,5.239-42.317,1.324-6.106,3.212-12.514,7.154-17.476,3.015-3.8,7.252-6.757,12.2-6.873,5.25-.124,7.643,4.986,7.122,9.462-.181,1.561,2.261,1.544,2.442,0,1.3-11.207-11.025-14.892-18.948-8.608-10.695,8.479-12.883,23.032-14.552,35.8-1.834,14.029-1.959,28.442-5.158,42.257a114.491,114.491,0,0,1-6.305,19.473c-2.464,5.719-6.568,14.3-13.568,15.154-1.54.187-1.559,2.631,0,2.44Z" transform="translate(-183.548 -1693.39)" fill="#fff"/>
      </g>
      <g id="Grupo_54032" data-name="Grupo 54032" transform="translate(-15832.146 -4288.848)">
        <path id="Trazado_45102" data-name="Trazado 45102" d="M184.6,1814.68c12.634-2.34,16.344-11.4,21.083-22.1,3.844-8.679,5.152-17.569,6.332-26.973,1.659-13.246,2.694-26.582,4.954-39.747a59.791,59.791,0,0,1,5.844-18.295c3.534-6.622,11.9-13.714,15-2.739a1.222,1.222,0,0,0,2.354-.649c-2.818-9.945-11.211-9.511-16.892-1.755-7.94,10.836-9.21,24.825-10.8,37.762-1.721,14.054-2.527,28.376-5.615,42.22-1.2,5.382-3.866,10.29-6.022,15.334-3.371,7.883-8.188,12.975-16.9,14.587-1.545.287-.89,2.638.649,2.353Z" transform="translate(-183.068 -1696.654)" fill="#fff"/>
      </g>
      <g id="Grupo_54033" data-name="Grupo 54033" transform="translate(-15783.303 -4280.544)">
        <path id="Trazado_45103" data-name="Trazado 45103" d="M228.016,1716.775v-11.048q-.573.752-1.144,1.5c3.4-.6,6.859-.312,10.287-.287l-1.558-1.559c.27,3.808-.3,7.585-.346,11.392-.028,2.011,3.092,2.008,3.118,0,.05-3.807.615-7.584.347-11.392a1.589,1.589,0,0,0-1.561-1.56c-3.729-.026-7.422-.251-11.116.4a1.553,1.553,0,0,0-1.144,1.5v11.048a1.56,1.56,0,0,0,3.118,0Z" transform="translate(-224.898 -1703.765)" fill="#fff"/>
      </g>
      <g id="Grupo_54034" data-name="Grupo 54034" transform="translate(-15788.748 -4269.401)">
        <path id="Trazado_45104" data-name="Trazado 45104" d="M223.62,1745.9q-.039-8.6.02-17.211c.023-3.411.055-6.826.185-10.236.09-2.353.088-.828,2.435-1.287a40.715,40.715,0,0,1,9.864-.4,21,21,0,0,1,3.351.453c1.8.343.375-.294.365-.774.015.806.029,1.609.047,2.415q.095,4.927.191,9.857.166,8.593.333,17.18c.039,2.01,3.156,2.012,3.118,0q-.287-14.844-.576-29.69a1.618,1.618,0,0,0-1.144-1.5c-5.9-2.4-13.855-1.307-19.817.23a1.609,1.609,0,0,0-1.145,1.5c-1.1,9.654-.385,19.753-.344,29.459a1.56,1.56,0,0,0,3.119,0Z" transform="translate(-220.235 -1713.308)" fill="#fff"/>
      </g>
      <g id="Grupo_54035" data-name="Grupo 54035" transform="translate(-15793.119 -4241.395)">
        <path id="Trazado_45105" data-name="Trazado 45105" d="M221.883,1737.328c-3.288-.382-4.885,2.413-5.21,5.3-.27,2.383-.478,6.024,1.189,7.948,1.635,1.885,6.351.751,8.279.055,3.155-1.137,3.084-4.3,2.538-7.094a1.556,1.556,0,0,0-1.5-1.144,36.856,36.856,0,0,0-8.239.515c-1.952.481-1.124,3.488.828,3.008,2.3-.566,5.048-.388,7.411-.405l-1.5-1.144c.312,1.6.676,2.988-1.114,3.5-.68.195-4.251.89-4.537.416-.6-.988-.358-3.209-.334-4.347.032-1.571.215-3.723,2.2-3.491s1.972-2.888,0-3.119Z" transform="translate(-216.49 -1737.293)" fill="#fff"/>
      </g>
      <g id="Grupo_54036" data-name="Grupo 54036" transform="translate(-15773.142 -4241.646)">
        <path id="Trazado_45106" data-name="Trazado 45106" d="M241.206,1740.5a3.427,3.427,0,0,1,2.2-.248l-1.559-1.56v10.588l1.559-1.559-8.056.689q.779.779,1.559,1.559a19.565,19.565,0,0,1,.051-5.153c.111-.582-.43-.071.3-.168a12.408,12.408,0,0,1,2.1-.011c1.119.046,2.229.188,3.346.216l-1.345-2.345a3.329,3.329,0,0,1-.459.691c-1.19,1.624,1.518,3.177,2.691,1.572a3.213,3.213,0,0,0,.46-.69,1.577,1.577,0,0,0-1.347-2.346c-2.116-.051-6.846-1.274-8.251,1-1.22,1.98-.856,5.013-.673,7.229a1.575,1.575,0,0,0,1.559,1.56q4.03-.347,8.056-.69a1.589,1.589,0,0,0,1.561-1.559v-10.588a1.6,1.6,0,0,0-1.561-1.558,6.078,6.078,0,0,0-3.777.672c-1.777.941-.2,3.633,1.573,2.693Z" transform="translate(-233.6 -1737.079)" fill="#fff"/>
      </g>
      <g id="Grupo_54037" data-name="Grupo 54037" transform="translate(-15782.819 -4232.843)">
        <path id="Trazado_45107" data-name="Trazado 45107" d="M226.434,1747.681c3.056.645,6.3.082,9.39.056a1.561,1.561,0,0,0,0-3.12c-2.773.023-5.827.634-8.561.056-1.96-.413-2.8,2.592-.829,3.008Z" transform="translate(-225.311 -1744.617)" fill="#fff"/>
      </g>
      <g id="Grupo_54038" data-name="Grupo 54038" transform="translate(-15786.063 -4229.57)">
        <path id="Trazado_45108" data-name="Trazado 45108" d="M222.533,1748.929v12.891a1.585,1.585,0,0,0,1.144,1.5,22.251,22.251,0,0,0,14.409,0,1.608,1.608,0,0,0,1.144-1.5c.09-3.989.215-7.98.23-11.97a1.56,1.56,0,0,0-3.119,0c-.014,3.99-.139,7.981-.231,11.97.384-.5.765-1,1.147-1.5a19.488,19.488,0,0,1-12.751,0q.573.751,1.145,1.5v-12.891a1.56,1.56,0,0,0-3.119,0Z" transform="translate(-222.533 -1747.42)" fill="#fff"/>
      </g>
      <g id="Grupo_54039" data-name="Grupo 54039" transform="translate(-15787.008 -4214.709)">
        <path id="Trazado_45109" data-name="Trazado 45109" d="M226.893,1760.41c-2.217,1.464-4.437,4.233-4.471,6.914-.065,4.981-.834,9.929-.676,14.918.065,2,3.183,2.012,3.12,0a94.9,94.9,0,0,1,.4-9.777c.25-3.538-.194-7.122,3.2-9.363,1.671-1.1.11-3.8-1.573-2.693Z" transform="translate(-221.725 -1760.147)" fill="#fff"/>
      </g>
      <g id="Grupo_54040" data-name="Grupo 54040" transform="translate(-15776.23 -4214.134)">
        <path id="Trazado_45110" data-name="Trazado 45110" d="M231.474,1763.237c2.953,2.5,2.994,4.035,3.227,7.813s.558,7.544.459,11.339c-.051,2.013,3.069,2.006,3.12,0,.11-4.274-.286-8.524-.551-12.786-.086-1.4.377-3.789-.353-5.033-.79-1.35-2.514-2.54-3.7-3.538-1.527-1.29-3.743.9-2.207,2.2Z" transform="translate(-230.954 -1760.64)" fill="#fff"/>
      </g>
      <g id="Grupo_54041" data-name="Grupo 54041" transform="translate(-15796.054 -4200.392)">
        <path id="Trazado_45111" data-name="Trazado 45111" d="M223.147,1772.412c-3.3.177-10.657,1.134-8.9,6.225,1.8,5.209,11.642,5.106,15.9,5.4,4.685.322,16.22.95,19.26-3.973,3.09-5.006-5.336-6.894-8.5-7.362-1.965-.292-2.812,2.711-.827,3.007,2.173.321,9.709,2.074,3.878,4.048-3.406,1.152-7.169,1.238-10.731,1.262a58.571,58.571,0,0,1-11.52-1.183,11.63,11.63,0,0,1-3.668-1.4c-3.168-1.84,4.773-2.889,5.114-2.907,2-.109,2.01-3.228,0-3.118Z" transform="translate(-213.977 -1772.409)" fill="#fff"/>
      </g>
      <g id="Grupo_54042" data-name="Grupo 54042" transform="translate(-15796.822 -4196.654)">
        <path id="Trazado_45112" data-name="Trazado 45112" d="M213.488,1777.346c-.269,11.865-.41,24.153,1.124,35.939.995,7.639,14.972,6.08,20.462,5.978,3.953-.073,8.912-.267,12.241-2.67,2.582-1.865,2.38-6.413,2.595-9.214.771-10.029.429-20.22.063-30.263-.075-2-3.191-2.011-3.119,0q.382,10.42.276,20.854a90.323,90.323,0,0,1-.85,14.012c-.741,4.407-7.792,4.03-11.2,4.164a68.338,68.338,0,0,1-13.736-.878c-4.462-.738-3.8-3.021-4.095-7.169-.72-10.2-.869-20.529-.635-30.752.044-2.012-3.073-2.006-3.12,0Z" transform="translate(-213.319 -1775.61)" fill="#fff"/>
      </g>
      <g id="Grupo_54043" data-name="Grupo 54043" transform="translate(-15817.791 -4167.952)">
        <path id="Trazado_45113" data-name="Trazado 45113" d="M217.5,1803.183q-10.7,7.076-21.405,14.154c-1.01.668-1.067,2.614.372,2.85l45.032,7.353c4.129.676,10.015-5.63,13.123-7.8l19.92-13.869a1.574,1.574,0,0,0-.785-2.906l-20.947-2.762c-1.988-.262-1.964,2.858,0,3.119l20.947,2.761c-.264-.968-.524-1.936-.788-2.9q-8.875,6.178-17.748,12.358l-10.371,7.221q-1.373.958-2.749,1.913c.28-.193,1.556.076-.191-.209q-22.307-3.641-44.614-7.287.186,1.427.371,2.85l21.405-14.153c1.669-1.1.11-3.807-1.573-2.693Z" transform="translate(-195.361 -1800.191)" fill="#fff"/>
      </g>
      <g id="Grupo_54044" data-name="Grupo 54044" transform="translate(-15817.522 -4165.123)">
        <path id="Trazado_45114" data-name="Trazado 45114" d="M195.893,1818.438a39.624,39.624,0,0,0-.286,6.4,1.558,1.558,0,0,0,1.147,1.5c11.118,1.862,22.313,3.294,33.492,4.734,4.354.559,12.249,3.446,16.149.655q10.836-7.75,21.675-15.5,3.128-2.236,6.263-4.478c1.826-1.306.91-5.717.948-7.63.039-2.012-3.079-2.007-3.12,0q-.046,2.5-.1,5.008c-.037,1.887,1.529-.667-.072.478q-3.71,2.654-7.422,5.308-9.877,7.058-19.751,14.12c-1.651,1.182-.119.73-2.807.4q-5.885-.722-11.768-1.478-8.889-1.142-17.766-2.373-4.023-.561-8.037-1.163c-4.443-.662-6.291.256-5.542-5.154.271-1.966-2.732-2.813-3.008-.829Z" transform="translate(-195.591 -1802.614)" fill="#fff"/>
      </g>
      <g id="Grupo_54045" data-name="Grupo 54045" transform="translate(-15771.783 -4143.745)">
        <path id="Trazado_45115" data-name="Trazado 45115" d="M234.806,1822.872a22.306,22.306,0,0,1,.176,5.11,1.56,1.56,0,0,0,3.119,0,25.844,25.844,0,0,0-.287-5.939c-.438-1.963-3.442-1.13-3.008.829Z" transform="translate(-234.763 -1820.922)" fill="#fff"/>
      </g>
      <g id="Grupo_54046" data-name="Grupo 54046" transform="translate(-15794.857 -4182.968)">
        <path id="Trazado_45116" data-name="Trazado 45116" d="M227.253,1787.337c-3.941.348-9.224.912-11.911,4.156a1.247,1.247,0,0,0,.248,1.916c4.922,3.464,11.29,2.8,17,2.6,3.9-.133,12.712.788,15.517-2.769,4.2-5.333-11-5.363-13.258-5.386a1.221,1.221,0,0,0,0,2.44c1.98.02,3.956.148,5.927.323,3.722.329,7.4,1,1.526,2.285-3.685.808-7.5.59-11.236.718-4.841.164-10.09.6-14.245-2.32q.124.958.248,1.916c2.2-2.656,6.972-3.156,10.185-3.439,1.554-.138,1.567-2.581,0-2.443Z" transform="translate(-215.002 -1787.331)" fill="#fff"/>
      </g>
      <g id="Grupo_54047" data-name="Grupo 54047" transform="translate(-15783.31 -4191.034)">
        <path id="Trazado_45117" data-name="Trazado 45117" d="M226.144,1781.625c-1.189,7.383-1.094,15.433-1.252,22.938a1.234,1.234,0,0,0,1.22,1.22,37.743,37.743,0,0,0,6.215-.172,1.252,1.252,0,0,0,1.22-1.22c.012-7.6.139-15.195-.174-22.788a1.221,1.221,0,0,0-2.44,0v.519a1.221,1.221,0,0,0,2.44,0v-.519h-2.44c.313,7.593.188,15.19.174,22.788.408-.406.813-.814,1.22-1.221a37.319,37.319,0,0,1-6.215.173q.61.609,1.221,1.22c.149-7.26.014-15.149,1.164-22.29.248-1.538-2.1-2.2-2.354-.648Z" transform="translate(-224.892 -1780.424)" fill="#fff"/>
      </g>
      <g id="Grupo_54048" data-name="Grupo 54048" transform="translate(-15791.465 -4171.728)">
        <path id="Trazado_45118" data-name="Trazado 45118" d="M218.826,1796.957a13.665,13.665,0,0,1,.718,1.419,17.89,17.89,0,0,1,.99,2.91c.267,1.038.467,2.025.648,2.8.069.162.1.375.165.519s.113.319.183.42c.146.252.23.395.23.395a2.138,2.138,0,0,1-.487.029,2.538,2.538,0,0,1-1.213-.481,4.312,4.312,0,0,1-1.19-1.3,6.311,6.311,0,0,1-.741-1.757,6.809,6.809,0,0,1,0-3.442A3.967,3.967,0,0,1,218.826,1796.957Z" transform="translate(-217.907 -1796.957)" fill="#fff"/>
      </g>
      <g id="Grupo_54049" data-name="Grupo 54049" transform="translate(-15785.207 -4162.658)">
        <path id="Trazado_45119" data-name="Trazado 45119" d="M223.278,1805.321a2.94,2.94,0,0,1,.748-.391,1.761,1.761,0,0,1,.3-.085,1.7,1.7,0,0,0,.255-.078.543.543,0,0,1,.375-.014c.279.053.5.338.712.675a4.775,4.775,0,0,1,.369.757,2.129,2.129,0,0,1-.539.662,1.387,1.387,0,0,1-1.26.286,1.781,1.781,0,0,1-.627-.395.9.9,0,0,1-.286-.573A2.924,2.924,0,0,1,223.278,1805.321Z" transform="translate(-223.267 -1804.725)" fill="#fff"/>
      </g>
      <g id="Grupo_54050" data-name="Grupo 54050" transform="translate(-15786.363 -4263.762)">
        <path id="Trazado_45120" data-name="Trazado 45120" d="M223.444,1721.454c2.6-.263,5.2-.517,7.8-.7q2.058-.138,4.119-.153c.572-.006,1.143.022,1.714.053.759.042,1.22.509,1.067-.1a1.221,1.221,0,0,0,2.353-.649c-.531-2.125-4.2-1.751-5.771-1.74-3.769.028-7.54.466-11.287.844-1.549.158-1.564,2.6,0,2.441Z" transform="translate(-222.276 -1718.137)" fill="#fff"/>
      </g>
      <g id="Grupo_54051" data-name="Grupo 54051" transform="translate(-15782.984 -4257.521)">
        <path id="Trazado_45121" data-name="Trazado 45121" d="M226.411,1723.482a4.918,4.918,0,0,1,.71,1.24,7.284,7.284,0,0,1,0,5.459,4.949,4.949,0,0,1-.713,1.24,4.884,4.884,0,0,1-.712-1.24,6.983,6.983,0,0,1-.529-2.73,7.09,7.09,0,0,1,.53-2.729A4.981,4.981,0,0,1,226.411,1723.482Z" transform="translate(-225.17 -1723.482)" fill="#fff"/>
      </g>
      <g id="Grupo_54052" data-name="Grupo 54052" transform="translate(-15782.301 -4245.093)">
        <path id="Trazado_45122" data-name="Trazado 45122" d="M227,1734.126a3.147,3.147,0,0,1,.717.7,2.612,2.612,0,0,1,.529,1.6,3.015,3.015,0,0,1-.216.914,1.9,1.9,0,0,1-.517.734,2.267,2.267,0,0,1-.858.538,5.148,5.148,0,0,1-.538-.837,2.773,2.773,0,0,1-.356-1.432,2.629,2.629,0,0,1,.534-1.511A3.138,3.138,0,0,1,227,1734.126Z" transform="translate(-225.756 -1734.126)" fill="#fff"/>
      </g>
      <g id="Grupo_54053" data-name="Grupo 54053" transform="translate(-15926.241 -4181.567)">
        <path id="Trazado_45123" data-name="Trazado 45123" d="M103.359,1788.531s.1.292.232.8.308,1.224.487,2.08c.381,1.7.787,3.926,1.282,6.08.263,1.071.528,2.135.841,3.11a26.153,26.153,0,0,0,.982,2.632,17.03,17.03,0,0,0,.94,1.837c.266.44.415.719.415.719s-.277-.112-.76-.363a4.4,4.4,0,0,1-.813-.535,5.7,5.7,0,0,1-.955-.844,10.266,10.266,0,0,1-1.845-2.6,13,13,0,0,1-.7-1.643,16.2,16.2,0,0,1-.522-1.754,18.409,18.409,0,0,1-.283-6.593A12.975,12.975,0,0,1,103.359,1788.531Z" transform="translate(-102.482 -1788.531)" fill="#fff"/>
      </g>
      <g id="Grupo_54054" data-name="Grupo 54054" transform="translate(-15917.176 -4160.615)">
        <path id="Trazado_45124" data-name="Trazado 45124" d="M110.343,1806.581a2.916,2.916,0,0,1,.906-.1,1.814,1.814,0,0,1,1.269.517,2.163,2.163,0,0,1,.462,1.458,2.229,2.229,0,0,1-.221.886,4.1,4.1,0,0,1-.919-.026,1.487,1.487,0,0,1-1.071-.552,2.069,2.069,0,0,1-.369-.578,2.009,2.009,0,0,1-.147-.69A2.97,2.97,0,0,1,110.343,1806.581Z" transform="translate(-110.247 -1806.475)" fill="#fff"/>
      </g>
      <g id="Grupo_54055" data-name="Grupo 54055" transform="translate(-15811.488 -4273.058)">
        <path id="Trazado_45125" data-name="Trazado 45125" d="M207.718,1710.176s-.158.6-.48,1.615a15.432,15.432,0,0,0-.482,1.83c-.17.694-.343,1.465-.49,2.348-.176.864-.316,1.809-.461,2.814-.173.991-.249,2.067-.417,3.157-.258,2.222-.537,4.592-.814,6.962-.172,1.061-.283,2.352-.424,3.5-.117,1.177-.325,2.326-.476,3.446s-.348,2.19-.527,3.213c-.081.473-.2,1.082-.241,1.409-.068.5-.106.935-.138,1.357a22.72,22.72,0,0,1-.565,4.416,4.853,4.853,0,0,1-.485,1.182c-.14.252-.215.383-.215.383s.018-.152.051-.438a7.007,7.007,0,0,0,.02-1.2c-.058-1.04-.357-2.454-.631-4.292-.065-.479-.127-.977-.165-1.451a3.024,3.024,0,0,1-.019-.451l.007-.374c.006-.251.011-.506.016-.766.02-1.034.034-2.127.107-3.253s.088-2.292.2-3.469c.113-1.208.16-2.317.333-3.637.18-1.191.358-2.383.535-3.558s.441-2.335.676-3.457a33.111,33.111,0,0,1,.865-3.209c.159-.5.315-1,.468-1.471.191-.464.378-.912.555-1.343a15.794,15.794,0,0,1,1.12-2.3,9.536,9.536,0,0,1,1.035-1.641C207.324,1710.649,207.718,1710.176,207.718,1710.176Z" transform="translate(-200.759 -1710.176)" fill="#fff"/>
      </g>
      <g id="Grupo_54056" data-name="Grupo 54056" transform="translate(-15812.482 -4229.559)">
        <path id="Trazado_45126" data-name="Trazado 45126" d="M201.991,1747.43a3.172,3.172,0,0,1,.271.319,4.546,4.546,0,0,1,.492.8,3.966,3.966,0,0,1,.347,2.247,4.022,4.022,0,0,1-1.066,2.085,3.98,3.98,0,0,1-.722.574,2.578,2.578,0,0,1-.356.19,3.263,3.263,0,0,1-.257-.343,5.275,5.275,0,0,1-.46-.827,3.737,3.737,0,0,1-.274-2.177,3.923,3.923,0,0,1,.977-2.036,4.575,4.575,0,0,1,.7-.613A2.937,2.937,0,0,1,201.991,1747.43Z" transform="translate(-199.908 -1747.43)" fill="#fff"/>
      </g>
      <g id="Grupo_54057" data-name="Grupo 54057" transform="translate(-15927.943 -4236.197)">
        <path id="Trazado_45127" data-name="Trazado 45127" d="M102.452,1747.578c1.777-1.437,3.4-3.047,5.179-4.487.815-.661-.343-1.805-1.149-1.149-1.775,1.437-3.4,3.047-5.179,4.487-.815.661.343,1.805,1.149,1.149Z" transform="translate(-101.025 -1741.745)" fill="#fff"/>
      </g>
      <g id="Grupo_54058" data-name="Grupo 54058" transform="translate(-15925.119 -4236.261)">
        <path id="Trazado_45128" data-name="Trazado 45128" d="M104.936,1750.875a19.517,19.517,0,0,1,7.3-7.649c.88-.563.065-1.971-.821-1.4-3.181,2.036-6.247,4.771-7.888,8.233-.447.942.956,1.768,1.406.82Z" transform="translate(-103.444 -1741.69)" fill="#fff"/>
      </g>
      <g id="Grupo_54059" data-name="Grupo 54059" transform="translate(-15922.694 -4236.546)">
        <path id="Trazado_45129" data-name="Trazado 45129" d="M106.713,1752.588c3.971-2.648,6.531-6.774,10.175-9.793.808-.668-.348-1.813-1.15-1.149-3.53,2.924-6,6.976-9.846,9.54-.87.578-.055,1.989.821,1.4Z" transform="translate(-105.521 -1741.445)" fill="#fff"/>
      </g>
      <g id="Grupo_54060" data-name="Grupo 54060" transform="translate(-15918.951 -4237.635)">
        <path id="Trazado_45130" data-name="Trazado 45130" d="M110.265,1756.943c3.613-5.6,8.464-10.187,12.99-15.028.717-.763-.431-1.917-1.149-1.149-4.624,4.944-9.556,9.634-13.247,15.356-.571.884.84,1.7,1.406.821Z" transform="translate(-108.726 -1740.513)" fill="#fff"/>
      </g>
      <g id="Grupo_54061" data-name="Grupo 54061" transform="translate(-15810.557 -4154.013)">
        <path id="Trazado_45131" data-name="Trazado 45131" d="M201.622,1813.1a15.048,15.048,0,0,0,3.316,4.847c.736.749,1.886-.4,1.149-1.15a13.108,13.108,0,0,1-2.9-4.129c-.395-.955-1.969-.538-1.567.432Z" transform="translate(-201.557 -1812.129)" fill="#fff"/>
      </g>
      <g id="Grupo_54062" data-name="Grupo 54062" transform="translate(-15807.398 -4155.806)">
        <path id="Trazado_45132" data-name="Trazado 45132" d="M204.358,1811.825a31.068,31.068,0,0,0,5.306,7.76c.732.753,1.881-.4,1.149-1.149a29.843,29.843,0,0,1-5.052-7.431c-.473-.937-1.875-.112-1.4.82Z" transform="translate(-204.262 -1810.593)" fill="#fff"/>
      </g>
      <g id="Grupo_54063" data-name="Grupo 54063" transform="translate(-15803.608 -4158.202)">
        <path id="Trazado_45133" data-name="Trazado 45133" d="M207.53,1809.557c.912,4.126,4.331,6.872,6.64,10.209.592.857,2,.043,1.4-.821-2.209-3.2-5.6-5.879-6.477-9.819-.225-1.024-1.794-.59-1.566.431Z" transform="translate(-207.508 -1808.541)" fill="#fff"/>
      </g>
      <g id="Grupo_54064" data-name="Grupo 54064" transform="translate(-15748.725 -4164.754)">
        <path id="Trazado_45134" data-name="Trazado 45134" d="M254.543,1803.939a23.328,23.328,0,0,0,1.806,4.338c.469.939,1.872.115,1.406-.821a21.249,21.249,0,0,1-1.645-3.948.813.813,0,0,0-1.567.431Z" transform="translate(-254.511 -1802.93)" fill="#fff"/>
      </g>
      <g id="Grupo_54065" data-name="Grupo 54065" transform="translate(-15753.925 -4165.092)">
        <path id="Trazado_45135" data-name="Trazado 45135" d="M250.191,1803.838a77.94,77.94,0,0,0,4.271,6.722c.659.816,1.8-.342,1.149-1.149a74.262,74.262,0,0,1-4.016-6.4c-.57-.875-1.977-.062-1.4.822Z" transform="translate(-250.057 -1802.641)" fill="#fff"/>
      </g>
      <g id="Grupo_54066" data-name="Grupo 54066" transform="translate(-15761.755 -4299.298)">
        <path id="Trazado_45136" data-name="Trazado 45136" d="M246.421,1817.845c.546.391-.076-2.1-.152-3.1-.209-2.7-.272-5.417-.337-8.125-.19-8.038-.147-16.082-.091-24.12.138-19.827.564-39.652,1.039-59.474q.271-11.341.58-22.683c.053-1.934-.822-8.95,1.06-9.72,5.167-2.116,3.225,8.834,3.2,11.292q-.151,12.759-.306,25.522c-.367,30.6-.941,61.206-.96,91.808a1.222,1.222,0,0,0,2.443,0c.02-36.477.73-72.96,1.168-109.433q.1-8.5.2-17c.046-4.426-4.8-7.007-8.406-3.4-1.513,1.513-.717,6.546-.765,8.364q-.289,10.5-.548,21c-.543,21.981-1.019,43.966-1.157,65.956-.053,8.482-.082,16.974.207,25.454.078,2.216-.589,8.215,1.6,9.771,1.286.914,2.5-1.2,1.232-2.107Z" transform="translate(-243.352 -1687.704)" fill="#fff"/>
      </g>
    </g>
    <text id="Cualquier_otra_observación_que_se_considere_de_importancia" data-name="Cualquier otra observación que se considere de importancia" transform="translate(-15790 -3212)" fill="#12263f" font-size="16" font-family="Roboto-Regular, Roboto"><tspan x="0" y="17">Cualquier otra observación que se considere de </tspan><tspan x="0" y="41">importancia</tspan></text>
  </g>
</svg>
