<svg xmlns="http://www.w3.org/2000/svg" xmlns:xlink="http://www.w3.org/1999/xlink" width="820" height="291.869" viewBox="0 0 820 291.869">
  <defs>
    <clipPath id="clip-path">
      <rect id="Rectángulo_5174" data-name="Rectángulo 5174" width="505" height="257.737" fill="none"/>
    </clipPath>
    <clipPath id="clip-path-2">
      <rect id="Rectángulo_5215" data-name="Rectángulo 5215" width="38" height="52" transform="translate(-0.089 -0.47)" fill="none"/>
    </clipPath>
    <clipPath id="clip-path-3">
      <rect id="Rectángulo_5441" data-name="Rectángulo 5441" width="440.648" height="192.156" fill="none"/>
    </clipPath>
  </defs>
  <g id="Grupo_78913" data-name="Grupo 78913" transform="translate(-390 -1149.431)">
    <g id="Grupo_78491" data-name="Grupo 78491" transform="translate(0 -36.569)">
      <g id="Grupo_78307" data-name="Grupo 78307" transform="translate(549 1220.132)">
        <g id="Grupo_78306" data-name="Grupo 78306" clip-path="url(#clip-path)">
          <path id="Trazado_100625" data-name="Trazado 100625" d="M252.5,0C113.049,0,0,113.047,0,252.5H505C505,113.047,391.951,0,252.5,0" fill="#f6d4b9"/>
          <path id="Trazado_100626" data-name="Trazado 100626" d="M339.876,34.46l-142.591,208.4h252.5A252.214,252.214,0,0,0,339.876,34.46" transform="translate(55.215 9.644)" fill="#d3c8c8"/>
          <path id="Trazado_100627" data-name="Trazado 100627" d="M0,242.856H252.5L109.909,34.46A252.217,252.217,0,0,0,0,242.856" transform="translate(0 9.644)" fill="#d8e1ca"/>
          <path id="Trazado_100628" data-name="Trazado 100628" d="M248.48,125.864A126.708,126.708,0,0,0,121.772,252.572H375.188A126.708,126.708,0,0,0,248.48,125.864" transform="translate(4.478 0.157)" fill="#fff"/>
        </g>
      </g>
      <circle id="Elipse_4053" data-name="Elipse 4053" cx="41.5" cy="41.5" r="41.5" transform="translate(970 1314)" fill="#d3c8c8"/>
      <circle id="Elipse_4058" data-name="Elipse 4058" cx="41.5" cy="41.5" r="41.5" transform="translate(548 1314)" fill="#d8e1ca"/>
      <circle id="Elipse_4060" data-name="Elipse 4060" cx="42.5" cy="42.5" r="42.5" transform="translate(758 1186)" fill="#f6d4b9"/>
      <circle id="Elipse_4056" data-name="Elipse 4056" cx="35" cy="35" r="35" transform="translate(976 1320)" fill="#fff"/>
      <circle id="Elipse_4057" data-name="Elipse 4057" cx="35" cy="35" r="35" transform="translate(554 1320)" fill="#fff"/>
      <circle id="Elipse_4059" data-name="Elipse 4059" cx="36" cy="36" r="36" transform="translate(764 1192)" fill="#fff"/>
      <path id="Trazado_100629" data-name="Trazado 100629" d="M-6994.052-10228.624h281.4" transform="translate(7922.648 11701)" fill="none" stroke="#707070" stroke-width="1"/>
      <path id="Trazado_100630" data-name="Trazado 100630" d="M-6994.053-10228.624h285.2" transform="translate(7384.052 11701)" fill="none" stroke="#707070" stroke-width="1"/>
      <g id="Layer_1_19_" transform="translate(746.389 1166.098)">
        <path id="Trazado_156271" data-name="Trazado 156271" d="M68.821,48.468,82.953,41.51l7.533,5.38,8.393,11.047-4.735,6.1-14.419-.717-9.685-8.9Z" transform="translate(-30.047)" fill="#c68659" fill-rule="evenodd"/>
        <path id="Trazado_156272" data-name="Trazado 156272" d="M205.174,138.453,198,122.241l-4.735,6.1,6.17,16.858Z" transform="translate(-129.168 -64.303)" fill="#a35f3f" fill-rule="evenodd"/>
        <path id="Trazado_156273" data-name="Trazado 156273" d="M118.824,161.681l.729-13,14.419.717,6.169,16.859Z" transform="translate(-69.875 -85.364)" fill="#b46d49" fill-rule="evenodd"/>
        <path id="Trazado_156274" data-name="Trazado 156274" d="M74.813,104.967l1,17.934,7.952,3.96.729-13Z" transform="translate(-34.82 -50.544)" fill="#783923" fill-rule="evenodd"/>
        <path id="Trazado_156275" data-name="Trazado 156275" d="M43.435,93.353l2.009-10.4L48.6,75.706,49.82,81.66l1,17.935-7.174-.646Z" transform="translate(-9.827 -27.238)" fill="#a35f3f" fill-rule="evenodd"/>
        <path id="Trazado_156276" data-name="Trazado 156276" d="M31.1,195.452l2.726-5.525,7.174.646,7.952,3.96-9.458,1.995Z" transform="translate(0 -118.217)" fill="#924e38" fill-rule="evenodd"/>
        <path id="Trazado_156277" data-name="Trazado 156277" d="M31.342,216.643l-.242-3.165,8.393,1.076,9.457-2,1.1,3.764-11.059,2.216Z" transform="translate(-0.002 -136.243)" fill="#783923" fill-rule="evenodd"/>
        <path id="Trazado_156278" data-name="Trazado 156278" d="M140.141,217.138l-20.22-.813-1.1-3.764Z" transform="translate(-69.875 -136.244)" fill="#924e38" fill-rule="evenodd"/>
        <path id="Trazado_156279" data-name="Trazado 156279" d="M199.3,42.107l1.714,12.65q-.486.838-.894,1.72l-2.349-3.092Z" transform="translate(-132.753 -0.476)" fill="#457e3b" fill-rule="evenodd"/>
        <path id="Trazado_156280" data-name="Trazado 156280" d="M209.31,77.27a18,18,0,0,1,8.762-9.059,26.486,26.486,0,0,0-5.45,14.965l-1.64-3.706Z" transform="translate(-141.948 -21.268)" fill="#61ab52" fill-rule="evenodd"/>
      </g>
      <g id="zorro" transform="translate(566.238 1328.964)">
        <path id="Trazado_156281" data-name="Trazado 156281" d="M313.377,3.152a1.5,1.5,0,0,1,2.048,1.456,55.575,55.575,0,0,1-3.375,16.21l-11.318-7.942A34.8,34.8,0,0,1,313.377,3.152Z" transform="translate(-273.405 0)" fill="#d26437"/>
        <path id="Trazado_156282" data-name="Trazado 156282" d="M342.252,37.723c2.941-4.79,7.378-9.364,8.782-10.18.569-.331,1.069.479.942,1.545a99.207,99.207,0,0,1-2.666,13.586Z" transform="translate(-311.152 -22.199)" fill="#b44632"/>
        <path id="Trazado_156283" data-name="Trazado 156283" d="M51.6,3.152a1.5,1.5,0,0,0-2.048,1.456,55.574,55.574,0,0,0,3.375,16.21l11.318-7.942A34.8,34.8,0,0,0,51.6,3.152Z" transform="translate(-45.046)" fill="#d26437"/>
        <path id="Trazado_156284" data-name="Trazado 156284" d="M72.259,37.723c-2.941-4.79-7.378-9.364-8.782-10.18-.569-.331-1.069.479-.942,1.545A99.2,99.2,0,0,0,65.2,42.675Z" transform="translate(-56.835 -22.199)" fill="#b44632"/>
        <g id="Grupo_78327" data-name="Grupo 78327" transform="translate(0 33.262)">
          <ellipse id="Elipse_4061" data-name="Elipse 4061" cx="4.502" cy="3.001" rx="4.502" ry="3.001" transform="translate(18.76 9.756)" fill="#ebc9a0"/>
          <path id="Trazado_156285" data-name="Trazado 156285" d="M18.01,347.536a121.8,121.8,0,0,0-13.955-6.269l.835-2.505a10.84,10.84,0,0,0-4.89.52l2.251-3.752H18.01Z" transform="translate(-0.001 -335.53)" fill="#ebc9a0"/>
          <path id="Trazado_156286" data-name="Trazado 156286" d="M313.806,347.536a121.8,121.8,0,0,1,13.955-6.269l-.835-2.505a10.84,10.84,0,0,1,4.89.52l-2.251-3.752H313.806Z" transform="translate(-285.291 -335.53)" fill="#ebc9a0"/>
        </g>
        <path id="Trazado_156287" data-name="Trazado 156287" d="M23.262,96.047c10.938,0,20.329,10.96,23.228,25.344l.034.169s-5.534-5.722-11.537-2.673c-2.226,1.13-3.283,3.614-3.283,6.328,0,4.5-3.607,6.99-7.881,5.26a1.486,1.486,0,0,0-1.122,0c-4.274,1.73-7.881-.76-7.881-5.26,0-2.714-1.057-5.2-3.283-6.328C5.534,115.839,0,121.56,0,121.56l.034-.169C2.934,107.006,12.324,96.047,23.262,96.047Z" transform="translate(0 -84.546)" fill="#eb874b"/>
        <path id="Trazado_156288" data-name="Trazado 156288" d="M143.013,259.7h0a2.634,2.634,0,0,1-2.626-2.626v-1.5a2.634,2.634,0,0,1,2.626-2.626h0a2.634,2.634,0,0,1,2.626,2.626v1.5A2.634,2.634,0,0,1,143.013,259.7Z" transform="translate(-127.63 -227.191)" fill="#4b3f4e"/>
        <path id="Trazado_156289" data-name="Trazado 156289" d="M165.536,252.95a2.576,2.576,0,0,0-.375.038V256.7a1.5,1.5,0,0,0,3,0v-1.126A2.634,2.634,0,0,0,165.536,252.95Z" transform="translate(-150.153 -227.191)" fill="#5d5360"/>
        <circle id="Elipse_4062" data-name="Elipse 4062" cx="1.126" cy="1.126" r="1.126" transform="translate(14.257 26.509)" fill="#fff"/>
        <path id="Trazado_156290" data-name="Trazado 156290" d="M316.433,259.7h0a2.634,2.634,0,0,1-2.626-2.626v-1.5a2.634,2.634,0,0,1,2.626-2.626h0a2.634,2.634,0,0,1,2.626,2.626v1.5A2.634,2.634,0,0,1,316.433,259.7Z" transform="translate(-285.292 -227.191)" fill="#4b3f4e"/>
        <path id="Trazado_156291" data-name="Trazado 156291" d="M338.956,252.95a2.577,2.577,0,0,0-.375.038V256.7a1.5,1.5,0,0,0,3,0v-1.126A2.634,2.634,0,0,0,338.956,252.95Z" transform="translate(-307.815 -227.191)" fill="#5d5360"/>
        <circle id="Elipse_4063" data-name="Elipse 4063" cx="1.126" cy="1.126" r="1.126" transform="translate(30.016 26.509)" fill="#fff"/>
        <path id="Trazado_156292" data-name="Trazado 156292" d="M247.742,445.867l.2-.076a1.5,1.5,0,0,1,1.11,0l.2.076v-2.982h-1.5v2.982Z" transform="translate(-225.23 -399.867)" fill="#d26437"/>
        <path id="Trazado_156293" data-name="Trazado 156293" d="M225.059,393.337a2.809,2.809,0,0,1,3.045,2.489c0,1.326-1.28,2.024-2.2,2.54a1.691,1.691,0,0,1-1.683,0c-.924-.516-2.2-1.214-2.2-2.54A2.809,2.809,0,0,1,225.059,393.337Z" transform="translate(-201.84 -354.822)" fill="#5d5360"/>
        <path id="Trazado_156294" data-name="Trazado 156294" d="M225.8,399.964c-.924-.664-2.2-1.561-2.2-3.265a3.29,3.29,0,0,1,.388-1.533,2.562,2.562,0,0,0-1.975,2.323c0,1.326,1.28,2.023,2.2,2.54a1.691,1.691,0,0,0,1.683,0l.013-.007C225.877,400,225.839,399.989,225.8,399.964Z" transform="translate(-201.839 -356.485)" fill="#4b3f4e"/>
        <path id="Trazado_156295" data-name="Trazado 156295" d="M23.262,96.047,21.8,96.12C11.5,97.044,2.8,107.651.034,121.391L0,121.56s4.466-4.613,9.726-3.342C10.384,99.529,22.041,96.047,23.262,96.047Z" transform="translate(0 -84.546)" fill="#d26437"/>
      </g>
      <g id="Grupo_78333" data-name="Grupo 78333" transform="translate(994.089 1329.804)">
        <g id="Grupo_78332" data-name="Grupo 78332" transform="translate(0 -0.334)" clip-path="url(#clip-path-2)">
          <path id="Trazado_156296" data-name="Trazado 156296" d="M32,80v25.215a14.709,14.709,0,0,0,29.417,0V80Z" transform="translate(-27.798 -69.178)" fill="#d3a17d"/>
          <path id="Trazado_156297" data-name="Trazado 156297" d="M128.744,96v14.709a4.215,4.215,0,0,0-4.2,4.2v2.1H121.6a3.16,3.16,0,0,0,2.942,2.1v14.709a14.618,14.618,0,0,0,14.709-14.709V96Z" transform="translate(-105.631 -83.077)" fill="#bf8862"/>
          <rect id="Rectángulo_5213" data-name="Rectángulo 5213" width="5" height="2" transform="translate(24.911 22.53)" fill="#25374b"/>
          <rect id="Rectángulo_5214" data-name="Rectángulo 5214" width="5" height="2" transform="translate(7.911 22.53)" fill="#25374b"/>
          <path id="Trazado_156298" data-name="Trazado 156298" d="M196.881,232a1.681,1.681,0,1,1-1.681,1.681A1.681,1.681,0,0,1,196.881,232" transform="translate(-169.565 -201.217)" fill="#af7751"/>
          <path id="Trazado_156299" data-name="Trazado 156299" d="M68.881,232a1.681,1.681,0,1,1-1.681,1.681A1.681,1.681,0,0,1,68.881,232" transform="translate(-58.375 -201.217)" fill="#af7751"/>
          <path id="Trazado_156300" data-name="Trazado 156300" d="M29.417,2.311c-.21-.21-.42,0-.63,0H8.4V0A6.021,6.021,0,0,0,3.782,2.1H0A13.528,13.528,0,0,0,1.471,7.985a10.547,10.547,0,0,0-.42,2.521V31.519H4.2V14.709H22.273a8.392,8.392,0,0,0,7.144,4.2v-4.2h4.2v16.81h3.152V10.506A8.208,8.208,0,0,0,29.417,2.311Z" transform="translate(0 0.316)" fill="#25374b"/>
          <path id="Trazado_156301" data-name="Trazado 156301" d="M4.2,208a4.2,4.2,0,1,0,0,8.4Z" transform="translate(0 -180.368)" fill="#bf8862"/>
          <path id="Trazado_156302" data-name="Trazado 156302" d="M256,208a4.2,4.2,0,1,1,0,8.4Z" transform="translate(-222.38 -180.368)" fill="#bf8862"/>
          <path id="Trazado_156303" data-name="Trazado 156303" d="M192,199.03v1.261a3.047,3.047,0,0,1,4.2,0V199.03a3.817,3.817,0,0,0-4.2,0" transform="translate(-166.785 -172.029)" fill="#25374b"/>
          <path id="Trazado_156304" data-name="Trazado 156304" d="M64,199.03v1.261a3.047,3.047,0,0,1,4.2,0V199.03a3.817,3.817,0,0,0-4.2,0" transform="translate(-55.595 -172.029)" fill="#25374b"/>
          <path id="Trazado_156305" data-name="Trazado 156305" d="M72,280a5.2,5.2,0,0,0,5.253,5.253,5.485,5.485,0,0,0,4.2-2.1,5.485,5.485,0,0,0,4.2,2.1A5.2,5.2,0,0,0,90.911,280Z" transform="translate(-62.544 -242.913)" fill="#25374b"/>
        </g>
      </g>
      <g id="Grupo_78490" data-name="Grupo 78490" transform="translate(592.352 1279.906)">
        <path id="Trazado_156920" data-name="Trazado 156920" d="M126.493,158.954h-5.062v3.428h5.941V164.5h-8.578V151.7h8.56v2.136h-5.923v3.05h5.062Z" fill="#a8bc8b"/>
        <g id="Grupo_78487" data-name="Grupo 78487">
          <g id="Grupo_78486" data-name="Grupo 78486" clip-path="url(#clip-path-3)">
            <path id="Trazado_156921" data-name="Trazado 156921" d="M133.9,161.872a.817.817,0,0,0-.461-.733,5.252,5.252,0,0,0-1.481-.48q-3.393-.711-3.393-2.883a2.615,2.615,0,0,1,1.05-2.114,4.247,4.247,0,0,1,2.747-.848,4.563,4.563,0,0,1,2.9.853,2.685,2.685,0,0,1,1.085,2.215H133.8a1.234,1.234,0,0,0-.351-.9,1.5,1.5,0,0,0-1.1-.355,1.521,1.521,0,0,0-.993.29.916.916,0,0,0-.352.738.783.783,0,0,0,.4.681,4.094,4.094,0,0,0,1.349.449,11.064,11.064,0,0,1,1.6.426,2.628,2.628,0,0,1,2.013,2.558,2.478,2.478,0,0,1-1.116,2.1,4.813,4.813,0,0,1-2.883.8,5.048,5.048,0,0,1-2.123-.426,3.55,3.55,0,0,1-1.454-1.17,2.71,2.71,0,0,1-.528-1.6h2.408a1.331,1.331,0,0,0,.5,1.038,1.99,1.99,0,0,0,1.248.36,1.849,1.849,0,0,0,1.1-.276.865.865,0,0,0,.374-.726" fill="#a8bc8b"/>
            <path id="Trazado_156922" data-name="Trazado 156922" d="M141.047,152.652v2.338h1.626v1.863h-1.626V161.6a1.131,1.131,0,0,0,.2.756,1.018,1.018,0,0,0,.774.229,4.052,4.052,0,0,0,.747-.062v1.925a5.241,5.241,0,0,1-1.538.228,2.425,2.425,0,0,1-2.725-2.7v-5.124h-1.389V154.99h1.389v-2.338Z" fill="#a8bc8b"/>
            <path id="Trazado_156923" data-name="Trazado 156923" d="M149.784,163.533a3.185,3.185,0,0,1-2.6,1.143,3,3,0,0,1-2.333-.879,3.756,3.756,0,0,1-.822-2.576V154.99h2.54v6.15q0,1.488,1.354,1.488a1.833,1.833,0,0,0,1.775-.9v-6.74h2.549v9.51h-2.391Z" fill="#a8bc8b"/>
            <path id="Trazado_156924" data-name="Trazado 156924" d="M153.765,159.675a5.722,5.722,0,0,1,1-3.542,3.236,3.236,0,0,1,2.729-1.319,2.912,2.912,0,0,1,2.293,1.037V151h2.549v13.5H160.04l-.123-1.011a2.989,2.989,0,0,1-2.443,1.187,3.229,3.229,0,0,1-2.694-1.323,5.914,5.914,0,0,1-1.015-3.678m2.54.189a3.752,3.752,0,0,0,.466,2.051,1.518,1.518,0,0,0,1.353.713,1.7,1.7,0,0,0,1.661-1v-3.758a1.675,1.675,0,0,0-1.643-.995q-1.837,0-1.837,2.984" fill="#a8bc8b"/>
            <path id="Trazado_156925" data-name="Trazado 156925" d="M164.286,152.529a1.249,1.249,0,0,1,.382-.94,1.645,1.645,0,0,1,2.079,0,1.342,1.342,0,0,1,0,1.889,1.629,1.629,0,0,1-2.065,0,1.245,1.245,0,0,1-.391-.949m2.7,11.971h-2.549v-9.51h2.549Z" fill="#a8bc8b"/>
            <path id="Trazado_156926" data-name="Trazado 156926" d="M168.68,159.657a5.642,5.642,0,0,1,.545-2.522,3.986,3.986,0,0,1,1.569-1.714,4.577,4.577,0,0,1,2.377-.606,4.33,4.33,0,0,1,3.142,1.177,4.727,4.727,0,0,1,1.358,3.2l.018.65a4.97,4.97,0,0,1-1.222,3.512,4.736,4.736,0,0,1-6.561,0,5.061,5.061,0,0,1-1.226-3.586Zm2.54.181a3.549,3.549,0,0,0,.51,2.072,1.83,1.83,0,0,0,2.9.009,3.885,3.885,0,0,0,.519-2.267,3.516,3.516,0,0,0-.519-2.059,1.686,1.686,0,0,0-1.459-.731,1.659,1.659,0,0,0-1.441.727,3.949,3.949,0,0,0-.51,2.249" fill="#a8bc8b"/>
            <path id="Trazado_156927" data-name="Trazado 156927" d="M184.4,161.872a.817.817,0,0,0-.461-.733,5.252,5.252,0,0,0-1.481-.48q-3.393-.711-3.393-2.883a2.615,2.615,0,0,1,1.05-2.114,4.247,4.247,0,0,1,2.747-.848,4.563,4.563,0,0,1,2.9.853,2.685,2.685,0,0,1,1.085,2.215h-2.54a1.234,1.234,0,0,0-.351-.9,1.5,1.5,0,0,0-1.1-.355,1.521,1.521,0,0,0-.993.29.916.916,0,0,0-.352.738.783.783,0,0,0,.4.681,4.094,4.094,0,0,0,1.349.449,11.064,11.064,0,0,1,1.6.426,2.628,2.628,0,0,1,2.013,2.558,2.478,2.478,0,0,1-1.116,2.1,4.813,4.813,0,0,1-2.883.8,5.048,5.048,0,0,1-2.123-.426,3.55,3.55,0,0,1-1.454-1.17,2.71,2.71,0,0,1-.528-1.6h2.408a1.331,1.331,0,0,0,.5,1.038,1.99,1.99,0,0,0,1.248.36,1.849,1.849,0,0,0,1.1-.276.865.865,0,0,0,.374-.726" fill="#a8bc8b"/>
            <path id="Trazado_156928" data-name="Trazado 156928" d="M200.382,161.863h-4.623l-.879,2.636h-2.8l4.764-12.8h2.444l4.789,12.8h-2.8Zm-3.911-2.136h3.2l-1.608-4.79Z" fill="#a8bc8b"/>
            <path id="Trazado_156929" data-name="Trazado 156929" d="M207.061,154.99l.079,1.063a3.343,3.343,0,0,1,2.734-1.239,2.537,2.537,0,0,1,2.522,1.45,3.267,3.267,0,0,1,2.856-1.45,2.838,2.838,0,0,1,2.3.9,4.141,4.141,0,0,1,.756,2.712V164.5h-2.549v-6.065a1.807,1.807,0,0,0-.316-1.181,1.4,1.4,0,0,0-1.116-.374,1.584,1.584,0,0,0-1.582,1.089l.008,6.531h-2.54v-6.056a1.786,1.786,0,0,0-.325-1.2,1.416,1.416,0,0,0-1.107-.369,1.645,1.645,0,0,0-1.565.9V164.5h-2.54v-9.51Z" fill="#a8bc8b"/>
            <path id="Trazado_156930" data-name="Trazado 156930" d="M228.832,159.833a5.751,5.751,0,0,1-.976,3.563,3.226,3.226,0,0,1-2.724,1.279,2.969,2.969,0,0,1-2.47-1.186l-.114,1.011h-2.285V151h2.54v4.842a2.893,2.893,0,0,1,2.311-1.028,3.259,3.259,0,0,1,2.73,1.279,5.766,5.766,0,0,1,.988,3.6Zm-2.54-.185a3.782,3.782,0,0,0-.457-2.1,1.547,1.547,0,0,0-1.362-.664,1.674,1.674,0,0,0-1.67.994v3.753a1.7,1.7,0,0,0,1.687,1,1.567,1.567,0,0,0,1.617-1.212,6.26,6.26,0,0,0,.185-1.767" fill="#a8bc8b"/>
            <path id="Trazado_156931" data-name="Trazado 156931" d="M230.379,152.529a1.25,1.25,0,0,1,.383-.94,1.644,1.644,0,0,1,2.078,0,1.341,1.341,0,0,1,0,1.889,1.629,1.629,0,0,1-2.065,0,1.246,1.246,0,0,1-.392-.949m2.7,11.971h-2.549v-9.51h2.549Z" fill="#a8bc8b"/>
            <path id="Trazado_156932" data-name="Trazado 156932" d="M239.546,164.675a4.665,4.665,0,0,1-3.4-1.283,4.561,4.561,0,0,1-1.315-3.419v-.246a5.743,5.743,0,0,1,.554-2.561,4.074,4.074,0,0,1,1.569-1.741,4.407,4.407,0,0,1,2.316-.611,3.945,3.945,0,0,1,3.072,1.231,5,5,0,0,1,1.12,3.489v1.037H237.4a2.36,2.36,0,0,0,.743,1.494,2.243,2.243,0,0,0,1.568.563,2.742,2.742,0,0,0,2.294-1.064l1.248,1.4a3.794,3.794,0,0,1-1.547,1.26,5.07,5.07,0,0,1-2.162.453m-.29-7.813a1.589,1.589,0,0,0-1.226.512,2.658,2.658,0,0,0-.6,1.466h3.533v-.2a1.888,1.888,0,0,0-.457-1.31,1.634,1.634,0,0,0-1.248-.464" fill="#a8bc8b"/>
            <path id="Trazado_156933" data-name="Trazado 156933" d="M247.236,154.99l.079,1.1a3.321,3.321,0,0,1,2.734-1.275,2.758,2.758,0,0,1,2.249.888,4.132,4.132,0,0,1,.756,2.654V164.5h-2.54v-6.082a1.653,1.653,0,0,0-.351-1.174,1.58,1.58,0,0,0-1.169-.364,1.748,1.748,0,0,0-1.609.914V164.5h-2.54v-9.51Z" fill="#a8bc8b"/>
            <path id="Trazado_156934" data-name="Trazado 156934" d="M258.021,152.652v2.338h1.625v1.863h-1.625V161.6a1.126,1.126,0,0,0,.2.756,1.014,1.014,0,0,0,.773.229,4.052,4.052,0,0,0,.747-.062v1.925a5.24,5.24,0,0,1-1.537.228,2.426,2.426,0,0,1-2.726-2.7v-5.124h-1.388V154.99h1.388v-2.338Z" fill="#a8bc8b"/>
            <path id="Trazado_156935" data-name="Trazado 156935" d="M266.573,164.5a2.783,2.783,0,0,1-.255-.853,3.073,3.073,0,0,1-2.4,1.028,3.375,3.375,0,0,1-2.315-.808,2.6,2.6,0,0,1-.919-2.039,2.689,2.689,0,0,1,1.121-2.321,5.529,5.529,0,0,1,3.238-.817h1.169v-.545a1.567,1.567,0,0,0-.338-1.055,1.333,1.333,0,0,0-1.068-.395A1.507,1.507,0,0,0,263.8,157a1.045,1.045,0,0,0-.365.843h-2.54a2.552,2.552,0,0,1,.51-1.529,3.365,3.365,0,0,1,1.441-1.1,5.262,5.262,0,0,1,2.092-.4,4.157,4.157,0,0,1,2.791.883,3.093,3.093,0,0,1,1.032,2.483V162.3a4.549,4.549,0,0,0,.378,2.048v.15Zm-2.1-1.767a2.175,2.175,0,0,0,1.037-.251,1.635,1.635,0,0,0,.7-.672v-1.635h-.949q-1.906,0-2.03,1.319l-.009.149a1.014,1.014,0,0,0,.334.782,1.3,1.3,0,0,0,.914.308" fill="#a8bc8b"/>
            <rect id="Rectángulo_5440" data-name="Rectángulo 5440" width="2.549" height="13.5" transform="translate(270.844 151)" fill="#a8bc8b"/>
            <path id="Trazado_156936" data-name="Trazado 156936" d="M279.861,164.675a4.665,4.665,0,0,1-3.4-1.283,4.561,4.561,0,0,1-1.315-3.419v-.246a5.743,5.743,0,0,1,.554-2.561,4.074,4.074,0,0,1,1.569-1.741,4.407,4.407,0,0,1,2.316-.611,3.945,3.945,0,0,1,3.072,1.231,5,5,0,0,1,1.12,3.489v1.037h-6.055a2.36,2.36,0,0,0,.743,1.494,2.243,2.243,0,0,0,1.568.563,2.742,2.742,0,0,0,2.294-1.064l1.248,1.4a3.794,3.794,0,0,1-1.547,1.26,5.07,5.07,0,0,1-2.162.453m-.29-7.813a1.589,1.589,0,0,0-1.226.512,2.658,2.658,0,0,0-.6,1.466h3.533v-.2a1.888,1.888,0,0,0-.457-1.31,1.634,1.634,0,0,0-1.248-.464" fill="#a8bc8b"/>
            <path id="Trazado_156937" data-name="Trazado 156937" d="M290.364,161.872a.815.815,0,0,0-.461-.733,5.252,5.252,0,0,0-1.481-.48q-3.393-.711-3.393-2.883a2.617,2.617,0,0,1,1.051-2.114,4.243,4.243,0,0,1,2.746-.848,4.561,4.561,0,0,1,2.9.853,2.685,2.685,0,0,1,1.085,2.215h-2.54a1.234,1.234,0,0,0-.351-.9,1.5,1.5,0,0,0-1.1-.355,1.521,1.521,0,0,0-.993.29.916.916,0,0,0-.352.738.782.782,0,0,0,.4.681,4.079,4.079,0,0,0,1.348.449,11.065,11.065,0,0,1,1.6.426,2.628,2.628,0,0,1,2.013,2.558,2.478,2.478,0,0,1-1.116,2.1,4.813,4.813,0,0,1-2.883.8,5.044,5.044,0,0,1-2.122-.426,3.547,3.547,0,0,1-1.455-1.17,2.71,2.71,0,0,1-.528-1.6h2.408a1.331,1.331,0,0,0,.5,1.038,1.99,1.99,0,0,0,1.248.36,1.853,1.853,0,0,0,1.1-.276.864.864,0,0,0,.373-.726" fill="#a8bc8b"/>
            <path id="Trazado_156938" data-name="Trazado 156938" d="M294.6,163.252a1.28,1.28,0,0,1,.409-.984,1.588,1.588,0,0,1,2.057,0,1.279,1.279,0,0,1,.408.984,1.262,1.262,0,0,1-.4.971,1.614,1.614,0,0,1-2.066,0,1.262,1.262,0,0,1-.4-.971" fill="#a8bc8b"/>
            <path id="Trazado_156939" data-name="Trazado 156939" d="M176.106,184.237a4.53,4.53,0,0,1-1.525,3.252,5.354,5.354,0,0,1-3.625,1.186,4.813,4.813,0,0,1-3.872-1.656,6.8,6.8,0,0,1-1.411-4.549v-.782a7.668,7.668,0,0,1,.651-3.252,4.864,4.864,0,0,1,1.859-2.157,5.806,5.806,0,0,1,6.376.435,4.869,4.869,0,0,1,1.565,3.331h-2.637a2.675,2.675,0,0,0-.69-1.8,2.557,2.557,0,0,0-1.806-.559,2.241,2.241,0,0,0-1.973.945,5.293,5.293,0,0,0-.673,2.931v.967a5.665,5.665,0,0,0,.629,3.032,2.2,2.2,0,0,0,1.982.958,2.6,2.6,0,0,0,1.823-.557,2.52,2.52,0,0,0,.69-1.728Z" fill="#a8bc8b"/>
            <path id="Trazado_156940" data-name="Trazado 156940" d="M177.275,183.657a5.642,5.642,0,0,1,.545-2.522,3.986,3.986,0,0,1,1.569-1.714,4.577,4.577,0,0,1,2.377-.606,4.33,4.33,0,0,1,3.142,1.177,4.727,4.727,0,0,1,1.358,3.2l.018.65a4.97,4.97,0,0,1-1.222,3.512,4.736,4.736,0,0,1-6.561,0,5.061,5.061,0,0,1-1.226-3.586Zm2.54.181a3.549,3.549,0,0,0,.51,2.072,1.83,1.83,0,0,0,2.9.009,3.885,3.885,0,0,0,.519-2.267,3.516,3.516,0,0,0-.519-2.059,1.686,1.686,0,0,0-1.459-.731,1.659,1.659,0,0,0-1.441.727,3.949,3.949,0,0,0-.51,2.249" fill="#a8bc8b"/>
            <path id="Trazado_156941" data-name="Trazado 156941" d="M190.186,178.99l.079,1.1A3.321,3.321,0,0,1,193,178.814a2.758,2.758,0,0,1,2.249.888,4.132,4.132,0,0,1,.756,2.654V188.5h-2.54v-6.082a1.653,1.653,0,0,0-.351-1.174,1.58,1.58,0,0,0-1.169-.364,1.748,1.748,0,0,0-1.609.914V188.5h-2.54v-9.51Z" fill="#a8bc8b"/>
            <path id="Trazado_156942" data-name="Trazado 156942" d="M201.885,186.628a1.666,1.666,0,0,0,1.143-.387,1.355,1.355,0,0,0,.457-1.028h2.381a3.252,3.252,0,0,1-.527,1.771,3.475,3.475,0,0,1-1.42,1.248,4.448,4.448,0,0,1-1.99.444,4.127,4.127,0,0,1-3.217-1.3,5.128,5.128,0,0,1-1.178-3.581v-.167a5.073,5.073,0,0,1,1.169-3.507,4.082,4.082,0,0,1,3.208-1.309,3.994,3.994,0,0,1,2.861,1.015,3.592,3.592,0,0,1,1.094,2.7h-2.381a1.747,1.747,0,0,0-.457-1.206,1.7,1.7,0,0,0-2.5.183,3.75,3.75,0,0,0-.453,2.1v.265a3.791,3.791,0,0,0,.449,2.112,1.548,1.548,0,0,0,1.362.643" fill="#a8bc8b"/>
            <path id="Trazado_156943" data-name="Trazado 156943" d="M211.693,188.675a4.668,4.668,0,0,1-3.406-1.283,4.56,4.56,0,0,1-1.314-3.419v-.246a5.743,5.743,0,0,1,.554-2.561,4.072,4.072,0,0,1,1.568-1.741,4.411,4.411,0,0,1,2.317-.611,3.943,3.943,0,0,1,3.071,1.231,5,5,0,0,1,1.121,3.489v1.037h-6.055a2.359,2.359,0,0,0,.742,1.494,2.245,2.245,0,0,0,1.569.563,2.742,2.742,0,0,0,2.294-1.064l1.248,1.4a3.794,3.794,0,0,1-1.547,1.26,5.07,5.07,0,0,1-2.162.453m-.29-7.813a1.591,1.591,0,0,0-1.227.512,2.658,2.658,0,0,0-.6,1.466h3.533v-.2a1.888,1.888,0,0,0-.457-1.31,1.634,1.634,0,0,0-1.248-.464" fill="#a8bc8b"/>
            <path id="Trazado_156944" data-name="Trazado 156944" d="M225.606,183.833a5.706,5.706,0,0,1-1,3.52,3.2,3.2,0,0,1-2.693,1.322,2.961,2.961,0,0,1-2.329-1v4.483h-2.541V178.99H219.4l.088.931a2.985,2.985,0,0,1,2.408-1.107,3.219,3.219,0,0,1,2.733,1.3,5.853,5.853,0,0,1,.976,3.586Zm-2.54-.185a3.739,3.739,0,0,0-.471-2.048,1.531,1.531,0,0,0-1.366-.721,1.661,1.661,0,0,0-1.643.915v3.893a1.69,1.69,0,0,0,1.661.94q1.82,0,1.819-2.979" fill="#a8bc8b"/>
            <path id="Trazado_156945" data-name="Trazado 156945" d="M230.221,176.652v2.338h1.626v1.863h-1.626V185.6a1.131,1.131,0,0,0,.2.756,1.018,1.018,0,0,0,.774.229,4.052,4.052,0,0,0,.747-.062v1.925a5.241,5.241,0,0,1-1.538.228,2.425,2.425,0,0,1-2.725-2.7v-5.124h-1.389V178.99h1.389v-2.338Z" fill="#a8bc8b"/>
            <path id="Trazado_156946" data-name="Trazado 156946" d="M232.6,183.657a5.642,5.642,0,0,1,.545-2.522,3.99,3.99,0,0,1,1.568-1.714,4.584,4.584,0,0,1,2.378-.606,4.331,4.331,0,0,1,3.142,1.177,4.731,4.731,0,0,1,1.358,3.2l.018.65a4.97,4.97,0,0,1-1.222,3.512,4.736,4.736,0,0,1-6.561,0,5.057,5.057,0,0,1-1.226-3.586Zm2.54.181a3.549,3.549,0,0,0,.51,2.072,1.83,1.83,0,0,0,2.9.009,3.885,3.885,0,0,0,.519-2.267,3.516,3.516,0,0,0-.519-2.059,1.686,1.686,0,0,0-1.459-.731,1.659,1.659,0,0,0-1.441.727,3.949,3.949,0,0,0-.51,2.249" fill="#a8bc8b"/>
            <path id="Trazado_156947" data-name="Trazado 156947" d="M248.326,185.872a.816.816,0,0,0-.462-.733,5.243,5.243,0,0,0-1.48-.48q-3.393-.711-3.393-2.883a2.615,2.615,0,0,1,1.05-2.114,4.245,4.245,0,0,1,2.747-.848,4.558,4.558,0,0,1,2.9.853,2.686,2.686,0,0,1,1.086,2.215h-2.54a1.234,1.234,0,0,0-.351-.9,1.5,1.5,0,0,0-1.1-.355,1.521,1.521,0,0,0-.993.29.916.916,0,0,0-.352.738.781.781,0,0,0,.4.681,4.086,4.086,0,0,0,1.349.449,11.065,11.065,0,0,1,1.6.426,2.628,2.628,0,0,1,2.013,2.558,2.478,2.478,0,0,1-1.116,2.1,4.813,4.813,0,0,1-2.883.8,5.048,5.048,0,0,1-2.123-.426,3.544,3.544,0,0,1-1.454-1.17,2.71,2.71,0,0,1-.528-1.6H245.1a1.331,1.331,0,0,0,.5,1.038,1.99,1.99,0,0,0,1.248.36,1.849,1.849,0,0,0,1.1-.276.865.865,0,0,0,.374-.726" fill="#a8bc8b"/>
          </g>
        </g>
        <path id="Trazado_156948" data-name="Trazado 156948" d="M174.119,10.863H169.5l-.879,2.636h-2.8L170.577.7h2.444l4.79,12.8h-2.8Zm-3.911-2.136h3.2L171.8,3.937Z" fill="#12263f"/>
        <g id="Grupo_78489" data-name="Grupo 78489">
          <g id="Grupo_78488" data-name="Grupo 78488" clip-path="url(#clip-path-3)">
            <path id="Trazado_156949" data-name="Trazado 156949" d="M187.408,8.833a5.751,5.751,0,0,1-.976,3.563,3.226,3.226,0,0,1-2.724,1.279,2.969,2.969,0,0,1-2.47-1.186l-.114,1.011h-2.285V0h2.54V4.842a2.893,2.893,0,0,1,2.311-1.028,3.257,3.257,0,0,1,2.729,1.279,5.766,5.766,0,0,1,.989,3.6Zm-2.54-.185a3.782,3.782,0,0,0-.457-2.1,1.547,1.547,0,0,0-1.362-.664,1.674,1.674,0,0,0-1.67.994v3.753a1.7,1.7,0,0,0,1.687,1,1.567,1.567,0,0,0,1.617-1.212,6.26,6.26,0,0,0,.185-1.767" fill="#12263f"/>
            <path id="Trazado_156950" data-name="Trazado 156950" d="M188.955,1.529a1.252,1.252,0,0,1,.382-.94,1.645,1.645,0,0,1,2.079,0,1.242,1.242,0,0,1,.387.94,1.249,1.249,0,0,1-.391.949,1.63,1.63,0,0,1-2.066,0,1.245,1.245,0,0,1-.391-.949m2.7,11.971H189.1V3.99h2.549Z" fill="#12263f"/>
            <path id="Trazado_156951" data-name="Trazado 156951" d="M193.35,8.657a5.628,5.628,0,0,1,.545-2.522,3.98,3.98,0,0,1,1.569-1.714,4.578,4.578,0,0,1,2.377-.607,4.334,4.334,0,0,1,3.143,1.178,4.735,4.735,0,0,1,1.357,3.2l.018.651a4.975,4.975,0,0,1-1.222,3.512,4.735,4.735,0,0,1-6.561,0,5.058,5.058,0,0,1-1.226-3.586Zm2.54.181a3.549,3.549,0,0,0,.51,2.072,1.83,1.83,0,0,0,2.9.009,3.887,3.887,0,0,0,.519-2.267,3.516,3.516,0,0,0-.519-2.059,1.684,1.684,0,0,0-1.459-.731,1.655,1.655,0,0,0-1.441.727,3.949,3.949,0,0,0-.51,2.249M198.342,0h2.769l-2.435,2.725h-2.065Z" fill="#12263f"/>
            <path id="Trazado_156952" data-name="Trazado 156952" d="M206.964,1.652V3.99h1.626V5.853h-1.626V10.6a1.131,1.131,0,0,0,.2.756,1.018,1.018,0,0,0,.774.229,4.052,4.052,0,0,0,.747-.062v1.925a5.241,5.241,0,0,1-1.538.228,2.425,2.425,0,0,1-2.725-2.7V5.853h-1.389V3.99h1.389V1.652Z" fill="#12263f"/>
            <path id="Trazado_156953" data-name="Trazado 156953" d="M209.987,1.529a1.246,1.246,0,0,1,.383-.94,1.644,1.644,0,0,1,2.078,0,1.242,1.242,0,0,1,.387.94,1.249,1.249,0,0,1-.391.949,1.63,1.63,0,0,1-2.066,0,1.249,1.249,0,0,1-.391-.949m2.7,11.971h-2.549V3.99h2.549Z" fill="#12263f"/>
            <path id="Trazado_156954" data-name="Trazado 156954" d="M218.732,11.628a1.666,1.666,0,0,0,1.143-.387,1.355,1.355,0,0,0,.457-1.028h2.381a3.252,3.252,0,0,1-.527,1.771,3.469,3.469,0,0,1-1.42,1.248,4.445,4.445,0,0,1-1.99.444,4.127,4.127,0,0,1-3.217-1.3A5.128,5.128,0,0,1,214.381,8.8V8.631a5.073,5.073,0,0,1,1.169-3.507,4.082,4.082,0,0,1,3.208-1.309A4,4,0,0,1,221.62,4.83a3.6,3.6,0,0,1,1.093,2.7h-2.381a1.747,1.747,0,0,0-.457-1.206,1.7,1.7,0,0,0-2.5.183,3.759,3.759,0,0,0-.453,2.1v.265a3.791,3.791,0,0,0,.449,2.112,1.548,1.548,0,0,0,1.362.643" fill="#12263f"/>
            <path id="Trazado_156955" data-name="Trazado 156955" d="M223.769,8.657a5.642,5.642,0,0,1,.545-2.522,4,4,0,0,1,1.568-1.714,4.586,4.586,0,0,1,2.378-.606A4.33,4.33,0,0,1,231.4,4.992a4.727,4.727,0,0,1,1.358,3.2l.018.65a4.97,4.97,0,0,1-1.222,3.512,4.735,4.735,0,0,1-6.56,0,5.053,5.053,0,0,1-1.227-3.586Zm2.54.181a3.549,3.549,0,0,0,.51,2.072,1.83,1.83,0,0,0,2.9.009,3.885,3.885,0,0,0,.519-2.267,3.516,3.516,0,0,0-.519-2.059,1.686,1.686,0,0,0-1.459-.731,1.659,1.659,0,0,0-1.441.727,3.949,3.949,0,0,0-.51,2.249" fill="#12263f"/>
            <path id="Trazado_156956" data-name="Trazado 156956" d="M239.492,10.872a.814.814,0,0,0-.462-.733,5.231,5.231,0,0,0-1.48-.48q-3.393-.711-3.393-2.883a2.614,2.614,0,0,1,1.051-2.114,4.241,4.241,0,0,1,2.746-.848,4.563,4.563,0,0,1,2.9.853,2.688,2.688,0,0,1,1.085,2.215H239.4a1.234,1.234,0,0,0-.351-.9,1.5,1.5,0,0,0-1.1-.355,1.521,1.521,0,0,0-.993.29.916.916,0,0,0-.352.738.78.78,0,0,0,.4.681,4.069,4.069,0,0,0,1.348.449,11.066,11.066,0,0,1,1.6.426,2.628,2.628,0,0,1,2.013,2.558,2.478,2.478,0,0,1-1.116,2.1,4.813,4.813,0,0,1-2.883.8,5.04,5.04,0,0,1-2.122-.426,3.541,3.541,0,0,1-1.455-1.17,2.71,2.71,0,0,1-.528-1.6h2.408a1.331,1.331,0,0,0,.5,1.038,1.99,1.99,0,0,0,1.248.36,1.847,1.847,0,0,0,1.1-.276.863.863,0,0,0,.374-.726" fill="#12263f"/>
            <path id="Trazado_156957" data-name="Trazado 156957" d="M0,136.5V124.414H4.233a5.557,5.557,0,0,1,3.337.843,2.879,2.879,0,0,1,1.137,2.469,2.734,2.734,0,0,1-.456,1.565,2.641,2.641,0,0,1-1.27.992,2.55,2.55,0,0,1,1.465.937,2.78,2.78,0,0,1,.535,1.727,3.189,3.189,0,0,1-1.112,2.64A5.011,5.011,0,0,1,4.7,136.5Zm2.49-7.023H4.333q1.884-.033,1.884-1.5a1.388,1.388,0,0,0-.477-1.182,2.51,2.51,0,0,0-1.507-.361H2.49Zm0,1.76V134.5H4.623A2.061,2.061,0,0,0,6,134.08a1.439,1.439,0,0,0,.494-1.158,1.518,1.518,0,0,0-1.718-1.685Z" fill="#12263f"/>
            <path id="Trazado_156958" data-name="Trazado 156958" d="M10.675,125.194a1.182,1.182,0,0,1,.361-.888,1.358,1.358,0,0,1,.984-.349,1.362,1.362,0,0,1,.979.349,1.269,1.269,0,0,1,0,1.785,1.365,1.365,0,0,1-.975.348,1.367,1.367,0,0,1-.976-.348,1.181,1.181,0,0,1-.369-.9M13.223,136.5H10.816v-8.981h2.407Z" fill="#12263f"/>
            <path id="Trazado_156959" data-name="Trazado 156959" d="M14.825,131.926a5.326,5.326,0,0,1,.515-2.382,3.765,3.765,0,0,1,1.481-1.618,4.315,4.315,0,0,1,2.246-.573,4.09,4.09,0,0,1,2.967,1.112,4.463,4.463,0,0,1,1.283,3.021l.016.615a4.7,4.7,0,0,1-1.153,3.316,4.011,4.011,0,0,1-3.1,1.249,4.031,4.031,0,0,1-3.1-1.245,4.777,4.777,0,0,1-1.158-3.387Zm2.4.171a3.359,3.359,0,0,0,.482,1.958,1.73,1.73,0,0,0,2.739.008,3.68,3.68,0,0,0,.49-2.141,3.326,3.326,0,0,0-.49-1.945,1.593,1.593,0,0,0-1.378-.69,1.564,1.564,0,0,0-1.361.686,3.733,3.733,0,0,0-.482,2.124m2.316-8.347h2.615l-2.3,2.573h-1.95Z" fill="#12263f"/>
            <path id="Trazado_156960" data-name="Trazado 156960" d="M27.683,125.31v2.208h1.536v1.76H27.683v4.482a1.065,1.065,0,0,0,.191.714.958.958,0,0,0,.73.216,3.9,3.9,0,0,0,.706-.058v1.818a4.968,4.968,0,0,1-1.453.215,2.29,2.29,0,0,1-2.573-2.548v-4.839H23.973v-1.76h1.311V125.31Z" fill="#12263f"/>
            <path id="Trazado_156961" data-name="Trazado 156961" d="M30.539,125.194a1.185,1.185,0,0,1,.36-.888,1.556,1.556,0,0,1,1.964,0,1.268,1.268,0,0,1,0,1.785,1.54,1.54,0,0,1-1.95,0,1.181,1.181,0,0,1-.369-.9M33.087,136.5H30.68v-8.981h2.407Z" fill="#12263f"/>
            <path id="Trazado_156962" data-name="Trazado 156962" d="M38.8,134.732a1.575,1.575,0,0,0,1.079-.365,1.281,1.281,0,0,0,.432-.972h2.249a3.073,3.073,0,0,1-.5,1.673,3.286,3.286,0,0,1-1.341,1.179,4.2,4.2,0,0,1-1.879.419,3.9,3.9,0,0,1-3.039-1.225,4.846,4.846,0,0,1-1.112-3.383V131.9a4.789,4.789,0,0,1,1.1-3.312,3.853,3.853,0,0,1,3.03-1.237,3.775,3.775,0,0,1,2.7.959,3.391,3.391,0,0,1,1.033,2.552H40.309a1.647,1.647,0,0,0-.432-1.139,1.607,1.607,0,0,0-2.362.173,3.548,3.548,0,0,0-.427,1.982v.25a3.591,3.591,0,0,0,.423,2,1.465,1.465,0,0,0,1.287.607" fill="#12263f"/>
            <path id="Trazado_156963" data-name="Trazado 156963" d="M43.554,131.925a5.315,5.315,0,0,1,.515-2.382,3.765,3.765,0,0,1,1.481-1.618,4.315,4.315,0,0,1,2.246-.573,4.09,4.09,0,0,1,2.967,1.112,4.464,4.464,0,0,1,1.283,3.022l.016.614a4.7,4.7,0,0,1-1.153,3.316,4.473,4.473,0,0,1-6.2,0,4.776,4.776,0,0,1-1.158-3.386Zm2.4.171a3.365,3.365,0,0,0,.481,1.958,1.729,1.729,0,0,0,2.74.008,3.676,3.676,0,0,0,.489-2.141,3.326,3.326,0,0,0-.489-1.945,1.593,1.593,0,0,0-1.378-.69,1.567,1.567,0,0,0-1.362.686,3.742,3.742,0,0,0-.481,2.124" fill="#12263f"/>
            <path id="Trazado_156964" data-name="Trazado 156964" d="M58.4,134.017a.771.771,0,0,0-.436-.692,4.934,4.934,0,0,0-1.4-.453q-3.206-.673-3.2-2.722a2.468,2.468,0,0,1,.993-2,4,4,0,0,1,2.593-.8,4.307,4.307,0,0,1,2.736.806,2.536,2.536,0,0,1,1.025,2.091h-2.4a1.162,1.162,0,0,0-.332-.851,1.408,1.408,0,0,0-1.038-.336,1.444,1.444,0,0,0-.938.273.869.869,0,0,0-.332.7.739.739,0,0,0,.378.643,3.878,3.878,0,0,0,1.274.424,10.478,10.478,0,0,1,1.511.4,2.483,2.483,0,0,1,1.9,2.415,2.343,2.343,0,0,1-1.055,1.989,4.54,4.54,0,0,1-2.722.759,4.741,4.741,0,0,1-2-.4,3.364,3.364,0,0,1-1.374-1.1,2.567,2.567,0,0,1-.5-1.515h2.275a1.247,1.247,0,0,0,.473.979,1.874,1.874,0,0,0,1.178.341,1.746,1.746,0,0,0,1.042-.261.816.816,0,0,0,.353-.686" fill="#12263f"/>
            <path id="Trazado_156965" data-name="Trazado 156965" d="M336.438,133.515a1.205,1.205,0,0,0-.47-1.02,6.142,6.142,0,0,0-1.687-.75,11.877,11.877,0,0,1-1.93-.777,3.152,3.152,0,0,1-1.937-2.82,2.745,2.745,0,0,1,.519-1.645,3.4,3.4,0,0,1,1.492-1.129,5.633,5.633,0,0,1,2.184-.406,5.12,5.12,0,0,1,2.172.442,3.443,3.443,0,0,1,1.48,1.246,3.254,3.254,0,0,1,.528,1.828h-2.344a1.534,1.534,0,0,0-.492-1.215,2.024,2.024,0,0,0-1.383-.434,2.155,2.155,0,0,0-1.336.364,1.145,1.145,0,0,0-.477.957,1.1,1.1,0,0,0,.559.929,6.289,6.289,0,0,0,1.644.7,7.113,7.113,0,0,1,2.914,1.493,2.968,2.968,0,0,1,.915,2.218,2.738,2.738,0,0,1-1.118,2.317,4.9,4.9,0,0,1-3.007.84,5.816,5.816,0,0,1-2.391-.481,3.784,3.784,0,0,1-1.645-1.316,3.369,3.369,0,0,1-.565-1.938h2.351q0,1.882,2.25,1.883a2.183,2.183,0,0,0,1.3-.34,1.1,1.1,0,0,0,.47-.949" fill="#12263f"/>
            <path id="Trazado_156966" data-name="Trazado 156966" d="M339.875,132.2a5,5,0,0,1,.485-2.242,3.551,3.551,0,0,1,1.394-1.524,4.074,4.074,0,0,1,2.113-.539,3.848,3.848,0,0,1,2.793,1.047,4.2,4.2,0,0,1,1.207,2.844l.016.578a4.418,4.418,0,0,1-1.086,3.121,4.208,4.208,0,0,1-5.832,0,4.494,4.494,0,0,1-1.09-3.188Zm2.258.16a3.16,3.16,0,0,0,.453,1.843,1.629,1.629,0,0,0,2.578.008,3.454,3.454,0,0,0,.461-2.015,3.123,3.123,0,0,0-.461-1.831,1.5,1.5,0,0,0-1.3-.65,1.474,1.474,0,0,0-1.281.646,3.518,3.518,0,0,0-.453,2" fill="#12263f"/>
            <path id="Trazado_156967" data-name="Trazado 156967" d="M352.789,134.836a1.478,1.478,0,0,0,1.016-.344,1.208,1.208,0,0,0,.406-.914h2.117a2.887,2.887,0,0,1-.469,1.574,3.086,3.086,0,0,1-1.261,1.11,3.967,3.967,0,0,1-1.77.394,3.667,3.667,0,0,1-2.859-1.152,4.556,4.556,0,0,1-1.047-3.184v-.148a4.506,4.506,0,0,1,1.039-3.117,3.622,3.622,0,0,1,2.851-1.164,3.551,3.551,0,0,1,2.543.9,3.2,3.2,0,0,1,.973,2.4h-2.117a1.559,1.559,0,0,0-.406-1.072,1.511,1.511,0,0,0-2.223.163,3.327,3.327,0,0,0-.4,1.866v.235a3.374,3.374,0,0,0,.4,1.878,1.376,1.376,0,0,0,1.211.571" fill="#12263f"/>
            <path id="Trazado_156968" data-name="Trazado 156968" d="M357.6,125.859a1.113,1.113,0,0,1,.339-.836,1.465,1.465,0,0,1,1.848,0,1.193,1.193,0,0,1,0,1.68,1.449,1.449,0,0,1-1.836,0,1.111,1.111,0,0,1-.347-.844M360,136.5h-2.266v-8.453H360Z" fill="#12263f"/>
            <path id="Trazado_156969" data-name="Trazado 156969" d="M361.508,132.2a5,5,0,0,1,.485-2.242,3.551,3.551,0,0,1,1.394-1.524,4.074,4.074,0,0,1,2.113-.539,3.848,3.848,0,0,1,2.793,1.047,4.2,4.2,0,0,1,1.207,2.844l.016.578a4.418,4.418,0,0,1-1.086,3.121,4.208,4.208,0,0,1-5.832,0,4.494,4.494,0,0,1-1.09-3.188Zm2.258.16a3.16,3.16,0,0,0,.453,1.843,1.629,1.629,0,0,0,2.578.008,3.453,3.453,0,0,0,.461-2.015,3.122,3.122,0,0,0-.461-1.831,1.5,1.5,0,0,0-1.3-.65,1.474,1.474,0,0,0-1.281.646,3.518,3.518,0,0,0-.453,2" fill="#12263f"/>
            <path id="Trazado_156970" data-name="Trazado 156970" d="M374.422,134.836a1.478,1.478,0,0,0,1.016-.344,1.208,1.208,0,0,0,.406-.914h2.117a2.887,2.887,0,0,1-.469,1.574,3.086,3.086,0,0,1-1.261,1.11,3.967,3.967,0,0,1-1.77.394A3.667,3.667,0,0,1,371.6,135.5a4.556,4.556,0,0,1-1.047-3.184v-.148a4.506,4.506,0,0,1,1.039-3.117,3.622,3.622,0,0,1,2.851-1.164,3.551,3.551,0,0,1,2.543.9,3.2,3.2,0,0,1,.973,2.4h-2.117a1.559,1.559,0,0,0-.406-1.072,1.511,1.511,0,0,0-2.223.163,3.327,3.327,0,0,0-.4,1.866v.235a3.374,3.374,0,0,0,.4,1.878,1.376,1.376,0,0,0,1.211.571" fill="#12263f"/>
            <path id="Trazado_156971" data-name="Trazado 156971" d="M384.313,135.64A2.836,2.836,0,0,1,382,136.656a2.671,2.671,0,0,1-2.074-.782,3.339,3.339,0,0,1-.73-2.289v-5.539h2.258v5.467q0,1.323,1.2,1.322a1.628,1.628,0,0,0,1.578-.8v-5.991H386.5V136.5h-2.126Z" fill="#12263f"/>
            <rect id="Rectángulo_5442" data-name="Rectángulo 5442" width="2.266" height="12" transform="translate(388.32 124.5)" fill="#12263f"/>
            <path id="Trazado_156972" data-name="Trazado 156972" d="M395.148,125.969v2.078h1.445V129.7h-1.445v4.219a1.007,1.007,0,0,0,.18.672.9.9,0,0,0,.687.2,3.546,3.546,0,0,0,.664-.055v1.711a4.623,4.623,0,0,1-1.367.2,2.156,2.156,0,0,1-2.422-2.4V129.7h-1.234v-1.656h1.234v-2.078Z" fill="#12263f"/>
            <path id="Trazado_156973" data-name="Trazado 156973" d="M402.914,135.64a2.833,2.833,0,0,1-2.313,1.016,2.671,2.671,0,0,1-2.074-.782,3.339,3.339,0,0,1-.73-2.289v-5.539h2.258v5.467q0,1.323,1.2,1.322a1.628,1.628,0,0,0,1.578-.8v-5.991H405.1V136.5h-2.126Z" fill="#12263f"/>
            <path id="Trazado_156974" data-name="Trazado 156974" d="M411.555,130.164a6.074,6.074,0,0,0-.812-.062,1.653,1.653,0,0,0-1.68.867V136.5H406.8v-8.453h2.133l.062,1.008a2.09,2.09,0,0,1,1.883-1.164,2.385,2.385,0,0,1,.7.1Z" fill="#12263f"/>
            <path id="Trazado_156975" data-name="Trazado 156975" d="M417.3,136.5a2.489,2.489,0,0,1-.226-.758,2.731,2.731,0,0,1-2.133.915,3,3,0,0,1-2.059-.719,2.313,2.313,0,0,1-.816-1.813,2.389,2.389,0,0,1,1-2.062,4.908,4.908,0,0,1,2.879-.727h1.039v-.484a1.4,1.4,0,0,0-.3-.938,1.184,1.184,0,0,0-.949-.351,1.348,1.348,0,0,0-.9.273.934.934,0,0,0-.324.75h-2.258a2.276,2.276,0,0,1,.453-1.359,3,3,0,0,1,1.282-.981,4.665,4.665,0,0,1,1.859-.355,3.694,3.694,0,0,1,2.481.785,2.747,2.747,0,0,1,.918,2.207v3.664a4.034,4.034,0,0,0,.335,1.82v.133Zm-1.866-1.57a1.938,1.938,0,0,0,.921-.223,1.463,1.463,0,0,0,.625-.6v-1.453h-.844q-1.7,0-1.805,1.171l-.007.133a.9.9,0,0,0,.3.7,1.154,1.154,0,0,0,.813.273" fill="#12263f"/>
            <rect id="Rectángulo_5443" data-name="Rectángulo 5443" width="2.266" height="12" transform="translate(421.101 124.5)" fill="#12263f"/>
            <path id="Trazado_156976" data-name="Trazado 156976" d="M429.117,136.656a4.154,4.154,0,0,1-3.028-1.14,4.059,4.059,0,0,1-1.168-3.039v-.219a5.1,5.1,0,0,1,.493-2.277,3.616,3.616,0,0,1,1.394-1.547,3.907,3.907,0,0,1,2.059-.543,3.507,3.507,0,0,1,2.73,1.093,4.446,4.446,0,0,1,1,3.1v.922h-5.382a2.1,2.1,0,0,0,.66,1.328,2,2,0,0,0,1.394.5,2.436,2.436,0,0,0,2.039-.945l1.11,1.242a3.4,3.4,0,0,1-1.375,1.121,4.5,4.5,0,0,1-1.922.4m-.258-6.945a1.408,1.408,0,0,0-1.09.455,2.363,2.363,0,0,0-.535,1.3h3.141v-.181a1.681,1.681,0,0,0-.407-1.165,1.457,1.457,0,0,0-1.109-.412" fill="#12263f"/>
            <path id="Trazado_156977" data-name="Trazado 156977" d="M438.453,134.164a.728.728,0,0,0-.41-.652,4.624,4.624,0,0,0-1.317-.426q-3.015-.633-3.015-2.563a2.324,2.324,0,0,1,.933-1.879,3.77,3.77,0,0,1,2.442-.753,4.055,4.055,0,0,1,2.574.757,2.387,2.387,0,0,1,.965,1.969h-2.258a1.094,1.094,0,0,0-.312-.8,1.324,1.324,0,0,0-.977-.316,1.351,1.351,0,0,0-.883.258.814.814,0,0,0-.312.656.694.694,0,0,0,.355.6,3.649,3.649,0,0,0,1.2.4,9.721,9.721,0,0,1,1.422.379,2.335,2.335,0,0,1,1.789,2.273,2.2,2.2,0,0,1-.992,1.871,4.274,4.274,0,0,1-2.562.715,4.468,4.468,0,0,1-1.887-.379,3.155,3.155,0,0,1-1.293-1.039,2.41,2.41,0,0,1-.469-1.426h2.141a1.175,1.175,0,0,0,.445.922,1.764,1.764,0,0,0,1.11.321,1.636,1.636,0,0,0,.98-.246.766.766,0,0,0,.332-.645" fill="#12263f"/>
          </g>
        </g>
      </g>
    </g>
  </g>
</svg>
