<svg xmlns="http://www.w3.org/2000/svg" xmlns:xlink="http://www.w3.org/1999/xlink" width="347" height="318" viewBox="0 0 347 318">
  <defs>
    <filter id="Línea_279" x="89.265" y="249.404" width="180.981" height="22" filterUnits="userSpaceOnUse">
      <feOffset dy="3" input="SourceAlpha"/>
      <feGaussianBlur stdDeviation="3" result="blur"/>
      <feFlood flood-opacity="0.161"/>
      <feComposite operator="in" in2="blur"/>
      <feComposite in="SourceGraphic"/>
    </filter>
  </defs>
  <g id="Grupo_108430" data-name="Grupo 108430" transform="translate(-968 -5179)">
    <path id="Background" d="M0,0H327a20,20,0,0,1,20,20V298a20,20,0,0,1-20,20H0a0,0,0,0,1,0,0V0A0,0,0,0,1,0,0Z" transform="translate(968 5179)" fill="#6c99b5" opacity="0.89"/>
    <text id="Servicio_Nacional_de_Aprendizaje_SENA_._2020._Practica_de_laboratorio_de_soluciones._Centro_de_gestión_industrial_CGI_." data-name="Servicio Nacional de Aprendizaje (SENA). 2020. 
Practica de laboratorio de soluciones. Centro de gestión industrial (CGI)." transform="translate(1001.83 5234.58)" fill="#fff" font-size="18" font-family="Roboto-Black, Roboto" font-weight="800"><tspan x="0" y="19">Servicio Nacional de Aprendizaje </tspan><tspan x="0" y="43">(SENA). 2020. </tspan><tspan font-size="16" font-family="Roboto-Regular, Roboto" font-weight="400"><tspan x="0" y="67">Practica de laboratorio de soluciones. </tspan><tspan x="0" y="91">Centro de gestión industrial (CGI).</tspan></tspan></text>
    <g transform="matrix(1, 0, 0, 1, 968, 5179)" filter="url(#Línea_279)">
      <line id="Línea_279-2" data-name="Línea 279" x2="162.981" transform="translate(98.26 257.4)" fill="none" stroke="#f6f6f6" stroke-width="4"/>
    </g>
  </g>
</svg>
