<svg xmlns="http://www.w3.org/2000/svg" width="505" height="327.326" viewBox="0 0 505 327.326">
  <g id="Grupo_108281" data-name="Grupo 108281" transform="translate(-915 -3453.675)">
    <g id="Grupo_108280" data-name="Grupo 108280" transform="translate(75.262 224.747)">
      <rect id="Rectángulo_39310" data-name="Rectángulo 39310" width="401.029" height="9.161" transform="translate(878.969 3547.092)" fill="#477fa2"/>
      <g id="Grupo_17682" data-name="Grupo 17682" transform="translate(874.238 3228.927)">
        <g id="Grupo_17629" data-name="Grupo 17629" transform="translate(0 29.315)">
          <g id="Grupo_17628" data-name="Grupo 17628">
            <g id="Grupo_17627" data-name="Grupo 17627">
              <g id="Grupo_17626" data-name="Grupo 17626">
                <g id="Grupo_17625" data-name="Grupo 17625">
                  <g id="Grupo_17624" data-name="Grupo 17624" opacity="0.6">
                    <g id="Grupo_17623" data-name="Grupo 17623">
                      <path id="Trazado_45993" data-name="Trazado 45993" d="M227.194,337.231s-10.559-46.2,26.068-89.025,8.023-72.5,26.512-130.439c11.569-36.256,42.737-69.224,104.57-69.736s77.55,55.383,102.878,63.582c45.935,14.871,70.428-9.039,100,16.409,38.141,32.817,6.216,86.673,12.417,121.561,8.872,49.917,31.072,53.707,30.142,87.648" transform="translate(-221.935 -48.027)" fill="#dceef7"/>
                      <path id="Trazado_45994" data-name="Trazado 45994" d="M693.054,244.535a77.7,77.7,0,0,0,3.908,32.761c6.058,17.856,15.633,30.355,26.771,30.041s13.094-18.572,5.863-36.293-2.932-32.855-7.622-44.507S693.249,217.093,693.054,244.535Z" transform="translate(-314.365 -58.329)" fill="#dceef7"/>
                      <path id="Trazado_45995" data-name="Trazado 45995" d="M265.583,208.234a60.316,60.316,0,0,1-9.183,28.26,89.6,89.6,0,0,1-19.5,21.961c-7.212,5.728-24.069.141-9.812-21.961s21.813-29.658,22.606-39.624S266.718,187.747,265.583,208.234Z" transform="translate(-221.536 -57.885)" fill="#dceef7"/>
                    </g>
                  </g>
                </g>
              </g>
            </g>
          </g>
        </g>
        <g id="Grupo_17681" data-name="Grupo 17681" transform="translate(79.463 0)">
          <g id="Grupo_17641" data-name="Grupo 17641" transform="translate(199.053 139.916)" opacity="0.7">
            <g id="Grupo_17637" data-name="Grupo 17637" transform="translate(1.949 1.507)">
              <g id="Grupo_17630" data-name="Grupo 17630" transform="translate(13.787)">
                <path id="Trazado_45996" data-name="Trazado 45996" d="M583.569,175.485l-10.427-6.492.287-.493,10.427,6.492Z" transform="translate(-573.142 -168.5)" fill="#3e639e"/>
              </g>
              <g id="Grupo_17631" data-name="Grupo 17631" transform="translate(12.853 4.097)">
                <path id="Trazado_45997" data-name="Trazado 45997" d="M580.509,178.742l-8.4-5.229.287-.493,8.4,5.229Z" transform="translate(-572.11 -173.021)" fill="#3e639e"/>
              </g>
              <g id="Grupo_17632" data-name="Grupo 17632" transform="translate(10.123 11.754)">
                <path id="Trazado_45998" data-name="Trazado 45998" d="M577.238,187.031l-8.14-5.069.287-.492,8.139,5.069Z" transform="translate(-569.098 -181.47)" fill="#d66"/>
              </g>
              <g id="Grupo_17633" data-name="Grupo 17633" transform="translate(6.893 14.422)">
                <path id="Trazado_45999" data-name="Trazado 45999" d="M575.961,191.4l-10.427-6.492.288-.493,10.426,6.492Z" transform="translate(-565.534 -184.414)" fill="#d66"/>
              </g>
              <g id="Grupo_17634" data-name="Grupo 17634" transform="translate(5.592 18.29)">
                <path id="Trazado_46000" data-name="Trazado 46000" d="M572.925,194.671l-8.826-5.5.287-.493,8.826,5.5Z" transform="translate(-564.099 -188.683)" fill="#3e639e"/>
              </g>
              <g id="Grupo_17635" data-name="Grupo 17635" transform="translate(3.022 26.047)">
                <path id="Trazado_46001" data-name="Trazado 46001" d="M569.553,202.9l-8.291-5.162.287-.493,8.291,5.163Z" transform="translate(-561.263 -197.243)" fill="#3e639e"/>
              </g>
              <g id="Grupo_17636" data-name="Grupo 17636" transform="translate(0 28.843)">
                <path id="Trazado_46002" data-name="Trazado 46002" d="M568.354,207.314l-10.427-6.492.287-.493,10.427,6.492Z" transform="translate(-557.927 -200.329)" fill="#3e639e"/>
              </g>
            </g>
            <g id="Grupo_17640" data-name="Grupo 17640">
              <g id="Grupo_17638" data-name="Grupo 17638">
                <path id="Trazado_46003" data-name="Trazado 46003" d="M556.659,200.763l-.882-.421c2.258-4.724,6.645-9.1,12.569-8a5.982,5.982,0,0,0,6.582-3.023,6.869,6.869,0,0,0-1.357-8.023c-6.31-6.864-1.768-14.385-1.722-14.46l.814.546-.405-.275.407.272a10.926,10.926,0,0,0,1.665,13.067,8.072,8.072,0,0,1,1.465,9.32,7.081,7.081,0,0,1-7.732,3.675C562.709,192.449,558.742,196.4,556.659,200.763Z" transform="translate(-555.777 -166.837)" fill="#5473b2"/>
              </g>
              <g id="Grupo_17639" data-name="Grupo 17639" transform="translate(7.238 5.494)">
                <path id="Trazado_46004" data-name="Trazado 46004" d="M568.713,206.735l-.881-.421c2.084-4.36,2.67-9.93-1.465-13.472a7.044,7.044,0,0,1-2.009-8.3,8.093,8.093,0,0,1,8.181-4.728,11.075,11.075,0,0,0,11.217-6.917l.939.284a12.267,12.267,0,0,1-12.33,7.732,6.85,6.85,0,0,0-7.088,3.968,6.016,6.016,0,0,0,1.767,7.048C571.618,195.852,570.972,202.011,568.713,206.735Z" transform="translate(-563.764 -172.9)" fill="#5473b2"/>
              </g>
            </g>
          </g>
          <g id="Grupo_17653" data-name="Grupo 17653" transform="translate(98.282 10.676)" opacity="0.7">
            <g id="Grupo_17649" data-name="Grupo 17649" transform="translate(1.16 3.338)">
              <g id="Grupo_17642" data-name="Grupo 17642">
                <path id="Trazado_46005" data-name="Trazado 46005" d="M460.405,31.807l-14.412,2.582-.139-.665,14.411-2.582Z" transform="translate(-445.854 -31.142)" fill="#3e639e"/>
              </g>
              <g id="Grupo_17643" data-name="Grupo 17643" transform="translate(2.444 4.874)">
                <path id="Trazado_46006" data-name="Trazado 46006" d="M460.3,37.185l-11.607,2.08-.14-.665,11.608-2.08Z" transform="translate(-448.551 -36.52)" fill="#3e639e"/>
              </g>
              <g id="Grupo_17644" data-name="Grupo 17644" transform="translate(6.144 13.895)">
                <path id="Trazado_46007" data-name="Trazado 46007" d="M464.024,47.14l-11.251,2.015-.14-.665,11.251-2.015Z" transform="translate(-452.633 -46.475)" fill="#d66"/>
              </g>
              <g id="Grupo_17645" data-name="Grupo 17645" transform="translate(5.417 18.268)">
                <path id="Trazado_46008" data-name="Trazado 46008" d="M466.383,51.966l-14.412,2.582-.139-.665L466.243,51.3Z" transform="translate(-451.832 -51.301)" fill="#d66"/>
              </g>
              <g id="Grupo_17646" data-name="Grupo 17646" transform="translate(7.355 23.126)">
                <path id="Trazado_46009" data-name="Trazado 46009" d="M466.308,57.327l-12.2,2.186-.14-.665,12.2-2.186Z" transform="translate(-453.97 -56.662)" fill="#3e639e"/>
              </g>
              <g id="Grupo_17647" data-name="Grupo 17647" transform="translate(11.276 32.175)">
                <path id="Trazado_46010" data-name="Trazado 46010" d="M469.9,67.313l-11.458,2.053-.14-.665,11.459-2.053Z" transform="translate(-458.297 -66.648)" fill="#3e639e"/>
              </g>
              <g id="Grupo_17648" data-name="Grupo 17648" transform="translate(10.834 36.535)">
                <path id="Trazado_46011" data-name="Trazado 46011" d="M472.361,72.124l-14.412,2.582-.14-.665,14.412-2.582Z" transform="translate(-457.809 -71.459)" fill="#3e639e"/>
              </g>
            </g>
            <g id="Grupo_17652" data-name="Grupo 17652">
              <g id="Grupo_17650" data-name="Grupo 17650" transform="translate(0 4.376)">
                <path id="Trazado_46012" data-name="Trazado 46012" d="M458.225,74.611l-1.116.331c-1.774-5.984-1.384-13.357,4.735-17.114a7.129,7.129,0,0,0,3.41-7.932c-.65-2.617-2.994-5.585-7.608-6.017-11.065-1.035-13.053-11.316-13.072-11.42l1.155-.168-.579.08.578-.084a13.022,13.022,0,0,0,11.908,10.234,9.623,9.623,0,0,1,8.741,7.077,8.439,8.439,0,0,1-3.908,9.427C456.94,62.422,456.586,69.088,458.225,74.611Z" transform="translate(-444.574 -32.287)" fill="#5473b2"/>
              </g>
              <g id="Grupo_17651" data-name="Grupo 17651" transform="translate(5.902)">
                <path id="Trazado_46013" data-name="Trazado 46013" d="M473.156,69.912l-1.116.331c-1.638-5.523-5.568-10.92-12.056-10.752a8.4,8.4,0,0,1-8.4-5.737,9.647,9.647,0,0,1,3.463-10.717,13.2,13.2,0,0,0,4.4-15.079l1.057-.5c.041.1,3.976,9.789-4.737,16.689-3.632,2.877-3.985,6.623-3.1,9.172a7.172,7.172,0,0,0,7.193,4.826C467.035,57.96,471.382,63.928,473.156,69.912Z" transform="translate(-451.087 -27.458)" fill="#5473b2"/>
              </g>
            </g>
          </g>
          <g id="Grupo_17654" data-name="Grupo 17654" transform="translate(116.686)" opacity="0.7">
            <path id="Trazado_46014" data-name="Trazado 46014" d="M491.131,94" transform="translate(-467.346 -23.024)" fill="#305387"/>
            <path id="Trazado_46015" data-name="Trazado 46015" d="M605.512,87.511,585.866,53.769H547.8L528.264,20.245H489.608v1.418h37.78l18.747,31.942L526.993,86.657l.251.212-.307.559,19.036,32.758-7.311,12.8L527,152.56l.337.232H489.873l-18.76-32.856,18.979-32.944-1.33-.773-19.421,34.044,19.639,34.721h39.292l11.714-21.073,7.476-13.1h37.523l18.978,32.575,1.324-.668-18.973-32.269ZM547.8,119.269,529.044,86.661l18.422-31.474h37.516l18.753,32.041-18.753,32.041Z" transform="translate(-465.302 -16.106)" fill="#5473b2"/>
            <path id="Trazado_46016" data-name="Trazado 46016" d="M495.921,20.6A4.924,4.924,0,1,0,491,25.526,4.925,4.925,0,0,0,495.921,20.6Z" transform="translate(-466.872 -15.677)" fill="#305387"/>
            <path id="Trazado_46017" data-name="Trazado 46017" d="M538.294,20.6a4.924,4.924,0,1,0-4.924,4.924A4.925,4.925,0,0,0,538.294,20.6Z" transform="translate(-470.847 -15.677)" fill="#305387"/>
            <path id="Trazado_46018" data-name="Trazado 46018" d="M559.481,57.044a4.924,4.924,0,1,0-4.924,4.924A4.924,4.924,0,0,0,559.481,57.044Z" transform="translate(-472.834 -19.096)" fill="#d66"/>
            <path id="Trazado_46019" data-name="Trazado 46019" d="M537.447,93.486a4.925,4.925,0,1,0-4.924,4.924A4.924,4.924,0,0,0,537.447,93.486Z" transform="translate(-470.767 -22.514)" fill="#305387"/>
            <path id="Trazado_46020" data-name="Trazado 46020" d="M495.921,93.486A4.924,4.924,0,1,0,491,98.41,4.924,4.924,0,0,0,495.921,93.486Z" transform="translate(-466.872 -22.514)" fill="#305387"/>
            <path id="Trazado_46021" data-name="Trazado 46021" d="M474.733,129.928a4.925,4.925,0,1,0-4.925,4.925A4.925,4.925,0,0,0,474.733,129.928Z" transform="translate(-464.884 -25.933)" fill="#305387"/>
            <path id="Trazado_46022" data-name="Trazado 46022" d="M495.921,166.37A4.924,4.924,0,1,0,491,171.294,4.925,4.925,0,0,0,495.921,166.37Z" transform="translate(-466.872 -29.352)" fill="#305387"/>
            <path id="Trazado_46023" data-name="Trazado 46023" d="M538.294,166.37a4.924,4.924,0,1,0-4.924,4.924A4.924,4.924,0,0,0,538.294,166.37Z" transform="translate(-470.847 -29.352)" fill="#305387"/>
            <path id="Trazado_46024" data-name="Trazado 46024" d="M622.2,166.37a4.924,4.924,0,1,0-4.924,4.924A4.924,4.924,0,0,0,622.2,166.37Z" transform="translate(-478.718 -29.352)" fill="#305387"/>
            <path id="Trazado_46025" data-name="Trazado 46025" d="M559.481,129.928a4.924,4.924,0,1,0-4.924,4.925A4.924,4.924,0,0,0,559.481,129.928Z" transform="translate(-472.834 -25.933)" fill="#d66"/>
            <path id="Trazado_46026" data-name="Trazado 46026" d="M601.856,129.928a4.925,4.925,0,1,0-4.924,4.925A4.925,4.925,0,0,0,601.856,129.928Z" transform="translate(-476.809 -25.933)" fill="#305387"/>
            <path id="Trazado_46027" data-name="Trazado 46027" d="M623.044,93.486a4.925,4.925,0,1,0-4.925,4.924A4.924,4.924,0,0,0,623.044,93.486Z" transform="translate(-478.797 -22.514)" fill="#305387"/>
            <path id="Trazado_46028" data-name="Trazado 46028" d="M601.856,57.044a4.925,4.925,0,1,0-4.924,4.924A4.925,4.925,0,0,0,601.856,57.044Z" transform="translate(-476.809 -19.096)" fill="#305387"/>
          </g>
          <g id="Grupo_17680" data-name="Grupo 17680" transform="translate(0 67.96)">
            <g id="Grupo_17678" data-name="Grupo 17678" transform="translate(0 0)">
              <g id="Grupo_17659" data-name="Grupo 17659" transform="translate(50.473)">
                <g id="Grupo_17658" data-name="Grupo 17658" transform="translate(88.569)">
                  <g id="Grupo_17655" data-name="Grupo 17655" transform="translate(0 2.211)">
                    <path id="Trazado_46029" data-name="Trazado 46029" d="M527.81,105.742a28.738,28.738,0,0,1,4.389,3.045c.953,1.049,4.008,5.946,2.089,6.77s-4.7-1.111-4.723-2.883S527.81,105.742,527.81,105.742Z" transform="translate(-493.143 -88.478)" fill="#ea997d"/>
                    <path id="Trazado_46030" data-name="Trazado 46030" d="M533.357,110.432a12.217,12.217,0,0,0-1.158-1.646,28.738,28.738,0,0,0-4.389-3.045s.746,2.226,1.264,4.255A4.879,4.879,0,0,1,533.357,110.432Z" transform="translate(-493.143 -88.478)" fill="#d87e66"/>
                    <path id="Trazado_46031" data-name="Trazado 46031" d="M526.666,99.206a28.777,28.777,0,0,1,4.389,3.045c.953,1.049,1.678,5.955-.24,6.779s-3.466-1.224-3.491-3S526.666,99.206,526.666,99.206Z" transform="translate(-493.035 -87.865)" fill="#ea997d"/>
                    <path id="Trazado_46032" data-name="Trazado 46032" d="M531.25,102.528a1.735,1.735,0,0,0-.195-.277,28.777,28.777,0,0,0-4.389-3.045s.176,1.4.344,2.984A7.316,7.316,0,0,1,531.25,102.528Z" transform="translate(-493.035 -87.865)" fill="#d87e66"/>
                    <path id="Trazado_46033" data-name="Trazado 46033" d="M523.282,92.076a28.843,28.843,0,0,1,4.389,3.045c.953,1.049,1.679,5.955-.24,6.78s-3.466-1.225-3.491-3S523.282,92.076,523.282,92.076Z" transform="translate(-492.718 -87.196)" fill="#ea997d"/>
                    <path id="Trazado_46034" data-name="Trazado 46034" d="M527.671,95.121a28.843,28.843,0,0,0-4.389-3.045s.176,1.4.345,2.987A4.48,4.48,0,0,1,527.671,95.121Z" transform="translate(-492.718 -87.196)" fill="#d87e66"/>
                    <path id="Trazado_46035" data-name="Trazado 46035" d="M498.169,100.324s3.742-3.479,6.173-5.377a110.068,110.068,0,0,1,13.384-7.578c1.3-.44,4.5,26.1,4.5,26.1s-5.454,4.12-7.122,5.038c0,0-8.506,8.387-13.152,8.2-3.1-.127-10.487-1.892-12.4-9.423Z" transform="translate(-489.554 -86.754)" fill="#ea997d"/>
                    <path id="Trazado_46036" data-name="Trazado 46036" d="M522.541,113.465s-3.2-26.537-4.5-26.1a110.058,110.058,0,0,0-13.384,7.578c-2.431,1.9-6.173,5.377-6.173,5.377l-5.6,11.017L501.637,118s2.112-2.255,1.844-11.08c0,0,5.357-3.667,5.587-3.7a25.409,25.409,0,0,1,2.883.357,29.4,29.4,0,0,1,1.8,5.23c.5,2.062,1.045,6.387,1.876,9.557C519.3,115.836,522.541,113.465,522.541,113.465Z" transform="translate(-489.866 -86.754)" fill="#d87e66"/>
                    <path id="Trazado_46037" data-name="Trazado 46037" d="M522.694,86.709a4.991,4.991,0,0,1,2.977,3.027c.576,2.181-1,4.22-3.423,3.291S520,86.327,522.694,86.709Z" transform="translate(-492.461 -86.691)" fill="#ea997d"/>
                  </g>
                  <g id="Grupo_17656" data-name="Grupo 17656" transform="translate(19.186)">
                    <path id="Trazado_46038" data-name="Trazado 46038" d="M513.119,90.931l16.466,45.155a4.024,4.024,0,0,0,5.145,2.433l.262-.093a4.025,4.025,0,0,0,2.432-5.146L520.958,88.125Z" transform="translate(-510.951 -84.614)" fill="#efe9e8"/>
                    <rect id="Rectángulo_5672" data-name="Rectángulo 5672" width="10.547" height="4.441" transform="translate(0 3.556) rotate(-19.703)" fill="#d8cfce"/>
                    <path id="Trazado_46039" data-name="Trazado 46039" d="M518.762,104.258,530.7,136.774a3.215,3.215,0,0,0,4.111,1.944l.217-.078a3.216,3.216,0,0,0,1.944-4.111l-11.08-30.17Z" transform="translate(-511.48 -86.128)" fill="#678edb"/>
                    <path id="Trazado_46040" data-name="Trazado 46040" d="M535.658,133.817a.521.521,0,0,1-.326.661l-.141.048a.521.521,0,0,1-.661-.327L520.147,93.046a.521.521,0,0,1,.326-.662l.141-.048a.521.521,0,0,1,.661.326Z" transform="translate(-511.607 -85.007)" fill="#fff"/>
                  </g>
                  <g id="Grupo_17657" data-name="Grupo 17657" transform="translate(0 9.087)">
                    <path id="Trazado_46041" data-name="Trazado 46041" d="M489.554,117.926s1.538-10.828,3.711-13.306,10.76-7.008,10.76-7.008,7.162-3.172,8.883-3.33c1.351-.125,5.86,3.558-5.509,7.584l-5.157,5.79s1.407,9.375-1.837,12.128C498.675,121.252,491.624,122.226,489.554,117.926Z" transform="translate(-489.554 -94.279)" fill="#ea997d"/>
                    <path id="Trazado_46042" data-name="Trazado 46042" d="M514.629,94.347a12.6,12.6,0,0,0-2.626,1.2c-.223.342.587,2.317,1.285,2.169a10.156,10.156,0,0,0,2.763-1.189,5.426,5.426,0,0,1-2.792,1.411c-.742.158-1.754-1.8-1.469-2.391S514.629,94.347,514.629,94.347Z" transform="translate(-491.635 -94.285)" fill="#e08a73"/>
                  </g>
                </g>
                <path id="Trazado_46043" data-name="Trazado 46043" d="M489.062,120.374l-4.748,18.869,16.64,6.775,2.378-16.773Z" transform="translate(-400.494 -87.64)" fill="#ea997d"/>
                <path id="Trazado_46044" data-name="Trazado 46044" d="M475.012,134.869s20.546,8.157,29.6,15.533c0,0-4.652,12.132-6.519,19.233s-3.226,53.515-6.831,57.05-58.761,23.98-64.822,24.693c0,0-32.456-4.621-34.365-31.768-.813-11.557-.024-15.164,7.72-15.75s19.493,5.026,19.493,5.026l39.05-7.428.991-1.9,2.382.951v-3.329l2.568-.95S472.6,143.161,475.012,134.869Z" transform="translate(-391.817 -88.999)" fill="#d8cfce"/>
                <path id="Trazado_46045" data-name="Trazado 46045" d="M498.166,152.01l14.829,8.545-2.982,8.637-14.025-6.47Z" transform="translate(-401.589 -90.607)" fill="#c9bebd"/>
                <path id="Trazado_46046" data-name="Trazado 46046" d="M465.558,208.81l4.279,5.231s3.506,8.26,3.506,8.438-2.734-9.033-2.734-9.033Z" transform="translate(-398.734 -95.936)" fill="#bcadac"/>
                <path id="Trazado_46047" data-name="Trazado 46047" d="M469.3,207.7l6,7.845,9.39,6.536-7.7-8.379Z" transform="translate(-399.085 -95.831)" fill="#bcadac"/>
                <path id="Trazado_46048" data-name="Trazado 46048" d="M472.247,202.711l5.289.951,6.181,3.981Z" transform="translate(-399.362 -95.364)" fill="#bcadac"/>
              </g>
              <path id="Trazado_46049" data-name="Trazado 46049" d="M391.7,198.729l20.833,18.511s15.542,32.337,20.177,42.321,31.847,84.04,31.847,84.04H390.271Z" transform="translate(-341.198 -94.99)" fill="#c6bab9"/>
              <g id="Grupo_17676" data-name="Grupo 17676" transform="translate(0 5.394)">
                <g id="Grupo_17660" data-name="Grupo 17660" transform="translate(23.156 69.21)">
                  <path id="Trazado_46050" data-name="Trazado 46050" d="M361.671,214.838l32.262,5.6,8.218-48.26-32.26-5.6Z" transform="translate(-361.671 -166.578)" fill="#ea997d"/>
                  <path id="Trazado_46051" data-name="Trazado 46051" d="M403.9,172.342l-3.812,22.387c-4.533-3.716-11.621-7.194-19.749-26.4Z" transform="translate(-363.422 -166.743)" fill="#d87e66"/>
                </g>
                <path id="Trazado_46052" data-name="Trazado 46052" d="M379.06,98.566s21.76-5.384,30.522,21.337c2.487,7.588,2.343,15.08,5.54,18.429,5.346,5.6,11.323,8.267,8.6,11.6a9.5,9.5,0,0,1-3.032,2.568,4.539,4.539,0,0,0-.271,3.523c.079.264,1.017,1.508,1.1,1.787.387,1.233-1.152,2.642-1.152,2.642.027.469,1.06.935,1.059,2.637,0,1.154-1.338,2.107-1.283,2.594.674,5.973,2.149,11.117-3.259,12.713-7.792,2.3-23.643,2.077-36.726-6.229-4.786-3.038-10.79-6.648-14.93-10.93-11.378-11.78-30.792-41.082-2.345-57.474C367.054,101.361,372.635,100.462,379.06,98.566Z" transform="translate(-337.244 -90.946)" fill="#ea997d"/>
                <g id="Grupo_17661" data-name="Grupo 17661" transform="translate(56.24 38.168)">
                  <path id="Trazado_46053" data-name="Trazado 46053" d="M399.454,139.437a1.039,1.039,0,0,1-.769-.089.948.948,0,0,1-.348-1.394c1.134-2.373,5.693-6.762,11.315-5.362a1.153,1.153,0,0,1,.9,1.315c-.114.613-.706.776-1.314.9a20.81,20.81,0,0,0-8.868,4.118A3.717,3.717,0,0,1,399.454,139.437Z" transform="translate(-398.181 -132.322)" fill="#6d311f"/>
                </g>
                <path id="Trazado_46054" data-name="Trazado 46054" d="M409.758,142.794c.455,1.541,1.517,2.586,2.373,2.333s1.179-1.706.725-3.248-1.518-2.59-2.372-2.338S409.3,141.25,409.758,142.794Z" transform="translate(-343.007 -94.828)" fill="#23242b"/>
                <path id="Trazado_46055" data-name="Trazado 46055" d="M427.135,166.89a11.352,11.352,0,0,1-1.2-.17c-.333-.088-3.03,1.7-5.24,2.385,0,0-.061-.269-.154-.253a4.221,4.221,0,0,0-.3,1.226c-.016.23.512.384.491-.371a47.489,47.489,0,0,0,5.069-2.156S427.242,167.573,427.135,166.89Z" transform="translate(-344.01 -97.381)" fill="#d87e66"/>
                <g id="Grupo_17671" data-name="Grupo 17671">
                  <path id="Trazado_46056" data-name="Trazado 46056" d="M384.4,92.267s6.036-1.615,8.431-1.909,10.309-.324,13.731,3.819c1.927,2.332-2.684,15.058-4.991,17.851s-3.8,16.61-10.959,14.606c0,0-2.272,8.31-9.165,11.076,0,0,.453,3.107,1.07,5.715a62.714,62.714,0,0,0,2.1,7.309l-3.907-2.038a122.8,122.8,0,0,1-6.146,12.3c-2.769,4.488-9.177,13.83-9.177,13.83s-12.7-12.354-19.195-18.972a8.78,8.78,0,0,1-5.346-3.9c-2.418-3.479-3.055-1.57-3.436-5.77s-4.532-27.928,4.378-34.177,12.092-18.643,18.966-17.537c0,0,14.038-4.268,17.694-4.268C379.516,90.2,384.4,92.267,384.4,92.267Z" transform="translate(-336.118 -90.203)" fill="#6d311f"/>
                  <g id="Grupo_17670" data-name="Grupo 17670" transform="translate(8.568 0.919)">
                    <g id="Grupo_17662" data-name="Grupo 17662" transform="translate(22.92 2.028)">
                      <path id="Trazado_46057" data-name="Trazado 46057" d="M371.247,124.313a.381.381,0,0,1-.239-.679c11.722-9.432,16.115-29.673,16.157-29.876a.382.382,0,0,1,.748.159c-.044.206-4.495,20.712-16.427,30.312A.378.378,0,0,1,371.247,124.313Z" transform="translate(-370.865 -93.455)" fill="#5b2519"/>
                    </g>
                    <g id="Grupo_17663" data-name="Grupo 17663" transform="translate(6.501 47.363)">
                      <path id="Trazado_46058" data-name="Trazado 46058" d="M353.128,155.093a.381.381,0,0,1-.329-.575c3.038-5.186,9.507-8.86,16.1-9.14a60.221,60.221,0,0,0,11.778-1.882.381.381,0,1,1,.2.735,61,61,0,0,1-11.95,1.91c-6.341.269-12.558,3.792-15.47,8.764A.384.384,0,0,1,353.128,155.093Z" transform="translate(-352.746 -143.483)" fill="#5b2519"/>
                    </g>
                    <g id="Grupo_17664" data-name="Grupo 17664" transform="translate(45.704 2.326)">
                      <path id="Trazado_46059" data-name="Trazado 46059" d="M396.389,126.46a.335.335,0,0,1-.089-.011.381.381,0,0,1-.283-.46c.046-.192,4.579-19.341,2.057-31.747a.382.382,0,1,1,.749-.152c2.555,12.572-2.016,31.885-2.063,32.078A.383.383,0,0,1,396.389,126.46Z" transform="translate(-396.007 -93.784)" fill="#5b2519"/>
                    </g>
                    <g id="Grupo_17665" data-name="Grupo 17665" transform="translate(52.323 5.363)">
                      <path id="Trazado_46060" data-name="Trazado 46060" d="M407.654,112.3a.391.391,0,0,1-.381-.382c-.232-9.159-3.849-14.118-3.886-14.166a.386.386,0,0,1,.078-.537.38.38,0,0,1,.534.076c.155.207,3.8,5.189,4.038,14.609a.387.387,0,0,1-.372.4Z" transform="translate(-403.312 -97.135)" fill="#5b2519"/>
                    </g>
                    <g id="Grupo_17666" data-name="Grupo 17666" transform="translate(1.336 13.089)">
                      <path id="Trazado_46061" data-name="Trazado 46061" d="M347.5,154.317a.383.383,0,0,1-.379-.335c-.023-.19-2.112-19,17.255-21.694,18.787-2.613,28.876-26.154,28.975-26.392a.382.382,0,1,1,.7.3c-.1.241-10.361,24.181-29.574,26.853-18.631,2.591-16.624,20.662-16.6,20.844a.382.382,0,0,1-.332.426Z" transform="translate(-347.047 -105.661)" fill="#5b2519"/>
                    </g>
                    <g id="Grupo_17667" data-name="Grupo 17667" transform="translate(0 33.509)">
                      <path id="Trazado_46062" data-name="Trazado 46062" d="M345.963,153.765a.453.453,0,0,1-.381-.434c-.011-.184-.849-18.457,15.126-25.1a.369.369,0,1,1,.293.677c-15.481,6.44-14.667,24.21-14.657,24.388.012.21-.149.472-.36.472Z" transform="translate(-345.572 -128.195)" fill="#5b2519"/>
                    </g>
                    <g id="Grupo_17668" data-name="Grupo 17668" transform="translate(9.74)">
                      <path id="Trazado_46063" data-name="Trazado 46063" d="M356.7,125.961a.382.382,0,0,1-.179-.719c15.649-8.237,24.113-33.508,24.2-33.762a.382.382,0,1,1,.726.238c-.085.257-8.648,25.82-24.567,34.2A.385.385,0,0,1,356.7,125.961Z" transform="translate(-356.321 -91.217)" fill="#5b2519"/>
                    </g>
                    <g id="Grupo_17669" data-name="Grupo 17669" transform="translate(19.887 21.384)">
                      <path id="Trazado_46064" data-name="Trazado 46064" d="M367.9,142.2a.382.382,0,0,1-.073-.757c16.169-3.16,24.683-26.145,24.767-26.377a.382.382,0,0,1,.718.261c-.085.236-8.75,23.624-25.339,26.866A.4.4,0,0,1,367.9,142.2Z" transform="translate(-367.518 -114.814)" fill="#5b2519"/>
                    </g>
                  </g>
                </g>
                <g id="Grupo_17673" data-name="Grupo 17673" transform="translate(38.451 47.048)">
                  <path id="Trazado_46065" data-name="Trazado 46065" d="M404.539,154.359s-19.75-2.679-23.283-1.867-4.756,14.068,3.574,17.834,20.655,5.335,20.655,5.335l.214-1.888s-12.241-1.478-20.038-4.7-5.963-15.35-3.872-15.434,22.594,2.526,22.594,2.526Z" transform="translate(-378.549 -143.08)" fill="#ddd2d0"/>
                  <path id="Trazado_46066" data-name="Trazado 46066" d="M420.8,142.121a174.117,174.117,0,0,0-14.311,11.3,20.355,20.355,0,0,0-2.44,13.373c1.237,7.753,10.134,15.217,17.1,16.63a12.741,12.741,0,0,0,4.619-3.152,59.889,59.889,0,0,0,5.363-9.191c.582-1.632-.531-17.8-1.579-20.414S420.8,142.121,420.8,142.121Z" transform="translate(-380.918 -142.121)" fill="#efe9e8"/>
                  <path id="Trazado_46067" data-name="Trazado 46067" d="M423.341,143.276l-6.111,4.845s-.747.6-.186,1.169,1.184-.112,1.184-.112l6.236-4.978Z" transform="translate(-382.141 -142.229)" fill="#a39493"/>
                  <g id="Grupo_17672" data-name="Grupo 17672" transform="translate(24.51 7.759)">
                    <path id="Trazado_46068" data-name="Trazado 46068" d="M422,182.942a.365.365,0,0,1-.063,0c-3.084-.4-14.046-6.968-15.859-14.433a19.9,19.9,0,0,1,2.083-13.881l.077-.089,4.523-3.77a.356.356,0,1,1,.457.547l-4.476,3.73c-.344.6-3.609,6.554-1.972,13.294,1.746,7.188,12.292,13.506,15.259,13.895a.356.356,0,0,1-.03.71Z" transform="translate(-405.596 -150.683)" fill="#ddd2d0"/>
                  </g>
                  <path id="Trazado_46069" data-name="Trazado 46069" d="M410.74,160.848s13.635-2.39,17.938-3.295A62.993,62.993,0,0,0,410.74,160.848Z" transform="translate(-381.569 -143.569)" fill="#ddd2d0"/>
                  <path id="Trazado_46070" data-name="Trazado 46070" d="M430.154,172.157s-13.833-.549-18.229-.575A62.967,62.967,0,0,0,430.154,172.157Z" transform="translate(-381.68 -144.885)" fill="#ddd2d0"/>
                </g>
                <g id="Grupo_17674" data-name="Grupo 17674" transform="translate(33.456 34.123)">
                  <path id="Trazado_46071" data-name="Trazado 46071" d="M416.783,129.943l4.9,12.631a104.7,104.7,0,0,1-8.929,5.9l-23.116-2.78Z" transform="translate(-374.595 -128.054)" fill="#dfe8ef" opacity="0.6"/>
                  <path id="Trazado_46072" data-name="Trazado 46072" d="M413.83,147.311l-5.777-8.191A14.463,14.463,0,0,0,413.83,147.311Z" transform="translate(-376.322 -128.914)" fill="#fff"/>
                  <path id="Trazado_46073" data-name="Trazado 46073" d="M376.844,150.9s15.994-9.632,21.723-13.172,16.337-9.873,16.337-9.873l.821,2.123s-12.756,7.672-15.508,9.414c-2.161,1.369-21.726,12.447-21.726,12.447a24.193,24.193,0,0,0-2.81,9.464s-2.7,1.012-2.643-1.667S376.844,150.9,376.844,150.9Z" transform="translate(-373.037 -127.858)" fill="#a39493"/>
                </g>
                <g id="Grupo_17675" data-name="Grupo 17675" transform="translate(34.017 55.728)">
                  <path id="Trazado_46074" data-name="Trazado 46074" d="M386.515,166.382s-.926,7.8-5.283,6.269-5.3-7.314-5.3-7.314Z" transform="translate(-373.87 -152.979)" opacity="0.1"/>
                  <path id="Trazado_46075" data-name="Trazado 46075" d="M384.236,154.466s-2.393-4.062-8.139-2.341c-5.554,1.666-.629,15.8,4.845,17.166s5.625-6.2,5.625-6.2Z" transform="translate(-373.656 -151.7)" fill="#ea997d"/>
                  <path id="Trazado_46076" data-name="Trazado 46076" d="M384.086,162.341s-3.186-.417-1.088-3.41-4.632-6.39-6.916-4.378c-1.528,1.094-.836,3.607-.619,4.489,0,0,.054-3.8,1.52-3.949s5.66.865,5.25,2.667-2.792,2.445-1.708,4.738S384.7,164.121,384.086,162.341Z" transform="translate(-373.793 -151.911)" fill="#d87e66"/>
                </g>
              </g>
              <g id="Grupo_17677" data-name="Grupo 17677" transform="translate(8.024 101.746)">
                <path id="Trazado_46077" data-name="Trazado 46077" d="M360.3,196.674s12.239-1.02,18.122,2.367,41.043,53.694,45.857,62.609,30.678,78.892,31.035,81.745H358.565s-13.674-51.153-13.592-67.006c.09-17.019,13.414-66.576,13.414-66.576l-1.783-1.284Z" transform="translate(-344.973 -196.53)" fill="#efe9e8"/>
                <path id="Trazado_46078" data-name="Trazado 46078" d="M362.913,211.7s18.729,3.923,22.3,8.2,6.716,12.956,6.716,12.956l5.23-4.755.773,10.995s22.048,23.95,24.009,26.445,17.651,36.192,17.651,36.192-17.055-32.21-19.315-35.063-23.89-24.187-23.89-24.187l-1.308-10.639-3.447,2.973s-4.992-11.174-7.964-13.789S362.913,211.7,362.913,211.7Z" transform="translate(-346.656 -197.953)" fill="#d8cfce"/>
                <path id="Trazado_46079" data-name="Trazado 46079" d="M374.159,346.384,356.628,274.8s4.892-45.478,16.025-46.311,25.159,2.608,46.553,74.874l18.9,43.019Z" transform="translate(-346.066 -199.52)" fill="#d8cfce"/>
                <path id="Trazado_46080" data-name="Trazado 46080" d="M372.773,228.415s18.352-3.058,34.734,47.929c14.229,44.289,26.319,70.038,26.319,70.038H379.39s-17.359-51.886-18.785-59.7S350.965,231.153,372.773,228.415Z" transform="translate(-346.186 -199.518)" fill="#efe9e8"/>
              </g>
            </g>
            <g id="Grupo_17679" data-name="Grupo 17679" transform="translate(0 9.593)" opacity="0.2">
              <path id="Trazado_46081" data-name="Trazado 46081" d="M374.54,307.177l5.953-8.917-4.517-13.552-11.408-18.9s-13.452-29.585-2.686-44.853L367,203.325l-1.6-1.415,2.5-15.132,3.562.787,1.232-23.182s-9.093-9.5-12.292-13.853,1.386-8.677,1.386-8.677l-3.457,1.952a11.819,11.819,0,0,1,3.8-7.481h-4.042s3.216-3.5,6.481-4.323l-6.419.613s1.069-6.014,2.168-7.288l-5.692.276s7.123-4.907,9.4-7.613c0,0-5.9.323-9.6-.985s.218-7.965,1.407-10.224.34-6.864,4.924-11.872C353.884,93.8,350.7,106.2,341.792,112.443s-4.759,29.976-4.378,34.176,1.019,2.291,3.436,5.77a8.78,8.78,0,0,0,5.346,3.9c5.772,5.885,16.448,16.3,18.745,18.534l-2.073,12.167c-2.037.027-3.4.14-3.4.14l-3.692,11.86,1.783,1.293s-13.325,49.541-13.414,66.561c-.082,15.854,13.592,67.006,13.592,67.006h32.9l-6.073-20.638Z" transform="translate(-336.118 -94.837)"/>
            </g>
          </g>
        </g>
        <path id="Trazado_46082" data-name="Trazado 46082" d="M517.741,103.309a51.412,51.412,0,0,0,29-.921l8.228,22.976s-13.559,5.608-28.414,1.841Z" transform="translate(-279.616 -22.216)" fill="#dae7ef"/>
        <path id="Trazado_46083" data-name="Trazado 46083" d="M528.522,111.254a49.085,49.085,0,0,1-6.206-.345.906.906,0,1,1,.25-1.795,50.375,50.375,0,0,0,6.936.32,51.35,51.35,0,0,0,15.014-2.387.906.906,0,1,1,.573,1.719,53.2,53.2,0,0,1-15.6,2.48Q528.994,111.254,528.522,111.254Z" transform="translate(-279.458 -22.683)" fill="#305387"/>
        <path id="Trazado_46084" data-name="Trazado 46084" d="M530.845,118.512a49.092,49.092,0,0,1-6.206-.345.906.906,0,0,1,.25-1.8h0a50.347,50.347,0,0,0,6.936.32A51.356,51.356,0,0,0,546.84,114.3a.906.906,0,0,1,.573,1.719,53.2,53.2,0,0,1-15.6,2.48C531.483,118.509,531.159,118.512,530.845,118.512Z" transform="translate(-279.907 -23.24)" fill="#305387"/>
        <path id="Trazado_46085" data-name="Trazado 46085" d="M533.328,125.028a49.08,49.08,0,0,1-6.206-.345.906.906,0,1,1,.25-1.795,50.375,50.375,0,0,0,6.936.32,51.356,51.356,0,0,0,15.015-2.387.906.906,0,0,1,.573,1.719,53.207,53.207,0,0,1-15.6,2.48Q533.8,125.028,533.328,125.028Z" transform="translate(-280.386 -23.74)" fill="#305387"/>
      </g>
    </g>
    <rect id="Rectángulo_39832" data-name="Rectángulo 39832" width="505" height="327" transform="translate(915 3454)" fill="none"/>
  </g>
</svg>
