<svg xmlns="http://www.w3.org/2000/svg" width="460.836" height="638.457" viewBox="0 0 460.836 638.457">
  <g id="Grupo_108425" data-name="Grupo 108425" transform="translate(-908.791 -3886)">
    <text id="Deben_ser_diligenciados_justo_antes_o_inmediatamente_después_de_la_toma_de_muestras." data-name="Deben ser diligenciados justo antes o inmediatamente después de la toma de muestras." transform="translate(943.627 3890.457)" fill="#12263f" font-size="16" font-family="Roboto-Regular, Roboto"><tspan x="0" y="17">Deben ser diligenciados justo antes o inmediatamente </tspan><tspan x="0" y="41">después de la toma de muestras.</tspan></text>
    <g id="Grupo_17119" data-name="Grupo 17119" transform="translate(404.791 2420)">
      <rect id="rectangle" width="30" height="30" transform="translate(504 1466)" fill="none"/>
      <path id="path" d="M8.6,7.75,10.35,6l7.5,7.5L10.35,21,8.6,19.25l5.75-5.75Z" transform="translate(506.15 1467.5)" fill="#367ea4" fill-rule="evenodd"/>
    </g>
    <text id="Deben_fijarse_en_el_recipiente_de_tal_forma_que_se_asegure_que_no_se_borrará_o_perderá_la_información." data-name="Deben fijarse en el recipiente de tal forma que se asegure que no se borrará o perderá la información." transform="translate(943.627 3980.457)" fill="#12263f" font-size="16" font-family="Roboto-Regular, Roboto"><tspan x="0" y="17">Deben fijarse en el recipiente de tal forma que se asegure </tspan><tspan x="0" y="41">que no se borrará o perderá la información.</tspan></text>
    <g id="Grupo_17119-2" data-name="Grupo 17119" transform="translate(404.791 2510)">
      <rect id="rectangle-2" data-name="rectangle" width="30" height="30" transform="translate(504 1466)" fill="none"/>
      <path id="path-2" data-name="path" d="M8.6,7.75,10.35,6l7.5,7.5L10.35,21,8.6,19.25l5.75-5.75Z" transform="translate(506.15 1467.5)" fill="#367ea4" fill-rule="evenodd"/>
    </g>
    <line id="Línea_273" data-name="Línea 273" x2="222" transform="translate(1003.5 3962.5)" fill="none" stroke="#367ea4" stroke-width="3"/>
    <text id="Debe_ser_totalmente_legible_no_realizar_tachones_." data-name="Debe ser totalmente legible (no realizar tachones)." transform="translate(943.627 4061.457)" fill="#12263f" font-size="16" font-family="Roboto-Regular, Roboto"><tspan x="0" y="17">Debe ser totalmente legible (no realizar tachones).</tspan></text>
    <g id="Grupo_17119-3" data-name="Grupo 17119" transform="translate(404.791 2590)">
      <rect id="rectangle-3" data-name="rectangle" width="30" height="30" transform="translate(504 1466)" fill="none"/>
      <path id="path-3" data-name="path" d="M8.6,7.75,10.35,6l7.5,7.5L10.35,21,8.6,19.25l5.75-5.75Z" transform="translate(506.15 1467.5)" fill="#367ea4" fill-rule="evenodd"/>
    </g>
    <line id="Línea_274" data-name="Línea 274" x2="222" transform="translate(1003.5 4043.5)" fill="none" stroke="#367ea4" stroke-width="3"/>
    <text id="La_información_mínima_que_debe_contener_según_el_ICONTEC_GTC_100_es:_si_aplica_se_debe_especificar_el_código_del_proyecto_las_consideraciones_de_seguridad_y_el_código_del_cronograma_por_otro_lado_siempre_debe_contener_el_nombre_de_identificación_de_la_" data-name="La información mínima que debe contener según el ICONTEC GTC 100 es: si aplica, se debe especificar el código del proyecto, las consideraciones de seguridad y el código del cronograma, por otro lado siempre debe contener, el nombre de identificación de la " transform="translate(943.627 4121.457)" fill="#12263f" font-size="16" font-family="Roboto-Regular, Roboto"><tspan x="0" y="17">La información mínima que debe contener según el </tspan><tspan x="0" y="41">ICONTEC GTC 100 es: si aplica, se debe especificar el </tspan><tspan x="0" y="65">código del proyecto, las consideraciones de seguridad y el </tspan><tspan x="0" y="89">código del cronograma, por otro lado siempre debe </tspan><tspan x="0" y="113">contener, el nombre de identificación de la muestra, la </tspan><tspan x="0" y="137">identificación de la ubicación del muestreo, el punto de </tspan><tspan x="0" y="161">muestreo y el intervalo de tiempo del mismo (fecha y hora), </tspan><tspan x="0" y="185">tipo de muestreo, la empresa o nombre de la persona que </tspan><tspan x="0" y="209">realiza la toma, parámetros medidos in situ (p.5)</tspan></text>
    <g id="Grupo_17119-4" data-name="Grupo 17119" transform="translate(404.791 2650)">
      <rect id="rectangle-4" data-name="rectangle" width="30" height="30" transform="translate(504 1466)" fill="none"/>
      <path id="path-4" data-name="path" d="M8.6,7.75,10.35,6l7.5,7.5L10.35,21,8.6,19.25l5.75-5.75Z" transform="translate(506.15 1467.5)" fill="#367ea4" fill-rule="evenodd"/>
    </g>
    <line id="Línea_275" data-name="Línea 275" x2="222" transform="translate(1003.5 4103.5)" fill="none" stroke="#367ea4" stroke-width="3"/>
    <text id="Para_muestras_microbiológicas_aparte_de_los_mencionado_anteriormente_se_debe_complementar_la_información_con_la_preservación_realizada_se_debe_consignar_en_el_momento_del_alistamiento_de_los_recipientes_en_el_laboratorio_ya_que_la_adición_del_preservante" data-name="Para muestras microbiológicas aparte de los mencionado anteriormente se debe complementar la información con la preservación realizada (se debe consignar en el momento del alistamiento de los recipientes en el laboratorio, ya que la adición del preservante" transform="translate(943.627 4371.457)" fill="#12263f" font-size="16" font-family="Roboto-Regular, Roboto"><tspan x="0" y="17">Para muestras microbiológicas aparte de los mencionado </tspan><tspan x="0" y="41">anteriormente se debe complementar la información con la </tspan><tspan x="0" y="65">preservación realizada (se debe consignar en el momento </tspan><tspan x="0" y="89">del alistamiento de los recipientes en el laboratorio, ya que </tspan><tspan x="0" y="113">la adición del preservante se adiciona antes del proceso de </tspan><tspan x="0" y="137">esterilización de los frascos).</tspan></text>
    <g id="Grupo_17119-5" data-name="Grupo 17119" transform="translate(404.791 2900)">
      <rect id="rectangle-5" data-name="rectangle" width="30" height="30" transform="translate(504 1466)" fill="none"/>
      <path id="path-5" data-name="path" d="M8.6,7.75,10.35,6l7.5,7.5L10.35,21,8.6,19.25l5.75-5.75Z" transform="translate(506.15 1467.5)" fill="#367ea4" fill-rule="evenodd"/>
    </g>
    <line id="Línea_276" data-name="Línea 276" x2="222" transform="translate(1003.5 4353.5)" fill="none" stroke="#367ea4" stroke-width="3"/>
  </g>
</svg>
