<svg xmlns="http://www.w3.org/2000/svg" xmlns:xlink="http://www.w3.org/1999/xlink" width="190" height="64.975" viewBox="0 0 190 64.975">
  <defs>
    <clipPath id="clip-path">
      <rect id="Rectángulo_8067" data-name="Rectángulo 8067" width="55.552" height="64.975" fill="none"/>
    </clipPath>
  </defs>
  <g id="Grupo_78895" data-name="Grupo 78895" transform="translate(-1020 -2815.693)">
    <path id="Trazado_156979" data-name="Trazado 156979" d="M6.786,0H183.214C186.962,0,190,2.239,190,5V35c0,2.761-3.038,5-6.786,5H6.786C3.038,40,0,37.761,0,35V5C0,2.239,3.038,0,6.786,0Z" transform="translate(1020 2831.182)" fill="#f6d4b9"/>
    <text id="Enlace_web_" data-name="Enlace web " transform="translate(1045 2856.182)" fill="#12263f" font-size="15" font-family="Roboto-Bold, Roboto" font-weight="700" letter-spacing="0.02em"><tspan x="0" y="0">Enlace web </tspan></text>
    <g id="Grupo_78493" data-name="Grupo 78493" transform="translate(1140 2815.693)">
      <g id="Grupo_70163" data-name="Grupo 70163" clip-path="url(#clip-path)">
        <path id="Trazado_156561" data-name="Trazado 156561" d="M8.406,2.417H27.323c7.051-4.76,25.808,7.163,25.808,16V62.856H8.406Z" transform="translate(0 0)" fill="#fff"/>
        <path id="Trazado_156562" data-name="Trazado 156562" d="M39.375,0H11.986A5.358,5.358,0,0,0,6.668,5.384V59.591a5.358,5.358,0,0,0,5.318,5.384H50.234a5.358,5.358,0,0,0,5.318-5.384V16.373ZM52.56,59.591a2.348,2.348,0,0,1-2.33,2.359H11.987a2.348,2.348,0,0,1-2.33-2.359V5.384a2.348,2.348,0,0,1,2.33-2.36H38.134l.015.015V17.617h14.4l.009.009Z" transform="translate(0 0)" fill="#537e39"/>
        <path id="Trazado_156563" data-name="Trazado 156563" d="M3.48,21.466H35.958a3.44,3.44,0,0,1,3.48,3.4V52.056a3.44,3.44,0,0,1-3.48,3.4H3.48A3.44,3.44,0,0,1,0,52.056V24.865a3.44,3.44,0,0,1,3.48-3.4" transform="translate(0 0)" fill="#537e39"/>
        <path id="Trazado_156564" data-name="Trazado 156564" d="M14.152,48.456a6.539,6.539,0,0,1-4.679-11.1l2.338-2.338a1.279,1.279,0,1,1,1.809,1.809l-2.314,2.314A3.98,3.98,0,1,0,17,44.7l2.243-2.243a1.279,1.279,0,0,1,1.809,1.809l-2.232,2.232a6.485,6.485,0,0,1-4.588,1.961h-.083m10.463-8.283a1.28,1.28,0,0,1-.9-2.185l2.32-2.321a3.979,3.979,0,0,0-.077-5.622,4.056,4.056,0,0,0-2.828-1.129,3.956,3.956,0,0,0-2.8,1.2l-2.244,2.244a1.279,1.279,0,0,1-1.809-1.809l2.232-2.232a6.539,6.539,0,0,1,9.353,9.141L25.52,39.8a1.275,1.275,0,0,1-.9.375" transform="translate(1.054 1.054)" fill="#fff"/>
        <path id="Trazado_156565" data-name="Trazado 156565" d="M16.339,42.309a1.28,1.28,0,0,1-.9-2.185l5.949-5.949a1.279,1.279,0,0,1,1.809,1.809l-5.949,5.949a1.275,1.275,0,0,1-.9.375" transform="translate(0.406 0.406)" fill="#fff"/>
      </g>
    </g>
  </g>
</svg>
