<svg xmlns="http://www.w3.org/2000/svg" xmlns:xlink="http://www.w3.org/1999/xlink" width="820" height="291.869" viewBox="0 0 820 291.869">
  <defs>
    <clipPath id="clip-path">
      <rect id="Rectángulo_5174" data-name="Rectángulo 5174" width="505" height="257.737" fill="none"/>
    </clipPath>
    <clipPath id="clip-path-2">
      <rect id="Rectángulo_5441" data-name="Rectángulo 5441" width="440.648" height="192.156" fill="none"/>
    </clipPath>
  </defs>
  <g id="Grupo_78875" data-name="Grupo 78875" transform="translate(-390 -6280)">
    <g id="Grupo_78538" data-name="Grupo 78538">
      <g id="Grupo_78497" data-name="Grupo 78497" transform="translate(0 5094)">
        <g id="Grupo_78307" data-name="Grupo 78307" transform="translate(549 1220.132)">
          <g id="Grupo_78306" data-name="Grupo 78306" clip-path="url(#clip-path)">
            <path id="Trazado_100625" data-name="Trazado 100625" d="M252.5,0C113.049,0,0,113.047,0,252.5H505C505,113.047,391.951,0,252.5,0" fill="#f6d4b9"/>
            <path id="Trazado_100626" data-name="Trazado 100626" d="M339.876,34.46l-142.591,208.4h252.5A252.214,252.214,0,0,0,339.876,34.46" transform="translate(55.215 9.644)" fill="#d3c8c8"/>
            <path id="Trazado_100627" data-name="Trazado 100627" d="M0,242.856H252.5L109.909,34.46A252.217,252.217,0,0,0,0,242.856" transform="translate(0 9.644)" fill="#d8e1ca"/>
            <path id="Trazado_100628" data-name="Trazado 100628" d="M248.48,125.864A126.708,126.708,0,0,0,121.772,252.572H375.188A126.708,126.708,0,0,0,248.48,125.864" transform="translate(4.478 0.157)" fill="#fff"/>
          </g>
        </g>
        <circle id="Elipse_4053" data-name="Elipse 4053" cx="41.5" cy="41.5" r="41.5" transform="translate(970 1314)" fill="#d3c8c8"/>
        <circle id="Elipse_4058" data-name="Elipse 4058" cx="41.5" cy="41.5" r="41.5" transform="translate(548 1314)" fill="#d8e1ca"/>
        <circle id="Elipse_4060" data-name="Elipse 4060" cx="42.5" cy="42.5" r="42.5" transform="translate(758 1186)" fill="#f6d4b9"/>
        <circle id="Elipse_4056" data-name="Elipse 4056" cx="35" cy="35" r="35" transform="translate(976 1320)" fill="#fff"/>
        <circle id="Elipse_4057" data-name="Elipse 4057" cx="35" cy="35" r="35" transform="translate(554 1320)" fill="#fff"/>
        <circle id="Elipse_4059" data-name="Elipse 4059" cx="36" cy="36" r="36" transform="translate(764 1192)" fill="#fff"/>
        <path id="Trazado_100629" data-name="Trazado 100629" d="M-6994.052-10228.624h281.4" transform="translate(7922.648 11701)" fill="none" stroke="#707070" stroke-width="1"/>
        <path id="Trazado_100630" data-name="Trazado 100630" d="M-6994.053-10228.624h285.2" transform="translate(7384.052 11701)" fill="none" stroke="#707070" stroke-width="1"/>
      </g>
      <text id="Medidas_de_Reparación" data-name="Medidas de Reparación" transform="translate(574 6495.869)" fill="#12263f" font-size="17" font-family="Roboto-Bold, Roboto" font-weight="700"><tspan x="2.199" y="18">Medidas de </tspan><tspan x="3.353" y="38">Reparación</tspan></text>
      <text id="_01" data-name="01" transform="translate(649 6475.869)" fill="#a8bc8b" font-size="17" font-family="Roboto-Bold, Roboto" font-weight="700"><tspan x="-9.753" y="18">01</tspan></text>
      <text id="_03" data-name="03" transform="translate(931 6475.869)" fill="#b4a5a5" font-size="17" font-family="Roboto-Bold, Roboto" font-weight="700"><tspan x="-9.753" y="18">03</tspan></text>
      <text id="_02" data-name="02" transform="translate(821.5 6354)" fill="#f1a67e" font-size="17" font-family="Roboto-Bold, Roboto" font-weight="700"><tspan x="-9.753" y="18">02</tspan></text>
      <text id="Medidas_de_compensación" data-name="Medidas de compensación" transform="translate(928 6495.869)" fill="#12263f" font-size="17" font-family="Roboto-Bold, Roboto" font-weight="700"><tspan x="14.199" y="18">Medidas de </tspan><tspan x="2.582" y="38">compensación</tspan></text>
      <text id="Medidas_de_mitigación" data-name="Medidas de mitigación" transform="translate(741.5 6373.5)" fill="#12263f" font-size="17" font-family="Roboto-Bold, Roboto" font-weight="700"><tspan x="14.199" y="18">Medidas de </tspan><tspan x="18.1" y="38">mitigación</tspan></text>
      <text id="Medidas_de_control_y_mitigación" data-name="Medidas de control y mitigación" transform="translate(753.5 6490.869)" fill="#a8bc8b" font-size="17" font-family="Roboto-Bold, Roboto" font-weight="700"><tspan x="2.199" y="18">Medidas de </tspan><tspan x="13.235" y="38">control y </tspan><tspan x="6.1" y="58">mitigación</tspan></text>
      <g id="administracion" transform="translate(565.997 6425.935)">
        <g id="Grupo_78508" data-name="Grupo 78508" transform="translate(0 0)">
          <g id="Grupo_78507" data-name="Grupo 78507">
            <g id="Grupo_78506" data-name="Grupo 78506">
              <g id="Grupo_78505" data-name="Grupo 78505">
                <path id="Trazado_157106" data-name="Trazado 157106" d="M45.468,17.842,41.2,16.794c-.2-.553-.434-1.107-.7-1.657l2.224-3.708a1.362,1.362,0,0,0-.205-1.664l-5.78-5.78a1.362,1.362,0,0,0-1.664-.205L31.368,6c-.55-.262-1.1-.494-1.657-.7L28.663,1.037A1.363,1.363,0,0,0,27.34,0H19.165a1.363,1.363,0,0,0-1.323,1.037L16.794,5.308c-.553.2-1.107.434-1.657.7L11.429,3.779a1.362,1.362,0,0,0-1.664.205l-5.78,5.78a1.362,1.362,0,0,0-.205,1.664L6,15.137c-.262.55-.494,1.1-.7,1.657L1.037,17.842A1.363,1.363,0,0,0,0,19.165V27.34a1.363,1.363,0,0,0,1.037,1.323l4.271,1.048c.2.553.434,1.107.7,1.657L3.779,35.076a1.362,1.362,0,0,0,.205,1.664l5.78,5.78a1.362,1.362,0,0,0,1.664.205L15.137,40.5c.55.262,1.1.494,1.657.7L17.8,45.309l.039.159a1.363,1.363,0,0,0,1.323,1.037l4.36-4.36,3.815,4.36a1.363,1.363,0,0,0,1.323-1.037l.039-.159L29.712,41.2c.553-.2,1.107-.434,1.657-.7l3.708,2.224a1.362,1.362,0,0,0,1.664-.205l5.78-5.78a1.362,1.362,0,0,0,.205-1.664L40.5,31.368c.262-.55.494-1.1.7-1.657l4.271-1.048a1.363,1.363,0,0,0,1.037-1.323V19.165a1.363,1.363,0,0,0-1.037-1.323Z" transform="translate(0 0)" fill="#a8bc8b"/>
              </g>
            </g>
          </g>
        </g>
        <path id="Trazado_157107" data-name="Trazado 157107" d="M278.215,17.842l-4.271-1.048c-.2-.553-.434-1.107-.7-1.657l2.224-3.708a1.362,1.362,0,0,0-.205-1.664l-5.78-5.78a1.362,1.362,0,0,0-1.664-.205L264.116,6c-.55-.262-1.1-.494-1.657-.7l-1.048-4.271A1.363,1.363,0,0,0,260.087,0H256V42.418l.272-.272,3.815,4.36a1.363,1.363,0,0,0,1.323-1.037l.039-.159,1.009-4.112c.553-.2,1.107-.434,1.657-.7l3.708,2.224a1.362,1.362,0,0,0,1.664-.205l5.78-5.78a1.362,1.362,0,0,0,.205-1.664l-2.224-3.708c.262-.55.494-1.1.7-1.657l4.271-1.048a1.363,1.363,0,0,0,1.037-1.323V19.165a1.363,1.363,0,0,0-1.037-1.323Z" transform="translate(-232.747)" fill="#537e39"/>
        <g id="Grupo_78510" data-name="Grupo 78510" transform="translate(17.803 31.995)">
          <g id="Grupo_78509" data-name="Grupo 78509">
            <path id="Trazado_157108" data-name="Trazado 157108" d="M205.537,352.25h-8.175A1.362,1.362,0,0,0,196,353.612v11.952l.039.159a1.363,1.363,0,0,0,1.323,1.037h8.175a1.363,1.363,0,0,0,1.323-1.037l.039-.159V353.612A1.362,1.362,0,0,0,205.537,352.25Z" transform="translate(-196 -352.25)" fill="#f6d4b9"/>
          </g>
        </g>
        <path id="Trazado_157109" data-name="Trazado 157109" d="M260.087,352.25H256v14.51h4.087a1.363,1.363,0,0,0,1.323-1.037l.039-.159V353.612A1.362,1.362,0,0,0,260.087,352.25Z" transform="translate(-232.747 -320.255)" fill="#f1a67e"/>
        <g id="Admin_1_" transform="translate(10.991 11.786)">
          <g id="Grupo_78512" data-name="Grupo 78512">
            <g id="Grupo_78511" data-name="Grupo 78511">
              <path id="Trazado_157110" data-name="Trazado 157110" d="M133.262,153.484a12.264,12.264,0,0,1-4.6-23.629,1.363,1.363,0,0,1,1.875,1.262v9.375l2.725,1.817,2.725-1.817v-9.375a1.363,1.363,0,0,1,1.875-1.262,12.262,12.262,0,0,1-4.6,23.629Zm4.087-12.262h0Z" transform="translate(-121 -129.755)" fill="#f6d4b9"/>
            </g>
          </g>
        </g>
        <path id="Trazado_157111" data-name="Trazado 157111" d="M268.262,141.222a12.28,12.28,0,0,0-7.662-11.367,1.363,1.363,0,0,0-1.875,1.262v9.375L256,142.31v11.175A12.276,12.276,0,0,0,268.262,141.222Z" transform="translate(-232.747 -117.97)" fill="#f1a67e"/>
      </g>
      <g id="grafico-de-barras" transform="translate(778.5 6297.066)">
        <rect id="Rectángulo_8135" data-name="Rectángulo 8135" width="43" height="2.24" transform="translate(0 43.425)" fill="#acb3ba"/>
        <rect id="Rectángulo_8136" data-name="Rectángulo 8136" width="6.629" height="16.215" transform="translate(1.792 25.418)" fill="#cdd6e0"/>
        <rect id="Rectángulo_8137" data-name="Rectángulo 8137" width="6.629" height="24.009" transform="translate(10.034 17.625)" fill="#f6d4b9"/>
        <rect id="Rectángulo_8138" data-name="Rectángulo 8138" width="6.629" height="20.335" transform="translate(18.185 21.298)" fill="#afafaf"/>
        <rect id="Rectángulo_8139" data-name="Rectángulo 8139" width="6.629" height="12.631" transform="translate(26.427 28.912)" fill="#f1a67e"/>
        <rect id="Rectángulo_8140" data-name="Rectángulo 8140" width="6.629" height="26.785" transform="translate(34.579 14.758)" fill="#537e39"/>
        <path id="Trazado_157112" data-name="Trazado 157112" d="M63.3,29.008,50.673,16.377,39.654,27.4,38.4,26.142,50.673,13.869,63.3,26.5,73.7,16.109l1.254,1.254Z" transform="translate(-35.175 -9.771)" fill="#cdd6e0"/>
        <g id="Grupo_78513" data-name="Grupo 78513" transform="translate(1.613 3.202)">
          <circle id="Elipse_4067" data-name="Elipse 4067" cx="2.24" cy="2.24" r="2.24" transform="translate(0 11.556)" fill="#40596b"/>
          <circle id="Elipse_4068" data-name="Elipse 4068" cx="2.24" cy="2.24" r="2.24" transform="translate(11.646)" fill="#40596b"/>
          <circle id="Elipse_4069" data-name="Elipse 4069" cx="2.24" cy="2.24" r="2.24" transform="translate(24.188 12.631)" fill="#40596b"/>
          <circle id="Elipse_4070" data-name="Elipse 4070" cx="2.24" cy="2.24" r="2.24" transform="translate(35.296 1.523)" fill="#40596b"/>
        </g>
      </g>
      <g id="equilibrar" transform="translate(986.5 6401.704)">
        <g id="Grupo_78514" data-name="Grupo 78514" transform="translate(37.01 34.894)">
          <path id="Trazado_157113" data-name="Trazado 157113" d="M440.852,155.389a.772.772,0,0,1-.712-.473l-5.265-12.53a.771.771,0,0,1,1.422-.6l5.265,12.53a.772.772,0,0,1-.711,1.07Z" transform="translate(-428.415 -141.316)" fill="#c3c8d1"/>
          <path id="Trazado_157114" data-name="Trazado 157114" d="M371.474,155.389a.772.772,0,0,1-.711-1.07l5.265-12.53a.771.771,0,0,1,1.422.6l-5.265,12.53A.771.771,0,0,1,371.474,155.389Z" transform="translate(-370.703 -141.316)" fill="#c3c8d1"/>
        </g>
        <g id="Grupo_78515" data-name="Grupo 78515" transform="translate(8.87 30.032)">
          <path id="Trazado_157115" data-name="Trazado 157115" d="M103.232,97.014v-.708h0a4.15,4.15,0,0,1-1.835-3.446c0-.031,0-.061,0-.092a40.118,40.118,0,0,0-12.56,3.458,1.539,1.539,0,0,1,.18.723c0,.022,0,.043,0,.064Z" transform="translate(-88.841 -92.753)" fill="#9e6b57"/>
          <path id="Trazado_157116" data-name="Trazado 157116" d="M290.058,96.17a40.089,40.089,0,0,0-12.886-3.558c0,.036,0,.071,0,.107a4.15,4.15,0,0,1-1.833,3.446h0v.708h14.581c0-.022,0-.043,0-.064A1.541,1.541,0,0,1,290.058,96.17Z" transform="translate(-256.721 -92.612)" fill="#9e6b57"/>
        </g>
        <g id="Grupo_78516" data-name="Grupo 78516" transform="translate(8.87 32.27)">
          <path id="Trazado_157117" data-name="Trazado 157117" d="M101.988,115.028H91.817c-1.021.373-2.016.785-2.976,1.236a1.539,1.539,0,0,1,.18.723c0,.022,0,.043,0,.065h14.214v-.708h0A4.178,4.178,0,0,1,101.988,115.028Z" transform="translate(-88.841 -115.028)" fill="#875848"/>
          <path id="Trazado_157118" data-name="Trazado 157118" d="M286.9,115.028H276.586a4.174,4.174,0,0,1-1.244,1.315h0v.708h14.581c0-.022,0-.043,0-.065a1.539,1.539,0,0,1,.139-.638C289.04,115.865,287.983,115.424,286.9,115.028Z" transform="translate(-256.722 -115.028)" fill="#875848"/>
        </g>
        <path id="Trazado_157119" data-name="Trazado 157119" d="M233.242,128.91a4.121,4.121,0,0,1-2.32-.711v26.148h4.641V128.2A4.12,4.12,0,0,1,233.242,128.91Z" transform="translate(-207.868 -94.614)" fill="#ad7b64"/>
        <path id="Trazado_157120" data-name="Trazado 157120" d="M230.922,128.2v26.148h2.114V128.9A4.116,4.116,0,0,1,230.922,128.2Z" transform="translate(-207.868 -94.614)" fill="#9e6b57"/>
        <path id="Trazado_157121" data-name="Trazado 157121" d="M371.629,276.886H366.8a5.1,5.1,0,0,1-5.085-5.086h0a1.006,1.006,0,0,1,1.006-1.006h12.992a1.006,1.006,0,0,1,1.006,1.006h0A5.1,5.1,0,0,1,371.629,276.886Z" transform="translate(-325.598 -222.973)" fill="#f1a67e"/>
        <path id="Trazado_157122" data-name="Trazado 157122" d="M415.951,116.06a2.318,2.318,0,1,1,2.318-2.318A2.321,2.321,0,0,1,415.951,116.06Zm0-3.094a.775.775,0,1,0,.776.776A.776.776,0,0,0,415.951,112.966Z" transform="translate(-372.337 -79.513)" fill="#e4eaf8"/>
        <path id="Trazado_157123" data-name="Trazado 157123" d="M240.553,25.986a4.14,4.14,0,0,1,1.51.284V24.264a1.172,1.172,0,0,0-1.172-1.172h-.675a1.172,1.172,0,0,0-1.172,1.172v2.006A4.139,4.139,0,0,1,240.553,25.986Z" transform="translate(-215.178 -0.001)" fill="#ad7b64"/>
        <path id="Trazado_157124" data-name="Trazado 157124" d="M240.553,24.263a1.172,1.172,0,0,1,.755-1.094,1.167,1.167,0,0,0-.418-.078h-.674a1.172,1.172,0,0,0-1.172,1.172V26.27a4.142,4.142,0,0,1,1.51-.284V24.263Z" transform="translate(-215.178)" fill="#9e6b57"/>
        <path id="Trazado_157125" data-name="Trazado 157125" d="M215.785,51.054a4.256,4.256,0,1,0,4.256,4.256A4.261,4.261,0,0,0,215.785,51.054Z" transform="translate(-190.411 -25.171)" fill="#e4eaf8"/>
        <g id="Grupo_78517" data-name="Grupo 78517" transform="translate(21.118 25.883)">
          <path id="Trazado_157126" data-name="Trazado 157126" d="M213.587,55.309a4.264,4.264,0,0,1,3.228-4.13,4.256,4.256,0,1,0,0,8.26A4.263,4.263,0,0,1,213.587,55.309Z" transform="translate(-211.53 -51.053)" fill="#d8dce5"/>
          <circle id="Elipse_4071" data-name="Elipse 4071" cx="1.51" cy="1.51" r="1.51" transform="translate(2.747 2.747)" fill="#d8dce5"/>
        </g>
        <g id="Grupo_78518" data-name="Grupo 78518" transform="translate(0.898 28.63)">
          <path id="Trazado_157127" data-name="Trazado 157127" d="M241.1,80.077a1.5,1.5,0,0,1,.481-1.1,1.51,1.51,0,1,0,0,2.206A1.5,1.5,0,0,1,241.1,80.077Z" transform="translate(-216.075 -78.567)" fill="#c3c8d1"/>
          <path id="Trazado_157128" data-name="Trazado 157128" d="M79.143,155.389a.772.772,0,0,1-.712-.473l-5.265-12.53a.771.771,0,0,1,1.422-.6l5.265,12.53a.772.772,0,0,1-.711,1.07Z" transform="translate(-66.706 -135.051)" fill="#c3c8d1"/>
          <path id="Trazado_157129" data-name="Trazado 157129" d="M9.765,155.389a.772.772,0,0,1-.711-1.07l5.265-12.53a.771.771,0,0,1,1.422.6l-5.265,12.53A.772.772,0,0,1,9.765,155.389Z" transform="translate(-8.994 -135.052)" fill="#c3c8d1"/>
        </g>
        <path id="Trazado_157130" data-name="Trazado 157130" d="M9.919,276.886H5.085A5.1,5.1,0,0,1,0,271.8H0a1.006,1.006,0,0,1,1.006-1.006H14A1.006,1.006,0,0,1,15,271.8h0A5.1,5.1,0,0,1,9.919,276.886Z" transform="translate(0 -222.973)" fill="#537e39"/>
        <path id="Trazado_157131" data-name="Trazado 157131" d="M363.846,271.8a1.006,1.006,0,0,1,1.006-1.006h-2.137a1.006,1.006,0,0,0-1.006,1.006,5.1,5.1,0,0,0,5.086,5.086h2.137A5.1,5.1,0,0,1,363.846,271.8Z" transform="translate(-325.597 -222.973)" fill="#f6d4b9"/>
        <path id="Trazado_157132" data-name="Trazado 157132" d="M2.137,271.8a1.006,1.006,0,0,1,1.006-1.006H1.006A1.006,1.006,0,0,0,0,271.8a5.1,5.1,0,0,0,5.086,5.086H7.222A5.1,5.1,0,0,1,2.137,271.8Z" transform="translate(0 -222.973)" fill="#a8bc8b"/>
        <path id="Trazado_157133" data-name="Trazado 157133" d="M54.241,116.06a2.318,2.318,0,1,1,2.318-2.318A2.321,2.321,0,0,1,54.241,116.06Zm0-3.094a.775.775,0,1,0,.776.776A.776.776,0,0,0,54.241,112.966Z" transform="translate(-46.739 -79.513)" fill="#e4eaf8"/>
        <path id="Trazado_157134" data-name="Trazado 157134" d="M179.417,388.871h-7.157a5.123,5.123,0,0,0-5.108,5.108v1.011h17.374v-1.011A5.123,5.123,0,0,0,179.417,388.871Z" transform="translate(-150.463 -329.262)" fill="#ad7b64"/>
        <g id="Grupo_78519" data-name="Grupo 78519" transform="translate(15.005 59.609)">
          <path id="Trazado_157135" data-name="Trazado 157135" d="M174.316,388.871h-2.057a5.123,5.123,0,0,0-5.108,5.108v1.011h2.057v-1.011A5.123,5.123,0,0,1,174.316,388.871Z" transform="translate(-165.468 -388.871)" fill="#9e6b57"/>
          <path id="Trazado_157136" data-name="Trazado 157136" d="M169.8,449.887H151.525a1.238,1.238,0,0,0-1.234,1.234v1.427a1.238,1.238,0,0,0,1.234,1.234H169.8a1.238,1.238,0,0,0,1.234-1.234v-1.427A1.238,1.238,0,0,0,169.8,449.887Z" transform="translate(-150.291 -443.795)" fill="#9e6b57"/>
        </g>
        <path id="Trazado_157137" data-name="Trazado 157137" d="M169.8,460.617H151.525a1.239,1.239,0,0,1-1.206-.974,1.223,1.223,0,0,0-.028.26v1.427a1.238,1.238,0,0,0,1.234,1.234H169.8a1.238,1.238,0,0,0,1.234-1.234V459.9a1.23,1.23,0,0,0-.028-.26A1.239,1.239,0,0,1,169.8,460.617Z" transform="translate(-135.286 -392.968)" fill="#875848"/>
      </g>
    </g>
  </g>
</svg>
