<svg xmlns="http://www.w3.org/2000/svg" xmlns:xlink="http://www.w3.org/1999/xlink" width="400.188" height="134.115" viewBox="0 0 400.188 134.115">
  <defs>
    <clipPath id="clip-path">
      <rect id="Rectángulo_12010" data-name="Rectángulo 12010" width="400.188" height="134.115" fill="none"/>
    </clipPath>
  </defs>
  <g id="Grupo_78886" data-name="Grupo 78886" transform="translate(-600 -2411.447)">
    <g id="Grupo_78862" data-name="Grupo 78862" transform="translate(600 2411.447)">
      <path id="Trazado_160224" data-name="Trazado 160224" d="M216.679,99.35l24.614-52.822V99.35Z" transform="translate(77.075 16.55)" fill="#a1aaad"/>
      <path id="Trazado_160225" data-name="Trazado 160225" d="M259.451,99.35,234.836,46.528V99.35Z" transform="translate(83.533 16.55)" fill="#727777"/>
      <g id="Grupo_78861" data-name="Grupo 78861" transform="translate(0 0)">
        <g id="Enmascarar_grupo_78860" data-name="Enmascarar grupo 78860" clip-path="url(#clip-path)">
          <path id="Trazado_160226" data-name="Trazado 160226" d="M230.331,59.684c1.291,0,.987-.047,2.278-.047s1.765-2.236,3.054-2.236,1.9,5.1,3.191,5.1-.942-3.757.348-3.757,2.752,2.343,4.04,2.343l-6.8-14.558Z" transform="translate(81.931 16.55)" fill="#fff"/>
          <path id="Trazado_160227" data-name="Trazado 160227" d="M234.836,98.813,259.451,45.99V98.813Z" transform="translate(83.533 16.359)" fill="#a1aaad"/>
          <path id="Trazado_160228" data-name="Trazado 160228" d="M277.607,98.813,252.993,45.99V98.813Z" transform="translate(89.992 16.359)" fill="#727777"/>
          <path id="Trazado_160229" data-name="Trazado 160229" d="M248.488,59.147c1.291,0,.986-.047,2.276-.047s1.765-2.236,3.054-2.236,1.9,5.1,3.193,5.1-.942-3.757.347-3.757,2.752,2.341,4.04,2.341L254.6,45.99Z" transform="translate(88.389 16.359)" fill="#fff"/>
          <path id="Trazado_160230" data-name="Trazado 160230" d="M226.78,54.046a6.145,6.145,0,0,0-1.224.127,7.443,7.443,0,0,0-6.807-3.877A7.785,7.785,0,0,0,212.683,53a6.767,6.767,0,0,0-1.277-.123c-3.212,0-5.816,2.2-5.816,4.906a5.144,5.144,0,0,0,4.368,4.753V62.7H226.78c2.832,0,5.129-1.935,5.129-4.326s-2.3-4.326-5.129-4.326" transform="translate(73.13 17.891)" fill="#dceaf9"/>
          <path id="Trazado_160231" data-name="Trazado 160231" d="M282.525,36.368a7.188,7.188,0,0,0-1.453.152,8.843,8.843,0,0,0-8.087-4.605,9.241,9.241,0,0,0-7.2,3.217,8.044,8.044,0,0,0-1.518-.148c-3.814,0-6.906,2.611-6.906,5.83,0,2.72,2.207,5,5.187,5.642v.188h19.979c3.364,0,6.091-2.3,6.091-5.138s-2.728-5.138-6.091-5.138" transform="translate(91.545 11.352)" fill="#dceaf9"/>
          <path id="Trazado_160232" data-name="Trazado 160232" d="M238.746,26.687a2.12,2.12,0,0,0-.5.06,3.068,3.068,0,0,0-5.264-.541,2.762,2.762,0,0,0-.526-.056,2.327,2.327,0,0,0-2.381,2.271,2.291,2.291,0,0,0,1.785,2.2v.072h6.888a2,2,0,1,0,0-4" transform="translate(81.839 8.876)" fill="#dceaf9"/>
          <path id="Trazado_160233" data-name="Trazado 160233" d="M241.115,79.427a39.286,39.286,0,0,0-3.978-.216,37.339,37.339,0,0,0-11.126,1.857c-10.617,3.355-20.782,10.8-24.837,18.5H270.1c-4.927-10.88-15.889-18.8-28.981-20.146" transform="translate(71.559 28.176)" fill="#7aa102"/>
          <path id="Trazado_160234" data-name="Trazado 160234" d="M280.526,75.163a43.3,43.3,0,0,0-4.731-.279,41.263,41.263,0,0,0-13.23,2.4c-12.628,4.319-24.719,13.9-29.541,23.831h81.97a42.591,42.591,0,0,0-34.467-25.947" transform="translate(82.888 26.637)" fill="#4d5e08"/>
          <path id="Trazado_160235" data-name="Trazado 160235" d="M238.484,83.865a27.339,27.339,0,0,0-2.785-.152,26.134,26.134,0,0,0-7.79,1.3c-7.435,2.349-14.554,7.561-17.392,12.957H258.78a24.921,24.921,0,0,0-20.3-14.106" transform="translate(74.883 29.778)" fill="#4d5e08"/>
          <rect id="Rectángulo_11972" data-name="Rectángulo 11972" width="2.673" height="6.036" transform="translate(388.23 99.524)" fill="#ea711f"/>
          <path id="Trazado_160236" data-name="Trazado 160236" d="M271.59,85.456l13.06-12.527L297.71,85.456V102.5H271.59Z" transform="translate(96.607 25.942)" fill="#ffe6c5"/>
          <path id="Trazado_160237" data-name="Trazado 160237" d="M271.59,86.742V85.355l13.06-11.944L297.71,85.355v1.387L284.649,74.766Z" transform="translate(96.607 26.113)" fill="#cbcbcb"/>
          <path id="Trazado_160238" data-name="Trazado 160238" d="M271.092,95.944V95.3a.591.591,0,0,1,.621-.553H297.94a.59.59,0,0,1,.621.553v.647Z" transform="translate(96.43 33.701)" fill="#ea711f"/>
          <rect id="Rectángulo_11973" data-name="Rectángulo 11973" width="27.469" height="0.24" transform="translate(367.522 129.405)" fill="#ea711f"/>
          <rect id="Rectángulo_11974" data-name="Rectángulo 11974" width="7.867" height="10.58" transform="translate(382.592 114.681)" fill="#9fd6ed"/>
          <path id="Trazado_160239" data-name="Trazado 160239" d="M281.439,96.463h9.955V83.835h-9.955Zm1.044-11.6h7.867V95.44h-7.867Z" transform="translate(100.11 29.821)" fill="#0295a6"/>
          <path id="Trazado_160240" data-name="Trazado 160240" d="M282.209,84.787l7.867,5.931V92.43L282.209,86.5Z" transform="translate(100.384 30.16)" fill="#f1f1f1"/>
          <path id="Trazado_160241" data-name="Trazado 160241" d="M282.209,86.755l7.867,5.933V94.4l-7.867-5.933Z" transform="translate(100.384 30.86)" fill="#f1f1f1"/>
          <rect id="Rectángulo_11975" data-name="Rectángulo 11975" width="5.48" height="13.596" transform="translate(373.034 114.849)" fill="#493d47"/>
          <rect id="Rectángulo_11976" data-name="Rectángulo 11976" width="6.983" height="1.2" transform="translate(372.283 128.445)" fill="#1a1a1a"/>
          <path id="Trazado_160242" data-name="Trazado 160242" d="M275.694,89.962a.306.306,0,1,0,.305-.3.3.3,0,0,0-.305.3" transform="translate(98.067 31.893)" fill="#1a1a1a"/>
          <path id="Trazado_160243" data-name="Trazado 160243" d="M285.444,71.455l16.09,14.781h-2.984L285.444,74.544l-13.1,11.692h-2.983Z" transform="translate(95.813 25.417)" fill="#ea711f"/>
          <rect id="Rectángulo_11977" data-name="Rectángulo 11977" width="1.922" height="4.334" transform="translate(360.158 106.037)" fill="#ea711f"/>
          <path id="Trazado_160244" data-name="Trazado 160244" d="M255.048,86.866l9.38-9,9.381,9V99.109H255.048Z" transform="translate(90.723 27.699)" fill="#ffe6c5"/>
          <path id="Trazado_160245" data-name="Trazado 160245" d="M255.048,87.788v-1l9.38-8.578,9.381,8.578v1l-9.381-8.6Z" transform="translate(90.723 27.822)" fill="#cbcbcb"/>
          <path id="Trazado_160246" data-name="Trazado 160246" d="M254.69,94.4v-.464a.426.426,0,0,1,.446-.4h18.836a.425.425,0,0,1,.446.4V94.4Z" transform="translate(90.595 33.271)" fill="#ea711f"/>
          <rect id="Rectángulo_11978" data-name="Rectángulo 11978" width="19.728" height="0.174" transform="translate(345.287 127.496)" fill="#ea711f"/>
          <rect id="Rectángulo_11979" data-name="Rectángulo 11979" width="5.651" height="7.597" transform="translate(356.109 116.922)" fill="#9fd6ed"/>
          <path id="Trazado_160247" data-name="Trazado 160247" d="M262.121,94.772h7.149V85.7h-7.149Zm.75-8.335h5.651v7.6h-5.651Z" transform="translate(93.239 30.485)" fill="#0295a6"/>
          <path id="Trazado_160248" data-name="Trazado 160248" d="M262.674,86.385l5.651,4.26v1.23l-5.651-4.26Z" transform="translate(93.435 30.728)" fill="#f1f1f1"/>
          <path id="Trazado_160249" data-name="Trazado 160249" d="M262.674,87.8l5.651,4.261v1.23l-5.651-4.258Z" transform="translate(93.435 31.231)" fill="#f1f1f1"/>
          <rect id="Rectángulo_11980" data-name="Rectángulo 11980" width="3.938" height="9.762" transform="translate(349.243 117.045)" fill="#493d47"/>
          <rect id="Rectángulo_11981" data-name="Rectángulo 11981" width="5.017" height="0.864" transform="translate(348.704 126.806)" fill="#1a1a1a"/>
          <path id="Trazado_160250" data-name="Trazado 160250" d="M258,90.1a.22.22,0,0,0,.441,0,.22.22,0,0,0-.441,0" transform="translate(91.771 31.973)" fill="#1a1a1a"/>
          <path id="Trazado_160251" data-name="Trazado 160251" d="M265,76.81l11.553,10.617h-2.141L265,79.029l-9.413,8.4h-2.142Z" transform="translate(90.152 27.322)" fill="#ea711f"/>
          <rect id="Rectángulo_11982" data-name="Rectángulo 11982" width="2.104" height="4.746" transform="translate(316.302 105.345)" fill="#ea711f"/>
          <path id="Trazado_160252" data-name="Trazado 160252" d="M221.692,87.179l10.269-9.853,10.27,9.853v13.4H221.692Z" transform="translate(78.858 27.505)" fill="#ffe6c5"/>
          <path id="Trazado_160253" data-name="Trazado 160253" d="M221.692,88.188V87.1L231.961,77.7l10.27,9.391v1.093l-10.27-9.418Z" transform="translate(78.858 27.64)" fill="#cbcbcb"/>
          <path id="Trazado_160254" data-name="Trazado 160254" d="M221.3,95.423v-.508a.466.466,0,0,1,.491-.437h20.622a.465.465,0,0,1,.488.437v.508Z" transform="translate(78.718 33.607)" fill="#ea711f"/>
          <rect id="Rectángulo_11983" data-name="Rectángulo 11983" width="21.601" height="0.188" transform="translate(300.017 128.841)" fill="#ea711f"/>
          <rect id="Rectángulo_11984" data-name="Rectángulo 11984" width="6.186" height="8.317" transform="translate(311.868 117.265)" fill="#9fd6ed"/>
          <path id="Trazado_160255" data-name="Trazado 160255" d="M229.435,95.832h7.829V85.9h-7.829Zm.822-9.125h6.186v8.317h-6.186Z" transform="translate(81.612 30.557)" fill="#0295a6"/>
          <path id="Trazado_160256" data-name="Trazado 160256" d="M230.041,86.65l6.186,4.664v1.348L230.041,88Z" transform="translate(81.828 30.822)" fill="#f1f1f1"/>
          <path id="Trazado_160257" data-name="Trazado 160257" d="M230.041,88.2l6.186,4.664v1.348l-6.186-4.664Z" transform="translate(81.828 31.373)" fill="#f1f1f1"/>
          <rect id="Rectángulo_11985" data-name="Rectángulo 11985" width="4.31" height="10.688" transform="translate(304.351 117.396)" fill="#493d47"/>
          <rect id="Rectángulo_11986" data-name="Rectángulo 11986" width="5.491" height="0.945" transform="translate(303.763 128.085)" fill="#1a1a1a"/>
          <path id="Trazado_160258" data-name="Trazado 160258" d="M224.917,90.72a.241.241,0,1,0,.241-.239.24.24,0,0,0-.241.239" transform="translate(80.005 32.185)" fill="#1a1a1a"/>
          <path id="Trazado_160259" data-name="Trazado 160259" d="M232.586,76.166l12.65,11.624h-2.347l-10.3-9.193-10.3,9.193h-2.347Z" transform="translate(78.233 27.093)" fill="#ea711f"/>
          <path id="Trazado_160260" data-name="Trazado 160260" d="M204.639,97.534v-.423a.389.389,0,0,1,.408-.365h17.188a.388.388,0,0,1,.407.365v.423Z" transform="translate(72.792 34.413)" fill="#ea711f"/>
          <rect id="Rectángulo_11987" data-name="Rectángulo 11987" width="18.002" height="0.157" transform="translate(277.431 131.79)" fill="#ea711f"/>
          <rect id="Rectángulo_11988" data-name="Rectángulo 11988" width="4.577" height="0.788" transform="translate(280.55 131.159)" fill="#1a1a1a"/>
          <path id="Trazado_160261" data-name="Trazado 160261" d="M207.655,93.614a.2.2,0,1,0,.2-.2.2.2,0,0,0-.2.2" transform="translate(73.865 33.229)" fill="#1a1a1a"/>
          <rect id="Rectángulo_11989" data-name="Rectángulo 11989" width="1.753" height="3.956" transform="translate(291.003 108.915)" fill="#e85e21"/>
          <path id="Trazado_160262" data-name="Trazado 160262" d="M204.965,88.233l8.561-8.212,8.56,8.212V99.4H204.965Z" transform="translate(72.908 28.464)" fill="#ffe6c5"/>
          <path id="Trazado_160263" data-name="Trazado 160263" d="M204.965,89.073v-.91l8.561-7.825,8.56,7.825v.91l-8.56-7.848Z" transform="translate(72.908 28.577)" fill="#cbcbcb"/>
          <rect id="Rectángulo_11990" data-name="Rectángulo 11990" width="5.156" height="6.934" transform="translate(287.309 118.847)" fill="#9fd6ed"/>
          <path id="Trazado_160264" data-name="Trazado 160264" d="M211.42,95.445h6.525V87.17H211.42Zm.685-7.606h5.156v6.934H212.1Z" transform="translate(75.204 31.007)" fill="#0295a6"/>
          <path id="Trazado_160265" data-name="Trazado 160265" d="M211.925,87.792l5.156,3.888V92.8l-5.156-3.888Z" transform="translate(75.383 31.229)" fill="#f1f1f1"/>
          <path id="Trazado_160266" data-name="Trazado 160266" d="M211.925,89.083l5.156,3.888v1.123l-5.156-3.888Z" transform="translate(75.383 31.688)" fill="#f1f1f1"/>
          <rect id="Rectángulo_11991" data-name="Rectángulo 11991" width="3.593" height="8.908" transform="translate(281.042 118.958)" fill="#493d47"/>
          <path id="Trazado_160267" data-name="Trazado 160267" d="M214.046,79.055l10.543,9.687h-1.956l-8.587-7.661-8.588,7.661H203.5Z" transform="translate(72.387 28.121)" fill="#e85e21"/>
          <path id="Trazado_160268" data-name="Trazado 160268" d="M254.986,89.385c0,5.4-5.675,6.8-5.675,6.8s-5.675-1.4-5.675-6.8,5.675-12.745,5.675-12.745,5.675,7.348,5.675,12.745" transform="translate(86.663 27.262)" fill="#7aa102"/>
          <path id="Trazado_160269" data-name="Trazado 160269" d="M247.822,76.639V96.183s5.675-1.4,5.675-6.8-5.675-12.746-5.675-12.746" transform="translate(88.152 27.261)" fill="#4d5e08"/>
          <path id="Trazado_160270" data-name="Trazado 160270" d="M248.437,97.318a.485.485,0,1,1-.965,0v-12.7a.485.485,0,1,1,.965,0Z" transform="translate(88.028 29.909)" fill="#90654f"/>
          <path id="Trazado_160271" data-name="Trazado 160271" d="M247.829,84.082V97.851a.51.51,0,0,0,.483-.533v-12.7a.511.511,0,0,0-.483-.534" transform="translate(88.155 29.909)" fill="#90654f"/>
          <path id="Trazado_160272" data-name="Trazado 160272" d="M276.52,71c0,5.4-5.675,6.8-5.675,6.8s-5.676-1.4-5.676-6.8,5.676-12.745,5.676-12.745S276.52,65.6,276.52,71" transform="translate(94.323 20.722)" fill="#7aa102"/>
          <path id="Trazado_160273" data-name="Trazado 160273" d="M269.357,58.254V77.8s5.675-1.4,5.675-6.8-5.675-12.746-5.675-12.746" transform="translate(95.813 20.722)" fill="#4d5e08"/>
          <path id="Trazado_160274" data-name="Trazado 160274" d="M269.972,78.934a.485.485,0,1,1-.965,0V66.23a.485.485,0,1,1,.965,0Z" transform="translate(95.688 23.369)" fill="#90654f"/>
          <path id="Trazado_160275" data-name="Trazado 160275" d="M269.363,65.7v13.77a.51.51,0,0,0,.483-.531v-12.7a.511.511,0,0,0-.483-.534" transform="translate(95.815 23.369)" fill="#90654f"/>
          <path id="Trazado_160276" data-name="Trazado 160276" d="M49.8,102.632,72.585,45.441v57.192Z" transform="translate(17.714 16.164)" fill="#a1aaad"/>
          <path id="Trazado_160277" data-name="Trazado 160277" d="M89.394,102.632,66.607,45.441v57.192Z" transform="translate(23.693 16.164)" fill="#727777"/>
          <path id="Trazado_160278" data-name="Trazado 160278" d="M62.438,59.685c1.194,0,.914-.049,2.107-.049s1.632-2.423,2.828-2.423,1.76,5.518,2.955,5.518-.873-4.066.323-4.066S73.2,61.2,74.39,61.2l-6.3-15.759Z" transform="translate(22.21 16.164)" fill="#fff"/>
          <path id="Trazado_160279" data-name="Trazado 160279" d="M30.159,97.065,53.3,38.986V97.065Z" transform="translate(10.728 13.868)" fill="#a1aaad"/>
          <path id="Trazado_160280" data-name="Trazado 160280" d="M70.367,97.065,47.227,38.986V97.065Z" transform="translate(16.799 13.868)" fill="#727777"/>
          <path id="Trazado_160281" data-name="Trazado 160281" d="M43.475,51.8c1.071,0,.963,2.368,2.039,2.368s1.226-4.024,2.3-4.024,1.036,3.016,2.108,3.016.6-1.486,1.673-1.486,1.555,1.486,2.626,1.486L48.56,38.987Z" transform="translate(15.464 13.868)" fill="#fff"/>
          <path id="Trazado_160282" data-name="Trazado 160282" d="M60.317,77c-1.856-.137-3.73-.225-5.64-.225A70.8,70.8,0,0,0,38.9,78.7C23.848,82.182,9.433,89.906,3.685,97.9h97.729C94.428,86.613,78.882,78.4,60.317,77" transform="translate(1.311 27.309)" fill="#7aa102"/>
          <path id="Trazado_160283" data-name="Trazado 160283" d="M45.279,73c0,14.483-15.235,18.242-15.235,18.242S14.811,87.484,14.811,73,30.044,38.795,30.044,38.795,45.279,58.518,45.279,73" transform="translate(5.268 13.8)" fill="#7aa102"/>
          <path id="Trazado_160284" data-name="Trazado 160284" d="M26.046,38.795V91.243S41.281,87.485,41.281,73,26.046,38.795,26.046,38.795" transform="translate(9.265 13.8)" fill="#4d5e08"/>
          <path id="Trazado_160285" data-name="Trazado 160285" d="M27.7,94.292a1.3,1.3,0,1,1-2.595,0V60.2a1.3,1.3,0,1,1,2.595,0Z" transform="translate(8.931 20.906)" fill="#90654f"/>
          <path id="Trazado_160286" data-name="Trazado 160286" d="M26.064,58.772V95.72a1.368,1.368,0,0,0,1.3-1.429V60.2a1.368,1.368,0,0,0-1.3-1.429" transform="translate(9.271 20.906)" fill="#90654f"/>
          <path id="Trazado_160287" data-name="Trazado 160287" d="M21.973,82.849c0,7.622-8.015,9.6-8.015,9.6s-8.014-1.977-8.014-9.6,8.014-17.993,8.014-17.993,8.015,10.377,8.015,17.993" transform="translate(2.114 23.07)" fill="#7aa102"/>
          <path id="Trazado_160288" data-name="Trazado 160288" d="M11.854,64.856V92.447s8.015-1.978,8.015-9.6-8.015-17.993-8.015-17.993" transform="translate(4.217 23.07)" fill="#4d5e08"/>
          <path id="Trazado_160289" data-name="Trazado 160289" d="M12.726,94.051a.685.685,0,1,1-1.364,0V76.118a.685.685,0,1,1,1.364,0Z" transform="translate(4.042 26.807)" fill="#90654f"/>
          <path id="Trazado_160290" data-name="Trazado 160290" d="M11.865,75.364V94.8a.722.722,0,0,0,.682-.752V76.118a.721.721,0,0,0-.682-.754" transform="translate(4.22 26.808)" fill="#90654f"/>
          <path id="Trazado_160291" data-name="Trazado 160291" d="M55.165,74.631c0,7.892-8.3,9.939-8.3,9.939s-8.3-2.047-8.3-9.939,8.3-18.636,8.3-18.636,8.3,10.747,8.3,18.636" transform="translate(13.718 19.918)" fill="#7aa102"/>
          <path id="Trazado_160292" data-name="Trazado 160292" d="M44.685,55.995V84.569s8.3-2.047,8.3-9.939-8.3-18.636-8.3-18.636" transform="translate(15.895 19.918)" fill="#4d5e08"/>
          <path id="Trazado_160293" data-name="Trazado 160293" d="M45.589,86.23a.71.71,0,1,1-1.414,0V67.658a.71.71,0,1,1,1.414,0Z" transform="translate(15.713 23.789)" fill="#90654f"/>
          <path id="Trazado_160294" data-name="Trazado 160294" d="M44.7,66.877V87.009a.746.746,0,0,0,.706-.78V67.659a.748.748,0,0,0-.706-.782" transform="translate(15.899 23.789)" fill="#90654f"/>
          <path id="Trazado_160295" data-name="Trazado 160295" d="M92.727,72.551c0,10.162-10.687,12.8-10.687,12.8s-10.686-2.635-10.686-12.8S82.04,48.558,82.04,48.558,92.727,62.394,92.727,72.551" transform="translate(25.381 17.273)" fill="#7aa102"/>
          <path id="Trazado_160296" data-name="Trazado 160296" d="M79.236,48.559V85.35s10.687-2.635,10.687-12.8S79.236,48.559,79.236,48.559" transform="translate(28.185 17.273)" fill="#4d5e08"/>
          <path id="Trazado_160297" data-name="Trazado 160297" d="M80.4,87.488a.914.914,0,1,1-1.819,0V63.573a.914.914,0,1,1,1.819,0Z" transform="translate(27.951 22.257)" fill="#90654f"/>
          <path id="Trazado_160298" data-name="Trazado 160298" d="M79.249,62.57V88.494a.963.963,0,0,0,.908-1.006V63.575a.96.96,0,0,0-.908-1" transform="translate(28.19 22.257)" fill="#90654f"/>
          <path id="Trazado_160299" data-name="Trazado 160299" d="M124.26,71.894c0,15.08-15.862,18.992-15.862,18.992S92.54,86.973,92.54,71.894,108.4,36.286,108.4,36.286,124.26,56.82,124.26,71.894" transform="translate(32.917 12.907)" fill="#7aa102"/>
          <path id="Trazado_160300" data-name="Trazado 160300" d="M104.238,36.285v54.6S120.1,86.974,120.1,71.893s-15.862-35.608-15.862-35.608" transform="translate(37.078 12.907)" fill="#4d5e08"/>
          <path id="Trazado_160301" data-name="Trazado 160301" d="M105.961,94.06a1.356,1.356,0,1,1-2.7,0V58.571a1.356,1.356,0,1,1,2.7,0Z" transform="translate(36.731 20.303)" fill="#90654f"/>
          <path id="Trazado_160302" data-name="Trazado 160302" d="M104.258,57.079v38.47a1.426,1.426,0,0,0,1.349-1.487V58.572a1.427,1.427,0,0,0-1.349-1.493" transform="translate(37.085 20.304)" fill="#90654f"/>
          <path id="Trazado_160303" data-name="Trazado 160303" d="M99.439,77c-1.856-.137-3.728-.225-5.64-.225A70.8,70.8,0,0,0,78.024,78.7c-15.052,3.481-29.469,11.2-35.217,19.2h97.73C133.55,86.613,118,78.4,99.439,77" transform="translate(15.227 27.309)" fill="#7aa102"/>
          <path id="Trazado_160304" data-name="Trazado 160304" d="M73.89,81.6c-1.3-.1-2.611-.157-3.949-.157A49.412,49.412,0,0,0,58.895,82.8C48.353,85.231,38.258,90.639,34.233,96.24h68.435C97.776,88.336,86.89,82.585,73.89,81.6" transform="translate(12.177 28.971)" fill="#4d5e08"/>
          <path id="Trazado_160305" data-name="Trazado 160305" d="M49.073,78.831a35.565,35.565,0,0,0-3.606-.2,33.853,33.853,0,0,0-10.088,1.688c-9.627,3.048-18.846,9.807-22.524,16.809h62.5c-4.467-9.883-14.41-17.071-26.283-18.3" transform="translate(4.573 27.971)" fill="#7aa102"/>
          <path id="Trazado_160306" data-name="Trazado 160306" d="M98.637,30.911a5.047,5.047,0,0,0-1.049.115,6.339,6.339,0,0,0-5.842-3.536,6.5,6.5,0,0,0-5.2,2.471,5.45,5.45,0,0,0-1.1-.115,4.755,4.755,0,0,0-4.989,4.475,4.589,4.589,0,0,0,3.749,4.333V38.8h14.43a4.189,4.189,0,0,0,4.4-3.945,4.188,4.188,0,0,0-4.4-3.944" transform="translate(28.62 9.779)" fill="#dceaf9"/>
          <path id="Trazado_160307" data-name="Trazado 160307" d="M52.658,25.889a5.048,5.048,0,0,0-1.049.117,6.335,6.335,0,0,0-5.842-3.536,6.5,6.5,0,0,0-5.2,2.47,5.351,5.351,0,0,0-1.1-.114,4.756,4.756,0,0,0-4.99,4.474,4.591,4.591,0,0,0,3.749,4.333v.145h14.43a4.19,4.19,0,0,0,4.4-3.944,4.19,4.19,0,0,0-4.4-3.945" transform="translate(12.264 7.993)" fill="#dceaf9"/>
          <path id="Trazado_160308" data-name="Trazado 160308" d="M81.2,3.419a4.958,4.958,0,0,0-1.049.118A6.335,6.335,0,0,0,74.314,0a6.5,6.5,0,0,0-5.2,2.471,5.45,5.45,0,0,0-1.1-.115A4.755,4.755,0,0,0,63.026,6.83a4.589,4.589,0,0,0,3.749,4.333v.145H81.2a4.189,4.189,0,0,0,4.4-3.944,4.189,4.189,0,0,0-4.4-3.945" transform="translate(22.419 0)" fill="#dceaf9"/>
          <path id="Trazado_160309" data-name="Trazado 160309" d="M169.631,98.213,195.456,33.4V98.213Z" transform="translate(60.339 11.879)" fill="#a1aaad"/>
          <path id="Trazado_160310" data-name="Trazado 160310" d="M214.5,98.213,188.68,33.4V98.213Z" transform="translate(67.115 11.879)" fill="#727777"/>
          <path id="Trazado_160311" data-name="Trazado 160311" d="M183.954,49.54c1.353,0,1.036-.057,2.389-.057s1.849-2.744,3.2-2.744,2,6.254,3.35,6.254-.99-4.608.366-4.608,2.885,2.873,4.237,2.873L190.361,33.4Z" transform="translate(65.434 11.879)" fill="#fff"/>
          <path id="Trazado_160312" data-name="Trazado 160312" d="M161.374,93.255l18.3-45.921V93.255Z" transform="translate(57.402 16.837)" fill="#a1aaad"/>
          <path id="Trazado_160313" data-name="Trazado 160313" d="M193.166,93.255l-18.3-45.921V93.255Z" transform="translate(62.203 16.837)" fill="#727777"/>
          <path id="Trazado_160314" data-name="Trazado 160314" d="M171.9,57.463c.847,0,.762,1.874,1.612,1.874s.969-3.182,1.819-3.182.819,2.385,1.668,2.385.469-1.177,1.322-1.177,1.231,1.177,2.077,1.177l-4.477-11.2Z" transform="translate(61.147 16.837)" fill="#fff"/>
          <path id="Trazado_160315" data-name="Trazado 160315" d="M211.254,31.122a2.258,2.258,0,0,0-.6.087,3.658,3.658,0,0,0-3.362-2.528,3.524,3.524,0,0,0-2.989,1.769,2.685,2.685,0,0,0-.625-.08,3.048,3.048,0,0,0-2.871,3.2,3.151,3.151,0,0,0,2.153,3.094v.1h8.3a2.84,2.84,0,0,0,0-5.645" transform="translate(71.428 10.202)" fill="#dceaf9"/>
          <path id="Trazado_160316" data-name="Trazado 160316" d="M156.871,72.716c-2.41-.178-4.84-.29-7.321-.29a91.735,91.735,0,0,0-20.474,2.5c-19.541,4.516-38.251,14.54-45.716,24.921H210.215c-9.068-14.651-29.248-25.312-53.344-27.133" transform="translate(29.652 25.763)" fill="#7aa102"/>
          <path id="Trazado_160317" data-name="Trazado 160317" d="M207.652,72.716c-2.41-.178-4.84-.29-7.321-.29a91.746,91.746,0,0,0-20.475,2.5c-19.541,4.516-38.253,14.54-45.714,24.921H260.995c-9.07-14.651-29.248-25.312-53.343-27.133" transform="translate(47.715 25.763)" fill="#7aa102"/>
          <rect id="Rectángulo_11992" data-name="Rectángulo 11992" width="11.975" height="77.057" transform="translate(189.128 28.44)" fill="#3ba3af"/>
          <rect id="Rectángulo_11993" data-name="Rectángulo 11993" width="21.869" height="27.076" transform="translate(201.103 78.421)" fill="#235967"/>
          <rect id="Rectángulo_11994" data-name="Rectángulo 11994" width="14.32" height="4.035" transform="translate(204.747 74.388)" fill="#3ba3af"/>
          <rect id="Rectángulo_11995" data-name="Rectángulo 11995" width="9.109" height="27.334" transform="translate(207.093 47.054)" fill="#235967"/>
          <rect id="Rectángulo_11996" data-name="Rectángulo 11996" width="28.028" height="60.527" transform="translate(146.262 44.97)" fill="#848484"/>
          <rect id="Rectángulo_11997" data-name="Rectángulo 11997" width="7.549" height="4.555" transform="translate(163.096 48.354)" fill="#eaf4f9"/>
          <rect id="Rectángulo_11998" data-name="Rectángulo 11998" width="7.549" height="4.557" transform="translate(163.096 56.361)" fill="#eaf4f9"/>
          <rect id="Rectángulo_11999" data-name="Rectángulo 11999" width="9.109" height="2.602" transform="translate(207.093 61.894)" fill="#3ba3af"/>
          <rect id="Rectángulo_12000" data-name="Rectángulo 12000" width="9.109" height="2.798" transform="translate(207.093 56.361)" fill="#3ba3af"/>
          <rect id="Rectángulo_12001" data-name="Rectángulo 12001" width="9.109" height="2.474" transform="translate(207.093 49.657)" fill="#3ba3af"/>
          <rect id="Rectángulo_12002" data-name="Rectángulo 12002" width="9.109" height="2.278" transform="translate(207.093 68.465)" fill="#3ba3af"/>
          <path id="Trazado_160318" data-name="Trazado 160318" d="M134.4,13.232a6.917,6.917,0,0,0-1.5.168,9.066,9.066,0,0,0-8.358-5.06,9.309,9.309,0,0,0-7.444,3.533,7.779,7.779,0,0,0-1.571-.163c-3.942,0-7.138,2.869-7.138,6.4a6.572,6.572,0,0,0,5.363,6.2v.206H134.4c3.477,0,6.3-2.524,6.3-5.644s-2.82-5.645-6.3-5.645" transform="translate(38.554 2.967)" fill="#dceaf9"/>
          <rect id="Rectángulo_12003" data-name="Rectángulo 12003" width="14.014" height="60.527" transform="translate(146.37 45.167)" fill="#9fa4a5"/>
          <rect id="Rectángulo_12004" data-name="Rectángulo 12004" width="7.55" height="4.555" transform="translate(149.299 48.354)" fill="#eaf4f9"/>
          <rect id="Rectángulo_12005" data-name="Rectángulo 12005" width="7.55" height="4.557" transform="translate(149.299 56.361)" fill="#eaf4f9"/>
          <rect id="Rectángulo_12006" data-name="Rectángulo 12006" width="7.551" height="4.555" transform="translate(149.601 66.187)" fill="#eaf4f9"/>
          <rect id="Rectángulo_12007" data-name="Rectángulo 12007" width="7.551" height="4.555" transform="translate(149.601 75.429)" fill="#eaf4f9"/>
          <path id="Trazado_160319" data-name="Trazado 160319" d="M124.256,48.821h19.785l10.149,39.31H113.582Z" transform="translate(40.402 17.366)" fill="#2e6e7e"/>
          <path id="Trazado_160320" data-name="Trazado 160320" d="M109.411,79.581h32.955l-1.015-3.936-30.775-.35Z" transform="translate(38.919 26.783)" fill="#235967"/>
          <rect id="Rectángulo_12008" data-name="Rectángulo 12008" width="10.935" height="27.076" transform="translate(201.104 78.421)" fill="#2e6e7e"/>
          <rect id="Rectángulo_12009" data-name="Rectángulo 12009" width="6.998" height="77.254" transform="translate(194.053 28.699)" fill="#2f9196"/>
          <path id="Trazado_160321" data-name="Trazado 160321" d="M128.693,48.821l-.512,39.31H149.52l-10.672-39.31Z" transform="translate(45.595 17.366)" fill="#235967"/>
          <path id="Trazado_160322" data-name="Trazado 160322" d="M192.267,13.232a7.012,7.012,0,0,0-1.5.168,9.066,9.066,0,0,0-8.359-5.06,9.311,9.311,0,0,0-7.441,3.533,7.8,7.8,0,0,0-1.571-.163c-3.944,0-7.139,2.87-7.139,6.4a6.569,6.569,0,0,0,5.365,6.2v.206h20.647c3.479,0,6.3-2.524,6.3-5.644s-2.819-5.645-6.3-5.645" transform="translate(59.138 2.967)" fill="#dceaf9"/>
          <path id="Trazado_160323" data-name="Trazado 160323" d="M174.488,78.693c-1.688-.123-3.389-.2-5.127-.2a64.379,64.379,0,0,0-14.337,1.753c-13.683,3.163-26.786,10.183-32.012,17.451h88.83c-6.35-10.259-20.479-17.726-37.354-19" transform="translate(43.756 27.919)" fill="#4d5e08"/>
          <path id="Trazado_160324" data-name="Trazado 160324" d="M142.276,75.1a45.947,45.947,0,0,0-4.681-.256A43.824,43.824,0,0,0,124.5,77.032C112,80.985,100.039,89.761,95.264,98.85h81.127c-5.8-12.828-18.7-22.159-34.115-23.753" transform="translate(33.886 26.621)" fill="#7aa102"/>
          <path id="Trazado_160325" data-name="Trazado 160325" d="M198.247,69.669c0,5.686-5.977,7.162-5.977,7.162s-5.979-1.476-5.979-7.162,5.979-13.426,5.979-13.426,5.977,7.742,5.977,13.426" transform="translate(66.265 20.006)" fill="#7aa102"/>
          <path id="Trazado_160326" data-name="Trazado 160326" d="M190.7,56.241V76.83s5.976-1.475,5.976-7.162S190.7,56.241,190.7,56.241" transform="translate(67.834 20.006)" fill="#4d5e08"/>
          <path id="Trazado_160327" data-name="Trazado 160327" d="M191.35,78.026a.511.511,0,1,1-1.018,0V64.646a.512.512,0,1,1,1.018,0Z" transform="translate(67.703 22.795)" fill="#90654f"/>
          <path id="Trazado_160328" data-name="Trazado 160328" d="M190.707,64.083v14.5a.538.538,0,0,0,.51-.561V64.646a.538.538,0,0,0-.51-.563" transform="translate(67.836 22.795)" fill="#90654f"/>
          <path id="Trazado_160329" data-name="Trazado 160329" d="M155.739,82.613c0,5.686-5.979,7.161-5.979,7.161s-5.979-1.475-5.979-7.161,5.979-13.426,5.979-13.426,5.979,7.741,5.979,13.426" transform="translate(51.144 24.611)" fill="#7aa102"/>
          <path id="Trazado_160330" data-name="Trazado 160330" d="M148.192,69.186V89.774s5.979-1.475,5.979-7.161-5.979-13.427-5.979-13.427" transform="translate(52.713 24.61)" fill="#4d5e08"/>
          <path id="Trazado_160331" data-name="Trazado 160331" d="M148.84,90.97a.51.51,0,1,1-1.015,0V77.59a.51.51,0,1,1,1.015,0Z" transform="translate(52.583 27.399)" fill="#90654f"/>
          <path id="Trazado_160332" data-name="Trazado 160332" d="M148.2,77.027V91.533a.537.537,0,0,0,.508-.563V77.59a.536.536,0,0,0-.508-.563" transform="translate(52.716 27.399)" fill="#90654f"/>
          <path id="Trazado_160333" data-name="Trazado 160333" d="M104.464,78.775c0,4.374-4.6,5.508-4.6,5.508s-4.6-1.135-4.6-5.508,4.6-10.329,4.6-10.329,4.6,5.956,4.6,10.329" transform="translate(33.886 24.347)" fill="#7aa102"/>
          <path id="Trazado_160334" data-name="Trazado 160334" d="M98.659,68.447V84.284s4.6-1.136,4.6-5.508-4.6-10.329-4.6-10.329" transform="translate(35.094 24.347)" fill="#4d5e08"/>
          <path id="Trazado_160335" data-name="Trazado 160335" d="M99.157,85.2a.394.394,0,1,1-.784,0V74.912a.394.394,0,1,1,.784,0Z" transform="translate(34.992 26.493)" fill="#90654f"/>
          <path id="Trazado_160336" data-name="Trazado 160336" d="M98.663,74.478V85.635a.414.414,0,0,0,.39-.431V74.912a.415.415,0,0,0-.39-.434" transform="translate(35.095 26.493)" fill="#90654f"/>
          <path id="Trazado_160337" data-name="Trazado 160337" d="M96.114,85.007c0,4.67-4.909,5.882-4.909,5.882s-4.913-1.212-4.913-5.882,4.913-11.026,4.913-11.026,4.909,6.357,4.909,11.026" transform="translate(30.695 26.316)" fill="#7aa102"/>
          <path id="Trazado_160338" data-name="Trazado 160338" d="M89.916,73.98V90.891s4.909-1.212,4.909-5.884S89.916,73.98,89.916,73.98" transform="translate(31.984 26.315)" fill="#4d5e08"/>
          <path id="Trazado_160339" data-name="Trazado 160339" d="M90.449,91.874a.42.42,0,1,1-.835,0V80.884a.42.42,0,1,1,.835,0Z" transform="translate(31.876 28.606)" fill="#90654f"/>
          <path id="Trazado_160340" data-name="Trazado 160340" d="M89.922,80.42V92.335a.441.441,0,0,0,.418-.461V80.882a.44.44,0,0,0-.418-.462" transform="translate(31.986 28.606)" fill="#90654f"/>
          <path id="Trazado_160341" data-name="Trazado 160341" d="M395.735,101.262H4.452a4.452,4.452,0,0,1,0-8.9H395.735a4.452,4.452,0,0,1,0,8.9" transform="translate(0 32.853)" fill="#537e39"/>
        </g>
      </g>
    </g>
  </g>
</svg>
