<svg xmlns="http://www.w3.org/2000/svg" width="1241" height="223" viewBox="0 0 1241 223">
  <g id="Grupo_78886" data-name="Grupo 78886" transform="translate(-179 -2057)">
    <rect id="Rect치ngulo_11877" data-name="Rect치ngulo 11877" width="1241" height="223" transform="translate(179 2057)" fill="#f1f4ec"/>
    <path id="Icon_awesome-quote-right" data-name="Icon awesome-quote-right" d="M30.56,2.25H22.13a3.162,3.162,0,0,0-3.161,3.161v8.43A3.162,3.162,0,0,0,22.13,17H27.4v4.215a4.219,4.219,0,0,1-4.215,4.215h-.527a1.577,1.577,0,0,0-1.581,1.581v3.161a1.577,1.577,0,0,0,1.581,1.581h.527A10.535,10.535,0,0,0,33.722,21.218V5.411A3.162,3.162,0,0,0,30.56,2.25Zm-18.968,0H3.161A3.162,3.162,0,0,0,0,5.411v8.43A3.162,3.162,0,0,0,3.161,17H8.43v4.215a4.219,4.219,0,0,1-4.215,4.215H3.688a1.577,1.577,0,0,0-1.581,1.581v3.161a1.577,1.577,0,0,0,1.581,1.581h.527A10.535,10.535,0,0,0,14.753,21.218V5.411A3.162,3.162,0,0,0,11.592,2.25Z" transform="translate(220.395 2081.914)" fill="#f1a67e"/>
    <rect id="Rect치ngulo_11878" data-name="Rect치ngulo 11878" width="28" height="29" transform="translate(1377 2239)" fill="#f1a67e"/>
  </g>
</svg>
